<svg id="altiuma" version="1.1" viewBox="0 0 83 18" xmlns="http://www.w3.org/2000/svg">
	<style id="altiumb">#altiumc, #altiumd { 
    fill:currentColor;
}</style>
	<path id="altiumc" d="m21.442 0-4.2192 17.1h4.7725l4.2192-17.1h-4.7725zm8.5075 13.223 1.5216-6.1616h2.0059l0.6916-2.9077h-2.0058l1.0375-4.0154h-4.7725l-3.4583 13.777c-0.3459 1.3846-0.2767 2.2846 0.3458 2.7 0.4842 0.4154 1.5217 0.6231 2.9742 0.5538 0.83 0 1.7291-0.0692 2.6975-0.1384l0.6916-2.9077h-0.7608c-0.83 0.1384-1.1067-0.2077-0.9683-0.9zm5.9483-9.0693-3.1817 12.946h4.7725l3.1817-12.946h-4.7725zm14.456 0-2.075 8.5847c-0.2766 1.0384-0.83 1.523-1.7983 1.523-0.8992 0-1.245-0.4846-0.9683-1.523l2.1441-8.5847h-4.7725l-2.4208 9.8308c-0.3458 1.3846-0.1383 2.2846 0.4842 2.7692 0.6225 0.4847 1.4525 0.7616 2.49 0.6923 1.7291 0 3.1125-0.623 4.0116-1.8692h0.0692l-0.3458 1.5923h4.7725l3.1816-13.015h-4.7725zm25.661 0.34616c-0.6225-0.48462-1.5217-0.69231-2.6284-0.69231-0.7608 0-1.5216 0.13846-2.2133 0.41538-0.7608 0.27693-1.4525 0.83077-2.0058 1.5923-0.1384-0.69231-0.415-1.1769-0.8992-1.5231-0.4842-0.34616-1.245-0.48462-2.2825-0.48462-1.7292 0-3.1125 0.62308-4.0808 1.9385h-0.0692l0.415-1.5923h-4.7725l-3.1817 12.946h4.7725l2.1442-8.5846c0.2767-1.0385 0.83-1.5231 1.7983-1.5231 0.8992 0 1.245 0.48461 0.9684 1.5231l-2.1442 8.5846h4.7725l2.1442-8.5846c0.2766-1.0385 0.8991-1.5231 1.7983-1.5231s1.245 0.48461 0.9683 1.5231l-2.075 8.5846h2.075c1.5217 0 2.905-1.0385 3.2509-2.3539l1.7983-7.4076c0.2075-1.3846 0.0692-2.3538-0.5533-2.8385zm-63.288-4.5c-2.3517 0.069231-4.3575 1.3846-5.4642 3.3923l-7.2625 13.708h5.4642l1.3142-2.9769h4.0809l-0.1384 2.9769h5.4642l-0.6225-17.1h-2.8358zm-1.66 10.869h-2.8359l3.2509-7.1307-0.415 7.1307z" fill="#fff" style=""/>
	<path id="altiumd" d="m83 15.992c0 1.1769-0.8992 2.0077-2.0058 2.0077-1.1067 0-2.0059-0.8308-2.0059-2.0077s0.8992-2.0077 2.0059-2.0077c1.1066 0.0692 2.0058 0.9 2.0058 2.0077zm-0.4842 0c0-0.9-0.6225-1.5923-1.5216-1.5923-0.8992 0-1.5217 0.6231-1.5217 1.5923 0 0.9 0.6225 1.5231 1.5217 1.5231 0.8991 0.0692 1.5216-0.5539 1.5216-1.5231zm-1.5216-0.9692c0.4841 0 0.7608 0.2077 0.7608 0.6231 0 0.2769-0.1383 0.4846-0.3458 0.5538l0.4841 0.7615h-0.3458l-0.415-0.6923h-0.2767v0.6923h-0.3458v-1.9384h0.4842zm0.0691 0.9692c0.2075 0 0.3459-0.1385 0.3459-0.2769 0-0.2077-0.1384-0.2769-0.3459-0.2769h-0.3458v0.623h0.3458v-0.0692z" fill="#fff" style=""/>
</svg>
