<?xml version="1.0" encoding="UTF-8"?>
<svg width="709" height="110" version="1.1" xmlns="http://www.w3.org/2000/svg">
<title>BAE Systems logo</title>
 <polygon transform="matrix(1.25 0 0 -1.25 0 110)" points="0 87.8 567 87.8 567 0 0 0" fill="#f03"/>
 <path d="m276 27.7c-5.25 1e-6 -10.9 0.991-15.2 4-4.25 3.01-6.78 8.12-6.78 13.3 0 12.6 11.8 15.3 21.8 17.2 2.4 0.464 6.5 1.1 6.5 4.34 1e-5 2.93-4.18 3.22-6.25 3.22-4.71 0-8.27-1.7-9.66-6.41l-15.1 2.72 0.281 1.06 0.344 1 0.375 1 0.406 0.938 0.438 0.906 0.469 0.844 0.531 0.844 0.531 0.781 0.594 0.75 0.594 0.719 1.31 1.31 1.44 1.19 0.75 0.531 0.781 0.5 0.781 0.469 0.844 0.438 0.844 0.406 0.875 0.375 0.875 0.344 0.906 0.281 0.938 0.281 0.938 0.25 0.938 0.219 1 0.188 0.969 0.156 1 0.125 1.03 0.0938 2.03 0.125h1.03c11-3e-6 23.6-5.08 23.6-17.8 1e-5 -5.79-2.7-10.8-7.88-13.5-4.62-2.39-9.96-3.21-15-4.22-2-0.464-5.84-1-5.84-3.78-1e-5 -2.78 3.06-3.41 5.22-3.41 4.09-1e-6 7.03 1.38 8.56 5.31l13.4-4.06c-3.24-9.18-12.1-13-21.3-13zm118 0c-5.24 1e-6 -10.9 0.991-15.2 4-4.24 3.01-6.78 8.12-6.78 13.3 1e-5 12.6 11.8 15.3 21.8 17.2 2.39 0.464 6.47 1.1 6.47 4.34-1e-5 2.93-4.16 3.22-6.25 3.22-4.7 0-8.24-1.7-9.62-6.41l-15.1 2.72 0.312 1.06 0.312 1 0.375 1 0.406 0.938 0.438 0.906 0.469 0.844 0.531 0.844 0.531 0.781 0.594 0.75 0.594 0.719 1.31 1.31 1.44 1.19 0.75 0.531 0.781 0.5 0.781 0.469 0.844 0.438 0.844 0.406 0.875 0.375 0.875 0.344 0.906 0.281 0.938 0.281 0.938 0.25 0.969 0.219 0.969 0.188 0.969 0.156 1 0.125 1.03 0.0938 2.03 0.125h1.06c10.9-3e-6 23.6-5.08 23.6-17.8 1e-5 -5.79-2.71-10.8-7.88-13.5-4.62-2.39-9.96-3.21-15-4.22-2-0.464-5.88-1-5.88-3.78 1e-5 -2.78 3.09-3.41 5.25-3.41 4.09-1e-6 7.03 1.38 8.56 5.31l13.4-4.06c-3.24-9.18-12.1-13-21.3-13zm251 0c-5.25 1e-6 -10.9 0.991-15.2 4-4.24 3.01-6.78 8.12-6.78 13.3-2e-5 12.6 11.8 15.3 21.8 17.2 2.4 0.464 6.5 1.1 6.5 4.34-1e-5 2.93-4.16 3.22-6.25 3.22-4.7 0-8.27-1.7-9.66-6.41l-15 2.72 0.281 1.06 0.312 1 0.375 1 0.406 0.938 0.438 0.906 0.469 0.844 0.531 0.844 0.531 0.781 0.594 0.75 0.594 0.719 1.31 1.31 1.44 1.19 0.75 0.531 0.781 0.5 0.812 0.469 0.812 0.438 0.844 0.406 0.875 0.375 0.875 0.344 0.938 0.281 0.906 0.281 0.938 0.25 0.969 0.219 0.969 0.188 0.969 0.156 1 0.125 1.03 0.0938 1.03 0.0625 1 0.0625h1.06c11-3e-6 23.6-5.08 23.6-17.8-1e-5 -5.79-2.68-10.8-7.84-13.5-4.64-2.39-9.99-3.21-15-4.22-2.01-0.464-5.84-1-5.84-3.78 0-2.78 3.09-3.41 5.25-3.41 4.09-1e-6 7.01 1.38 8.56 5.31l13.4-4.06c-3.24-9.18-12.1-13-21.3-13zm-600 0.781v52.9h24.2c4.78 0 10.5-0.065 14.6-3 3.78-2.69 5.41-7.79 5.41-12.3 0-6.33-4.15-11-10.2-12 5.4-1.39 8.94-6.1 8.94-11.7 2e-6 -4.32-2.08-8.64-5.62-11.2-3.32-2.39-7.39-2.69-11.4-2.69h-25.9zm75.5 0-16.4 52.9h13.2l3.25-10.4h14.1l3 10.4h16.6l-16.6-52.9h-17.1zm50.9 0v52.9h39.8v-12.7h-23.8v-8.56h19.3v-11.8h-19.3v-7.72h23.8v-12.2h-39.8zm139 0 17.8 30.5v22.4h15.7v-22.4l16.6-30.5h-14.2l-8.88 17.4-9.25-17.4h-17.8zm122 0v12.7h11.1v40.2h15.4v-40.2h10.9v-12.7h-37.4zm55.2 0v52.9h39.7v-12.7h-23.8v-8.56h19.3v-11.8h-19.3v-7.72h23.8v-12.2h-39.7zm59.7 0v52.9h12.2v-37.8l10.1 37.8h10.3l9.66-37.8 0.125 37.8h15.1v-52.9h-21.4l-7.25 28.1-7.69-28.1h-21.2zm-487 11.3h6.31c3.09 0 6.34 0.565 6.34 4.5 1e-6 1.23-0.531 2.55-1.53 3.47-1.16 1.08-3.02 1-4.56 1h-6.56v-8.97zm67.6 4.25 4.31 15.4h-8.66l4.34-15.4zm-67.6 16h6.41c1.46 1e-6 3.33 0.025 4.72 0.719 1.54 0.771 2.53 2.38 2.53 4.16 1e-6 1.46-0.781 2.84-1.94 3.69-1.31 1.08-3.07 1-4.69 1h-7.03v-9.56z" fill="#fff"/>
</svg>
