<?xml version="1.0" encoding="UTF-8"?>
<svg version="1.1" viewBox="0 0 69.598 20.928" xmlns="http://www.w3.org/2000/svg">
 <path d="M16.54 6.12h3.903V5.046H16.54z" fill="#d21c2e"/>
 <path d="M13.286 14.47c-.208.11-.58.222-1.078.222-1.599 0-2.661-1.184-2.661-3.398 0-2.016 1.116-3.53 2.9-3.53.397 0 .656.096.839.195v1.172a2.439 2.439 0 0 0-.81-.15c-.961 0-1.457 1.045-1.457 2.284 0 1.377.557 2.216 1.458 2.216.272 0 .594-.054.809-.16v1.149M18.988 13.51v-2.374c-.574.007-1.616.166-1.616 1.338 0 .76.406 1.035.73 1.035zm1.454-.537c0 .523.032 1.189.103 1.635h-2.888c-.965 0-1.694-.801-1.694-1.982 0-1.73 1.463-2.46 2.986-2.475v-.119c0-.702-.275-1.195-1.006-1.195-.482 0-1.032.14-1.396.374V8.204c.33-.21.896-.482 1.717-.482 1.734 0 2.178 1.127 2.178 2.56v2.691M26.935 13.5h-.86c-.619 0-.977-.934-.977-2.279 0-1.204.267-2.267 1.014-2.267.435 0 .738.48.801 1.02.022.137.022.287.022.415zm1.47-.528-.002-7.239h-1.468v2.702h-.028c-.216-.465-.623-.731-1.179-.731-1.087 0-2.102 1.134-2.102 3.497 0 2.029.73 3.402 2.033 3.402l2.85.003c-.07-.447-.103-1.112-.103-1.634M34.851 10.58c.011-1.08-.343-1.723-.867-1.723-.641 0-.93.933-.96 1.723zm-1.833 1.05c.016 1.506.715 1.915 1.5 1.915.493 0 1.014-.11 1.313-.24v1.063c-.42.198-.964.317-1.58.317-1.736 0-2.668-1.26-2.668-3.344 0-2.228 1.068-3.583 2.506-3.583 1.416 0 2.13 1.28 2.13 3.084 0 .385-.016.601-.039.786l-3.162.003M40.881 9.01v5.602h-1.476V9.776c0-.761-.038-1.357-.06-1.953h2.91c1.121 0 1.79.816 1.79 2.378v4.41h-1.477v-4.27c0-.673-.143-1.33-.785-1.33l-.902-.001M50.921 14.47c-.208.11-.58.222-1.078.222-1.599 0-2.662-1.184-2.662-3.398 0-2.016 1.116-3.53 2.9-3.53.398 0 .656.096.84.195v1.172a2.446 2.446 0 0 0-.81-.15c-.962 0-1.457 1.045-1.457 2.284 0 1.377.556 2.216 1.458 2.216.272 0 .593-.054.809-.16v1.149M54.981 10.58c.03-.79.319-1.723.959-1.723.525 0 .879.642.867 1.723zm3.193.262c0-1.805-.713-3.084-2.129-3.084-1.437 0-2.506 1.355-2.506 3.583 0 2.084.932 3.344 2.668 3.344.617 0 1.161-.12 1.58-.317v-1.062c-.3.128-.82.239-1.312.239-.786 0-1.484-.409-1.5-1.914l3.161-.003c.024-.185.038-.401.038-.786M59.681 5.33c.488 0 .886.454.886 1.012 0 .557-.398 1.011-.886 1.011-.49 0-.886-.454-.886-1.01 0-.56.396-1.013.886-1.013zm.003 1.872c.408 0 .714-.376.714-.86 0-.485-.306-.86-.714-.86-.412 0-.72.375-.72.86 0 .484.308.86.72.86zm-.342-1.454h.398c.238 0 .356.109.356.333 0 .19-.106.327-.269.327l.296.524h-.179l-.29-.524h-.143v.524h-.17zm.17.51h.2c.131 0 .214-.031.214-.185 0-.135-.105-.174-.214-.174h-.2v.358" fill="currentColor"/>
 <rect width="69.598" height="20.928" ry=".262" fill="none" style='font-variation-settings:"wght"900'/>
 <rect x=".243" y=".426" width="2.19" height=".913" ry=".262" fill="none" style='font-variation-settings:"wght"900'/>
</svg>
