<svg id="svg2" version="1.0" viewBox="0 0 108.61 17.763" xmlns="http://www.w3.org/2000/svg">
	<style id="style1">#path2386, #path2408, #polygon2404, #polygon2402, #path2384, #path2400, #rect2394, #polygon2396, #polygon2398, #path2390, #path2388 { 
    fill:currentColor;
}</style>
	<g id="layer1" transform="translate(-256.02,-164.54)">
		<g id="g2418" transform="translate(256.02,164.54)">
			<path id="path2384" d="m45.365 7.256-0.986 0.023v-3.943h1.13c0.856 0 1.137 0.628 1.137 2s-0.316 1.92-1.281 1.92m4.975 8.99v-4.226c0-2.004-0.715-3.169-2.243-3.443 1.776-0.471 2.262-1.961 2.262-3.869 0-2.69-0.967-4.362-4.104-4.362h-5.618l3e-3 17.417h3.74v-7.573h0.922c0.9 0 1.327 0.621 1.327 1.45v4.633c0 0.77 0.155 1.338 0.261 1.489h3.783c-0.132-0.144-0.333-0.745-0.333-1.516"/>
			<path id="path2386" d="m8.387 14.801c0.669-0.558 0.784-1.249 0.784-1.869v-2.604h-3.636v3.533c0 0.506-0.409 0.916-0.914 0.916s-0.881-0.41-0.881-0.916v-10.009c0-0.505 0.376-0.915 0.881-0.915s0.914 0.41 0.914 0.915v3.556h3.631v-3.689c0-2.038-1.332-3.715-4.576-3.719-3.331 0-4.59 1.685-4.59 3.723v10.451c0 2.02 1.604 3.548 3.655 3.548h1.126z"/>
			<path id="path2388" d="m103.31 7.247h-0.993v-3.92h1.136c0.854 0 1.137 0.628 1.137 1.999 0 1.373-0.314 1.921-1.28 1.921m4.971 8.99v-4.227c0-2.003-0.712-3.168-2.24-3.443 1.776-0.47 2.262-1.959 2.262-3.866 0-2.692-0.97-4.364-4.104-4.364h-5.619v17.417h3.749v-7.572h0.915c0.902 0 1.324 0.62 1.324 1.45v4.633c0 0.771 0.159 1.338 0.264 1.489h3.78c-0.13-0.145-0.331-0.747-0.331-1.517"/>
			<path id="path2390" d="m90.796 11.487 0.974-8.127 0.972 8.127zm3.479-11.184h-5.029l-2.988 17.45h3.786l0.371-3.079 2.705-2e-3 0.369 3.081h3.789z"/>
			<polygon id="polygon2392" points="73.034 0.341 73.034 14.446 77.031 14.446 77.031 17.751 69.198 17.751 69.198 0.341"/>
			<rect id="rect2394" x="63.333" y=".342" width="3.833" height="17.41"/>
			<polygon id="polygon2396" points="73.034 0.341 73.034 14.446 77.031 14.446 77.031 17.751 69.198 17.751 69.198 0.341"/>
			<polygon id="polygon2398" points="81.787 0.341 81.787 14.446 85.786 14.446 85.786 17.751 77.954 17.751 77.954 0.341"/>
			<path id="path2400" d="m57.057 7.764-1.144-0.014v-4.416h1.138c0.972 0 1.135 0.666 1.135 2.26 0 1.647-0.164 2.17-1.129 2.17m0.965-7.422h-5.845v17.417h3.748v-6.912h2.097c3.443 0 4.024-2.194 4.024-5.253 1e-3 -3.058-0.58-5.252-4.024-5.252"/>
			<polygon id="polygon2402" points="38.13 7.11 38.13 10.521 34.161 10.521 34.161 14.387 38.877 14.385 38.877 17.746 30.322 17.75 30.322 0.338 30.318 0.338 38.722 0.338 38.722 3.66 34.161 3.66 34.161 7.11"/>
			<polygon id="polygon2404" points="20.211 3.726 20.211 0.343 29.293 0.343 29.293 3.726 26.771 3.726 26.771 17.701 25.695 17.701 22.721 15.211 22.721 3.726"/>
			<polygon id="polygon2406" points="6.34 17.727 24.348 17.727 15.504 10.316" fill="#ffc400"/>
			<path id="path2408" d="m14.526 8.319 0.979-5.004 0.974 5.004zm3.501-7.958h-5.066l-2.951 13.243 5.496-4.437 5.73 4.802z"/>
		</g>
	</g>
</svg>
