<svg version="1.1" id="Layer_1" xmlns="http://www.w3.org/2000/svg" xmlns:xlink="http://www.w3.org/1999/xlink" x="0px" y="0px"
	 width="100%" viewBox="0 0 220 220" enable-background="new 0 0 220 220" xml:space="preserve">
<path fill="#CC0000" opacity="1.000000" stroke="none" 
	d="
M89.000000,1.000001 
	C103.354225,1.000000 117.708458,1.000000 132.411133,1.404723 
	C133.265289,2.179303 133.736267,2.808072 134.281738,2.881207 
	C148.423447,4.777250 160.650436,11.140111 172.527832,18.644760 
	C185.403900,26.780416 195.968201,37.235046 203.807632,50.092636 
	C208.716736,58.144146 212.254974,67.072853 215.959198,75.798637 
	C217.590973,79.642548 218.058517,83.973763 219.195679,88.044342 
	C219.321762,88.495689 220.376129,88.687714 221.000000,89.000000 
	C221.000000,103.354225 221.000000,117.708458 220.595276,132.411118 
	C219.820694,133.265228 219.192062,133.736145 219.118790,134.281677 
	C217.219696,148.421646 210.864502,160.651352 203.356155,172.526917 
	C195.217148,185.399918 184.766586,195.968643 171.907532,203.807159 
	C163.855438,208.715485 154.927368,212.254547 146.201691,215.958908 
	C142.357819,217.590759 138.026611,218.058411 133.956100,219.195679 
	C133.504608,219.321823 133.312439,220.376160 133.000000,221.000000 
	C118.645775,221.000000 104.291542,221.000000 89.588898,220.595276 
	C82.259972,217.842590 75.266472,215.532425 68.301918,213.138077 
	C57.064594,209.274796 47.143173,203.097000 38.571346,194.990662 
	C32.251087,189.013596 25.883204,182.868286 20.760277,175.898483 
	C14.191023,166.960907 8.760652,157.162460 5.940379,146.215073 
	C4.887575,142.128448 3.939284,138.013840 2.802580,133.951370 
	C2.676659,133.501358 1.623256,133.310852 1.000000,133.000000 
	C1.000000,118.645775 1.000000,104.291542 1.404708,89.589035 
	C2.179325,88.735092 2.808109,88.264175 2.881331,87.718681 
	C4.779472,73.577866 11.137132,61.348965 18.644617,49.472469 
	C26.782654,36.598473 37.233833,26.031193 50.092949,18.193100 
	C58.145233,13.284942 67.072845,9.745032 75.798470,6.040519 
	C79.642342,4.408578 83.973808,3.941406 88.044487,2.804356 
	C88.495781,2.678298 88.687759,1.623873 89.000000,1.000001 
M172.560181,185.119598 
	C173.255569,184.693253 174.041977,184.366394 174.632904,183.825851 
	C185.833435,173.580444 194.993210,161.769012 200.549072,147.589142 
	C203.331131,140.488678 205.752884,133.024017 206.760559,125.512520 
	C207.821411,117.604500 206.877304,109.441696 207.030594,101.394440 
	C207.262711,89.208717 202.867691,77.994347 197.544785,67.759949 
	C186.883072,47.260529 171.110626,31.589088 149.201736,22.377056 
	C136.886200,17.198746 124.331490,14.048615 111.154610,14.145191 
	C99.684738,14.229256 88.536469,16.216705 77.528168,20.429953 
	C65.140022,25.171312 54.394112,31.890091 44.797176,40.739464 
	C34.617916,50.125801 26.661819,61.211338 21.634142,74.093475 
	C18.802357,81.349197 16.299881,88.953667 15.242734,96.620766 
	C14.153463,104.520851 15.104322,112.689476 14.974185,120.737556 
	C14.777267,132.915588 19.181900,144.123337 24.514444,154.357254 
	C35.195045,174.854889 51.014771,190.500305 72.910797,199.685013 
	C84.742157,204.647919 96.828583,207.901260 109.476479,207.783768 
	C118.073677,207.703888 126.727310,205.954285 135.212570,204.242004 
	C141.049805,203.064087 147.031647,201.405640 152.247269,198.639267 
	C159.183823,194.960114 165.438004,189.994446 172.560181,185.119598 
z"/>
<path fill="#000000" opacity="1.000000" stroke="none" 
	d="
M1.000000,133.468658 
	C1.623256,133.310852 2.676659,133.501358 2.802580,133.951370 
	C3.939284,138.013840 4.887575,142.128448 5.940379,146.215073 
	C8.760652,157.162460 14.191023,166.960907 20.760277,175.898483 
	C25.883204,182.868286 32.251087,189.013596 38.571346,194.990662 
	C47.143173,203.097000 57.064594,209.274796 68.301918,213.138077 
	C75.266472,215.532425 82.259972,217.842590 89.120239,220.595276 
	C59.739758,221.000000 30.479517,221.000000 1.000000,221.000000 
	C1.000000,191.979477 1.000000,162.958389 1.000000,133.468658 
z"/>
<path fill="#000000" opacity="1.000000" stroke="none" 
	d="
M88.531342,1.000001 
	C88.687759,1.623873 88.495781,2.678298 88.044487,2.804356 
	C83.973808,3.941406 79.642342,4.408578 75.798470,6.040519 
	C67.072845,9.745032 58.145233,13.284942 50.092949,18.193100 
	C37.233833,26.031193 26.782654,36.598473 18.644617,49.472469 
	C11.137132,61.348965 4.779472,73.577866 2.881331,87.718681 
	C2.808109,88.264175 2.179325,88.735092 1.404708,89.120377 
	C1.000000,59.739754 1.000000,30.479509 1.000000,1.000000 
	C30.020527,1.000000 59.041603,1.000000 88.531342,1.000001 
z"/>
<path fill="#000000" opacity="1.000000" stroke="none" 
	d="
M221.000000,88.531342 
	C220.376129,88.687714 219.321762,88.495689 219.195679,88.044342 
	C218.058517,83.973763 217.590973,79.642548 215.959198,75.798637 
	C212.254974,67.072853 208.716736,58.144146 203.807632,50.092636 
	C195.968201,37.235046 185.403900,26.780416 172.527832,18.644760 
	C160.650436,11.140111 148.423447,4.777250 134.281738,2.881207 
	C133.736267,2.808072 133.265289,2.179303 132.879791,1.404723 
	C162.260239,1.000000 191.520477,1.000000 221.000000,1.000000 
	C221.000000,30.020527 221.000000,59.041603 221.000000,88.531342 
z"/>
<path fill="#000000" opacity="1.000000" stroke="none" 
	d="
M133.468658,221.000000 
	C133.312439,220.376160 133.504608,219.321823 133.956100,219.195679 
	C138.026611,218.058411 142.357819,217.590759 146.201691,215.958908 
	C154.927368,212.254547 163.855438,208.715485 171.907532,203.807159 
	C184.766586,195.968643 195.217148,185.399918 203.356155,172.526917 
	C210.864502,160.651352 217.219696,148.421646 219.118790,134.281677 
	C219.192062,133.736145 219.820694,133.265228 220.595276,132.879776 
	C221.000000,162.260239 221.000000,191.520477 221.000000,221.000000 
	C191.979477,221.000000 162.958389,221.000000 133.468658,221.000000 
z"/>
<path fill="#000000" opacity="1.000000" stroke="none" 
	d="
M172.272766,185.350540 
	C165.438004,189.994446 159.183823,194.960114 152.247269,198.639267 
	C147.031647,201.405640 141.049805,203.064087 135.212570,204.242004 
	C126.727310,205.954285 118.073677,207.703888 109.476479,207.783768 
	C96.828583,207.901260 84.742157,204.647919 72.910797,199.685013 
	C51.014771,190.500305 35.195045,174.854889 24.514444,154.357254 
	C19.181900,144.123337 14.777267,132.915588 14.974185,120.737556 
	C15.104322,112.689476 14.153463,104.520851 15.242734,96.620766 
	C16.299881,88.953667 18.802357,81.349197 21.634142,74.093475 
	C26.661819,61.211338 34.617916,50.125801 44.797176,40.739464 
	C54.394112,31.890091 65.140022,25.171312 77.528168,20.429953 
	C88.536469,16.216705 99.684738,14.229256 111.154610,14.145191 
	C124.331490,14.048615 136.886200,17.198746 149.201736,22.377056 
	C171.110626,31.589088 186.883072,47.260529 197.544785,67.759949 
	C202.867691,77.994347 207.262711,89.208717 207.030594,101.394440 
	C206.877304,109.441696 207.821411,117.604500 206.760559,125.512520 
	C205.752884,133.024017 203.331131,140.488678 200.549072,147.589142 
	C194.993210,161.769012 185.833435,173.580444 174.632904,183.825851 
	C174.041977,184.366394 173.255569,184.693253 172.272766,185.350540 
M147.434677,67.890938 
	C136.482971,72.589241 125.531258,77.287544 113.849991,82.298828 
	C113.849991,71.139587 113.849991,60.728531 113.849991,50.268173 
	C111.382217,50.268173 109.456535,50.268173 107.122803,50.268173 
	C107.122803,62.128086 107.122803,73.735580 107.122803,85.318344 
	C103.006042,87.033356 99.349373,88.968018 95.456459,90.062241 
	C91.598343,91.146698 89.821365,93.317322 88.331078,96.993286 
	C84.232224,107.103569 83.976379,106.999847 72.734871,106.999825 
	C64.292496,106.999809 55.850124,106.999817 47.426277,106.999817 
	C47.426277,110.019714 47.426277,112.381927 47.426277,115.119019 
	C58.452023,115.119019 69.059235,115.119019 80.382179,115.119019 
	C73.678940,130.893829 67.219032,146.096024 60.759125,161.298203 
	C61.124084,161.674484 61.489048,162.050766 61.854012,162.427048 
	C76.746323,156.097519 91.638634,149.768005 107.167984,143.167725 
	C107.167984,154.252670 107.167984,164.367249 107.167984,174.631592 
	C109.570999,174.631592 111.601456,174.631592 114.001183,174.631592 
	C114.001183,164.137436 113.924423,153.999146 114.081093,143.864456 
	C114.105560,142.281525 114.745407,139.966629 115.877647,139.289673 
	C118.618965,137.650620 121.822586,136.787979 124.832985,135.595001 
	C129.132675,133.891083 131.932465,131.390015 133.229492,126.366936 
	C135.961700,115.785851 137.580429,114.999992 148.401749,115.000015 
	C156.502197,115.000031 164.602646,115.000015 172.710846,115.000015 
	C172.710846,112.014496 172.710846,109.757065 172.710846,106.917336 
	C162.403885,106.917336 152.371277,106.917336 141.846893,106.917336 
	C148.074829,92.349213 154.013611,78.457436 160.597427,63.056831 
	C155.535614,64.830589 151.809448,66.136314 147.434677,67.890938 
M115.191788,19.050371 
	C111.262291,19.050371 107.332787,19.050371 103.430145,19.050371 
	C103.430145,25.718641 103.430145,31.749489 103.430145,37.650639 
	C108.114838,37.650639 112.361748,37.650639 117.388657,37.650639 
	C116.948318,31.253117 116.534210,25.236654 115.191788,19.050371 
M19.000759,113.365250 
	C19.110935,114.797127 19.221111,116.229012 19.335876,117.720558 
	C25.643494,117.720558 31.552132,117.720558 37.625511,117.720558 
	C37.625511,113.074272 37.625511,108.713188 37.625511,104.287628 
	C31.338562,104.287628 25.429682,104.287628 19.000185,104.287628 
	C19.000185,107.183136 19.000185,109.798904 19.000759,113.365250 
M184.218872,117.113541 
	C190.353516,117.510674 196.488159,117.907799 202.705948,118.310303 
	C202.705948,113.000198 202.705948,108.753380 202.705948,104.384308 
	C196.377609,104.384308 190.348495,104.384308 184.049866,104.384308 
	C184.049866,108.572220 184.049866,112.378075 184.218872,117.113541 
M104.049614,185.826721 
	C104.049614,191.417450 104.049614,197.008179 104.049614,202.561951 
	C109.056961,202.561951 113.422920,202.561951 117.648834,202.561951 
	C117.648834,196.206314 117.648834,190.293808 117.648834,183.632080 
	C112.903915,184.078751 108.559616,184.487701 104.049614,185.826721 
z"/>
<path fill="#CC0000" opacity="1.000000" stroke="none" 
	d="
M147.758972,67.666489 
	C151.809448,66.136314 155.535614,64.830589 160.597427,63.056831 
	C154.013611,78.457436 148.074829,92.349213 141.846893,106.917336 
	C152.371277,106.917336 162.403885,106.917336 172.710846,106.917336 
	C172.710846,109.757065 172.710846,112.014496 172.710846,115.000015 
	C164.602646,115.000015 156.502197,115.000031 148.401749,115.000015 
	C137.580429,114.999992 135.961700,115.785851 133.229492,126.366936 
	C131.932465,131.390015 129.132675,133.891083 124.832985,135.595001 
	C121.822586,136.787979 118.618965,137.650620 115.877647,139.289673 
	C114.745407,139.966629 114.105560,142.281525 114.081093,143.864456 
	C113.924423,153.999146 114.001183,164.137436 114.001183,174.631592 
	C111.601456,174.631592 109.570999,174.631592 107.167984,174.631592 
	C107.167984,164.367249 107.167984,154.252670 107.167984,143.167725 
	C91.638634,149.768005 76.746323,156.097519 61.854012,162.427048 
	C61.489048,162.050766 61.124084,161.674484 60.759125,161.298203 
	C67.219032,146.096024 73.678940,130.893829 80.382179,115.119019 
	C69.059235,115.119019 58.452023,115.119019 47.426277,115.119019 
	C47.426277,112.381927 47.426277,110.019714 47.426277,106.999817 
	C55.850124,106.999817 64.292496,106.999809 72.734871,106.999825 
	C83.976379,106.999847 84.232224,107.103569 88.331078,96.993286 
	C89.821365,93.317322 91.598343,91.146698 95.456459,90.062241 
	C99.349373,88.968018 103.006042,87.033356 107.122803,85.318344 
	C107.122803,73.735580 107.122803,62.128086 107.122803,50.268173 
	C109.456535,50.268173 111.382217,50.268173 113.849991,50.268173 
	C113.849991,60.728531 113.849991,71.139587 113.849991,82.298828 
	C125.531258,77.287544 136.482971,72.589241 147.758972,67.666489 
M84.017281,129.625549 
	C81.794388,134.890732 79.571495,140.155899 76.975494,146.304840 
	C92.719673,139.489243 107.421371,133.124939 121.153900,127.180168 
	C112.863533,118.222397 104.883240,109.599655 96.661392,100.715919 
	C95.856178,102.456055 95.432251,103.341858 95.033424,104.238831 
	C91.386002,112.442024 87.742935,120.647163 84.017281,129.625549 
z"/>
<path fill="#CC0000" opacity="1.000000" stroke="none" 
	d="
M115.655945,19.135281 
	C116.534210,25.236654 116.948318,31.253117 117.388657,37.650639 
	C112.361748,37.650639 108.114838,37.650639 103.430145,37.650639 
	C103.430145,31.749489 103.430145,25.718641 103.430145,19.050371 
	C107.332787,19.050371 111.262291,19.050371 115.655945,19.135281 
z"/>
<path fill="#CC0000" opacity="1.000000" stroke="none" 
	d="
M19.000473,112.889961 
	C19.000185,109.798904 19.000185,107.183136 19.000185,104.287628 
	C25.429682,104.287628 31.338562,104.287628 37.625511,104.287628 
	C37.625511,108.713188 37.625511,113.074272 37.625511,117.720558 
	C31.552132,117.720558 25.643494,117.720558 19.335876,117.720558 
	C19.221111,116.229012 19.110935,114.797127 19.000473,112.889961 
z"/>
<path fill="#CC0000" opacity="1.000000" stroke="none" 
	d="
M184.134369,116.648735 
	C184.049866,112.378075 184.049866,108.572220 184.049866,104.384308 
	C190.348495,104.384308 196.377609,104.384308 202.705948,104.384308 
	C202.705948,108.753380 202.705948,113.000198 202.705948,118.310303 
	C196.488159,117.907799 190.353516,117.510674 184.134369,116.648735 
z"/>
<path fill="#CC0000" opacity="1.000000" stroke="none" 
	d="
M104.132462,185.361679 
	C108.559616,184.487701 112.903915,184.078751 117.648834,183.632080 
	C117.648834,190.293808 117.648834,196.206314 117.648834,202.561951 
	C113.422920,202.561951 109.056961,202.561951 104.049614,202.561951 
	C104.049614,197.008179 104.049614,191.417450 104.132462,185.361679 
z"/>
<path fill="#000000" opacity="1.000000" stroke="none" 
	d="
M84.057938,129.238647 
	C87.742935,120.647163 91.386002,112.442024 95.033424,104.238831 
	C95.432251,103.341858 95.856178,102.456055 96.661392,100.715919 
	C104.883240,109.599655 112.863533,118.222397 121.153900,127.180168 
	C107.421371,133.124939 92.719673,139.489243 76.975494,146.304840 
	C79.571495,140.155899 81.794388,134.890732 84.057938,129.238647 
z"/>
</svg>