<?xml version="1.0" encoding="UTF-8"?>
<svg version="1.1" viewBox="0 0 633.05 244.25" xml:space="preserve" xmlns="http://www.w3.org/2000/svg"><defs>

<clipPath id="a"><ellipse cx="111.1" cy="110.98" rx="109.65" ry="109.83" fill="currentColor" stroke-width=".95929"/></clipPath></defs>

<path transform="translate(36.954,9.007)" d="m89 1c14.354 0 28.708 0 43.411 0.405 0.854 0.774 1.325 1.403 1.87 1.476 14.142 1.896 26.37 8.26 38.247 15.764 12.876 8.135 23.44 18.59 31.28 31.448 4.909 8.051 8.447 16.98 12.151 25.706 1.632 3.844 2.1 8.175 3.237 12.245 0.126 0.452 1.18 0.644 1.804 0.956 0 14.354 0 28.708-0.405 43.411-0.774 0.854-1.403 1.325-1.476 1.87-1.9 14.14-8.255 26.37-15.763 38.246-8.139 12.873-18.59 23.442-31.448 31.28-8.053 4.908-16.98 8.448-25.706 12.152-3.844 1.632-8.175 2.1-12.246 3.237-0.451 0.126-0.644 1.18-0.956 1.804-14.354 0-28.708 0-43.411-0.405-7.329-2.752-14.323-5.063-21.287-7.457-11.237-3.863-21.159-10.041-29.73-18.147-6.32-5.977-12.689-12.123-17.812-19.093-6.569-8.937-12-18.736-14.82-29.683-1.052-4.087-2-8.201-3.137-12.264-0.126-0.45-1.18-0.64-1.803-0.951 0-14.354 0-28.708 0.405-43.411 0.774-0.854 1.403-1.325 1.476-1.87 1.898-14.141 8.256-26.37 15.764-38.247 8.138-12.874 18.589-23.44 31.448-31.279 8.052-4.908 16.98-8.448 25.705-12.152 3.844-1.632 8.176-2.1 12.246-3.237 0.452-0.126 0.644-1.18 0.956-1.804m83.56 184.12c0.696-0.427 1.482-0.754 2.073-1.294 11.2-10.246 20.36-22.057 25.916-36.237 2.782-7.1 5.204-14.565 6.212-22.076 1.06-7.909 0.116-16.071 0.27-24.119 0.232-12.185-4.163-23.4-9.486-33.634-10.662-20.5-26.434-36.17-48.343-45.383-12.316-5.178-24.87-8.328-38.047-8.232-11.47 0.084-22.619 2.072-33.627 6.285-12.388 4.741-23.134 11.46-32.73 20.31-10.18 9.386-18.136 20.471-23.164 33.353-2.832 7.256-5.334 14.86-6.391 22.528-1.09 7.9-0.139 16.068-0.269 24.117-0.197 12.178 4.208 23.385 9.54 33.62 10.681 20.497 26.5 36.142 48.397 45.327 11.831 4.963 23.918 8.216 36.565 8.099 8.598-0.08 17.251-1.83 25.737-3.542 5.837-1.178 11.819-2.836 17.034-5.603 6.937-3.679 13.191-8.645 20.313-13.52z" clip-path="url(#a)" fill="#c00"/>

<path d="m184.71 76.673c4.05-1.53 7.777-2.836 12.838-4.61l-18.75 43.86h30.864v8.084h-24.31c-10.82 0-12.44 0.785-15.172 11.366-1.297 5.024-4.096 7.525-8.396 9.229-3.01 1.193-6.214 2.055-8.955 3.694-1.133 0.677-1.773 2.992-1.797 4.575-0.157 10.135-0.08 20.273-0.08 30.767h-6.833v-31.464l-45.314 19.26-1.095-1.13 19.623-46.178h-32.956v-8.12h25.309c11.241 0 11.497 0.104 15.596-10.006 1.49-3.676 3.267-5.847 7.125-6.931 3.893-1.094 7.55-3.03 11.667-4.744v-35.05h6.727v32.03c11.681-5.01 22.633-9.71 33.909-14.632m-63.742 61.96-7.042 16.678 44.179-19.124-24.493-26.465c-0.805 1.74-1.229 2.626-1.628 3.523-3.647 8.204-7.29 16.409-11.016 25.387zm31.639-110.49c0.878 6.101 1.292 12.118 1.733 18.515h-13.959v-18.6c3.903 0 7.832 0 12.226 0.085zm-96.656 93.754v-8.602h18.625v13.433h-18.29c-0.114-1.491-0.224-2.923-0.335-4.83zm165.13 3.759c-0.084-4.27-0.084-8.076-0.084-12.264h18.656v13.926c-6.218-0.403-12.353-0.8-18.572-1.662zm-80.002 68.713c4.428-0.874 8.772-1.283 13.517-1.73v18.93h-13.6c0-5.553 0-11.144 0.083-17.2z" fill="#c00"/>

<path d="m121.01 138.24c3.685-8.591 7.328-16.796 10.975-25 0.4-0.897 0.823-1.782 1.628-3.523l24.493 26.465-44.179 19.124c2.596-6.149 4.82-11.414 7.083-17.066z" fill="currentColor"/>

<rect width="633.05" height="244.25" ry=".788" fill="none" fill-opacity="0" stroke-width=".98169"/>
<rect x="324.93" y="6.779" width="304.1" height="234.86" ry=".989" fill="none" fill-opacity="0"/>

<g style="font-variation-settings:'wght' 800" aria-label="Engineer
Your
Experience" fill="currentColor">

<path d="m310.65 53.59v8.0312h-19.844v-8.0312zm-16.562-37.469v45.5h-9.9375v-45.5zm13.938 18.25v7.75h-17.219v-7.75zm2.625-18.25v8.0625h-19.844v-8.0625zm18.344 18.906v26.594h-9.5312v-33.812h8.9375zm-1.25 8.5312-2.3125 0.0625q-0.0625-3.8438 0.6875-6.875 0.78125-3.0312 2.25-5.1562 1.4688-2.1562 3.5312-3.2812t4.5938-1.125q1.9375 0 3.5625 0.6875 1.6562 0.6875 2.8438 2.2188 1.1875 1.5 1.8438 4t0.65625 6.1562v21.375h-9.5312v-21.438q0-2.0938-0.40625-3.2188-0.40625-1.1562-1.2188-1.5938-0.78125-0.46875-2.0312-0.46875-1.1562 0-2.0312 0.65625-0.84375 0.65625-1.4062 1.8438-0.5625 1.1562-0.8125 2.75-0.21875 1.5625-0.21875 3.4062zm45.625-15.75h8.625v33.656q0 4.6562-1.8438 7.625-1.8125 3-5.0625 4.4062-3.25 1.4375-7.625 1.4375-1.6875 0-3.6562-0.46875t-3.7812-1.3125q-1.7812-0.8125-2.9375-1.9062l3.3125-6.3438q1.0625 0.96875 2.875 1.7812 1.8125 0.84375 3.8125 0.84375 1.7812 0 2.9688-0.59375 1.1875-0.5625 1.7812-1.9062 0.625-1.3125 0.625-3.5625v-25.719zm-18.719 18.312v-2.6562q0-4.1562 0.78125-7.2188t2.2812-5.0625q1.5312-2.0312 3.6875-3 2.1562-1 4.8438-1 2.8438 0 4.6562 1.25 1.8438 1.2188 2.9062 3.4375t1.625 5.2188q0.59375 3 1 6.5v2.7188q-0.40625 3.2812-1.125 6.1875-0.71875 2.875-1.9062 5.0938-1.1875 2.1875-2.9375 3.4375-1.75 1.2188-4.2812 1.2188-2.6562 0-4.8125-1.0312-2.125-1.0312-3.625-3.0625t-2.3125-5.0312q-0.78125-3.0312-0.78125-7zm9.5312-2.6562v2.6562q0 2.2812 0.25 3.875 0.28125 1.5938 0.84375 2.5938 0.59375 1 1.4688 1.4688 0.90625 0.4375 2.0938 0.4375 1.8125 0 2.875-0.875 1.0625-0.90625 1.5312-2.5 0.5-1.5938 0.4375-3.75v-4.875q0.0312-1.8125-0.25-3.2188-0.28125-1.4375-0.875-2.4062t-1.5-1.4688-2.1562-0.5q-1.1562 0-2.0625 0.46875-0.875 0.46875-1.4688 1.5-0.59375 1-0.90625 2.625-0.28125 1.625-0.28125 3.9688zm38.156-15.656v33.812h-9.5312v-33.812zm-9.9688-8.75q0-2.125 1.4062-3.5 1.4375-1.4062 3.7812-1.4062t3.75 1.4062q1.4062 1.375 1.4062 3.5 0 2.1562-1.4062 3.5312t-3.75 1.375-3.7812-1.375q-1.4062-1.375-1.4062-3.5312zm26.594 15.969v26.594h-9.5312v-33.812h8.9375zm-1.25 8.5312-2.3125 0.0625q-0.0625-3.8438 0.6875-6.875 0.78125-3.0312 2.25-5.1562 1.4688-2.1562 3.5312-3.2812t4.5938-1.125q1.9375 0 3.5625 0.6875 1.6562 0.6875 2.8438 2.2188 1.1875 1.5 1.8438 4t0.65625 6.1562v21.375h-9.5312v-21.438q0-2.0938-0.40625-3.2188-0.40625-1.1562-1.2188-1.5938-0.78125-0.46875-2.0312-0.46875-1.1562 0-2.0312 0.65625-0.84375 0.65625-1.4062 1.8438-0.5625 1.1562-0.8125 2.75-0.21875 1.5625-0.21875 3.4062zm41.938 18.688q-3.5312 0-6.2812-1.0312t-4.625-3q-1.875-2-2.8438-4.8438-0.96875-2.875-0.96875-6.5312v-3.1875q0-4.0938 0.875-7.1562 0.90625-3.0938 2.625-5.1562t4.3125-3.0938q2.5938-1.0625 5.9688-1.0625 3.1562 0 5.5938 1t4.0938 3.0312q1.6562 2 2.5 5.0625 0.875 3.0312 0.875 7.0938v4.4688h-23.062v-6.4062h13.75v-0.9375q0-2.0625-0.40625-3.2812t-1.25-1.75q-0.84375-0.5625-2.1562-0.5625t-2.1562 0.5q-0.8125 0.46875-1.25 1.5t-0.625 2.7188q-0.15625 1.6875-0.15625 4.0312v3.1875q0 2.2812 0.375 3.7812 0.375 1.4688 1.125 2.3438 0.75 0.84375 1.8125 1.2188 1.0938 0.34375 2.5312 0.34375 2.0938 0 3.9062-0.71875 1.8438-0.75 3.125-2.1875l3.8438 5.8438q-0.90625 1.125-2.5312 2.25-1.5938 1.125-3.875 1.8438-2.25 0.6875-5.125 0.6875zm34.719 0q-3.5312 0-6.2812-1.0312t-4.625-3q-1.875-2-2.8438-4.8438-0.96875-2.875-0.96875-6.5312v-3.1875q0-4.0938 0.875-7.1562 0.90625-3.0938 2.625-5.1562t4.3125-3.0938q2.5938-1.0625 5.9688-1.0625 3.1562 0 5.5938 1t4.0938 3.0312q1.6562 2 2.5 5.0625 0.875 3.0312 0.875 7.0938v4.4688h-23.062v-6.4062h13.75v-0.9375q0-2.0625-0.40625-3.2812t-1.25-1.75q-0.84375-0.5625-2.1562-0.5625t-2.1562 0.5q-0.8125 0.46875-1.25 1.5t-0.625 2.7188q-0.15625 1.6875-0.15625 4.0312v3.1875q0 2.2812 0.375 3.7812 0.375 1.4688 1.125 2.3438 0.75 0.84375 1.8125 1.2188 1.0938 0.34375 2.5312 0.34375 2.0938 0 3.9062-0.71875 1.8438-0.75 3.125-2.1875l3.8438 5.8438q-0.90625 1.125-2.5312 2.25-1.5938 1.125-3.875 1.8438-2.25 0.6875-5.125 0.6875zm30.25-26.469v25.844h-9.5v-33.812h8.9062zm7.9062-8.2188-0.0937 9.25q-0.59375-0.09375-1.5-0.15625-0.90625-0.09375-1.5312-0.09375-1.4375 0-2.4375 0.4375t-1.6562 1.3125q-0.65625 0.84375-0.96875 2.125t-0.3125 2.9375l-1.6875-0.9375q0-3.375 0.5-6.1562 0.53125-2.7812 1.5312-4.8125 1.0312-2.0312 2.4688-3.1562t3.2188-1.125q0.625 0 1.3125 0.09375 0.71875 0.09375 1.1562 0.28125z"/><path d="m291.9 96.121 6.375 20.125 6.375-20.125h10.719l-12.062 29.063v16.438h-10.031v-16.438l-12.062-29.063zm28.75 29.938v-2.6562q0-4 0.96875-7.0312 1-3.0312 2.8125-5.0625t4.3438-3.0625q2.5625-1.0625 5.6875-1.0625 3.1875 0 5.7188 1.0625 2.5625 1.0312 4.375 3.0625t2.7812 5.0625q1 3.0312 1 7.0312v2.6562q0 3.9688-1 7-0.96875 3.0312-2.7812 5.0938-1.8125 2.0312-4.375 3.0625-2.5312 1.0312-5.6562 1.0312-3.1562 0-5.7188-1.0312-2.5312-1.0312-4.375-3.0625-1.8125-2.0625-2.8125-5.0938-0.96875-3.0312-0.96875-7zm9.5312-2.6562v2.6562q0 2.25 0.28125 3.875 0.3125 1.625 0.875 2.6562t1.3438 1.5q0.8125 0.46875 1.8438 0.46875 1.1875 0 2-0.46875 0.84375-0.46875 1.3438-1.5t0.71875-2.6562q0.25-1.625 0.25-3.875v-2.6562q0-2.2188-0.3125-3.8125-0.28125-1.625-0.84375-2.6562-0.53125-1.0312-1.375-1.5312-0.8125-0.5-1.8438-0.5-1 0-1.8125 0.5-0.78125 0.5-1.3438 1.5312-0.53125 1.0312-0.84375 2.6562-0.28125 1.5938-0.28125 3.8125zm43.75 10.062v-25.656h9.5312v33.812h-8.9062zm1-6.9375 2.4688-0.0625q0 3.4062-0.6875 6.3125-0.65625 2.875-1.9688 5t-3.25 3.3125q-1.9375 1.1562-4.5 1.1562-2.0938 0-3.8438-0.6875-1.7188-0.71875-3-2.2188-1.25-1.5312-1.9375-3.9062-0.6875-2.4062-0.6875-5.75v-21.875h9.5v21.938q0 1.25 0.1875 2.1562 0.21875 0.875 0.59375 1.4688 0.40625 0.59375 0.96875 0.875 0.5625 0.25 1.2812 0.25 1.875 0 2.9375-1.0312 1.0625-1.0625 1.5-2.8438 0.4375-1.8125 0.4375-4.0938zm28.312-10.75v25.844h-9.5v-33.812h8.9062zm7.9062-8.2188-0.0937 9.25q-0.59375-0.0937-1.5-0.15625-0.90625-0.0937-1.5312-0.0937-1.4375 0-2.4375 0.4375t-1.6562 1.3125q-0.65625 0.84375-0.96875 2.125t-0.3125 2.9375l-1.6875-0.9375q0-3.375 0.5-6.1562 0.53125-2.7812 1.5312-4.8125 1.0312-2.0312 2.4688-3.1562t3.2188-1.125q0.625 0 1.3125 0.0937 0.71875 0.0937 1.1562 0.28125z"/><path d="m310.65 213.59v8.0312h-19.844v-8.0312zm-16.562-37.469v45.5h-9.9375v-45.5zm13.938 18.25v7.75h-17.219v-7.75zm2.625-18.25v8.0625h-19.844v-8.0625zm17.312 11.688 3.5938 8.9062 3.375-8.9062h9.9375l-7.8438 16.5 8.1875 17.312h-10l-3.875-9.375-3.75 9.375h-10.031l8-17.25-7.625-16.562zm34.031 6.5v40.312h-9.4688v-46.812h8.8125zm17.219 9.0312v2.6562q0 3.9688-0.6875 7t-2.0625 5.125q-1.375 2.0625-3.4375 3.0938t-4.7812 1.0312q-2.5 0-4.25-1.25t-2.9375-3.4375q-1.1562-2.2188-1.875-5.0938-0.6875-2.9062-1.0938-6.1562v-2.875q0.40625-3.4688 1.0625-6.4375 0.6875-2.9688 1.875-5.1562 1.1875-2.2188 2.9375-3.4375t4.25-1.2188q2.75 0 4.8125 0.96875t3.4375 2.9688q1.375 1.9688 2.0625 5t0.6875 7.2188zm-9.5 2.6562v-2.6562q0-2.3438-0.21875-3.9688-0.1875-1.625-0.6875-2.5938-0.46875-1-1.25-1.4375t-1.9688-0.4375q-1.2188 0-2.0938 0.5-0.875 0.46875-1.4062 1.4062t-0.78125 2.3438q-0.21875 1.375-0.1875 3.2188v5.0312q-0.0312 2.0938 0.34375 3.7188 0.40625 1.5938 1.4062 2.5312 1 0.90625 2.7812 0.90625 1.1875 0 1.9688-0.46875 0.8125-0.5 1.25-1.5312 0.46875-1.0625 0.65625-2.6875t0.1875-3.875zm32.781 16.25q-3.5312 0-6.2812-1.0312t-4.625-3q-1.875-2-2.8438-4.8438-0.96875-2.875-0.96875-6.5312v-3.1875q0-4.0938 0.875-7.1562 0.90625-3.0938 2.625-5.1562t4.3125-3.0938q2.5938-1.0625 5.9688-1.0625 3.1562 0 5.5938 1t4.0938 3.0312q1.6562 2 2.5 5.0625 0.875 3.0312 0.875 7.0938v4.4688h-23.062v-6.4062h13.75v-0.9375q0-2.0625-0.40625-3.2812t-1.25-1.75q-0.84375-0.5625-2.1562-0.5625t-2.1562 0.5q-0.8125 0.46875-1.25 1.5t-0.625 2.7188q-0.15625 1.6875-0.15625 4.0312v3.1875q0 2.2812 0.375 3.7812 0.375 1.4688 1.125 2.3438 0.75 0.84375 1.8125 1.2188 1.0938 0.34375 2.5312 0.34375 2.0938 0 3.9062-0.71875 1.8438-0.75 3.125-2.1875l3.8438 5.8438q-0.90625 1.125-2.5312 2.25-1.5938 1.125-3.875 1.8438-2.25 0.6875-5.125 0.6875zm30.25-26.469v25.844h-9.5v-33.812h8.9062zm7.9062-8.2188-0.0937 9.25q-0.59375-0.0937-1.5-0.15625-0.90625-0.0937-1.5312-0.0937-1.4375 0-2.4375 0.4375t-1.6562 1.3125q-0.65625 0.84375-0.96875 2.125t-0.3125 2.9375l-1.6875-0.9375q0-3.375 0.5-6.1562 0.53125-2.7812 1.5312-4.8125 1.0312-2.0312 2.4688-3.1562t3.2188-1.125q0.625 0 1.3125 0.0937 0.71875 0.0937 1.1562 0.28125zm16.375 0.25v33.812h-9.5312v-33.812zm-9.9688-8.75q0-2.125 1.4062-3.5 1.4375-1.4062 3.7812-1.4062t3.75 1.4062q1.4062 1.375 1.4062 3.5 0 2.1562-1.4062 3.5312t-3.75 1.375-3.7812-1.375q-1.4062-1.375-1.4062-3.5312zm31.281 43.188q-3.5312 0-6.2812-1.0312t-4.625-3q-1.875-2-2.8438-4.8438-0.96875-2.875-0.96875-6.5312v-3.1875q0-4.0938 0.875-7.1562 0.90625-3.0938 2.625-5.1562t4.3125-3.0938q2.5938-1.0625 5.9688-1.0625 3.1562 0 5.5938 1t4.0938 3.0312q1.6562 2 2.5 5.0625 0.875 3.0312 0.875 7.0938v4.4688h-23.062v-6.4062h13.75v-0.9375q0-2.0625-0.40625-3.2812t-1.25-1.75q-0.84375-0.5625-2.1562-0.5625t-2.1562 0.5q-0.8125 0.46875-1.25 1.5t-0.625 2.7188q-0.15625 1.6875-0.15625 4.0312v3.1875q0 2.2812 0.375 3.7812 0.375 1.4688 1.125 2.3438 0.75 0.84375 1.8125 1.2188 1.0938 0.34375 2.5312 0.34375 2.0938 0 3.9062-0.71875 1.8438-0.75 3.125-2.1875l3.8438 5.8438q-0.90625 1.125-2.5312 2.25-1.5938 1.125-3.875 1.8438-2.25 0.6875-5.125 0.6875zm30.031-27.219v26.594h-9.5312v-33.812h8.9375zm-1.25 8.5312-2.3125 0.0625q-0.0625-3.8438 0.6875-6.875 0.78125-3.0312 2.25-5.1562 1.4688-2.1562 3.5312-3.2812t4.5938-1.125q1.9375 0 3.5625 0.6875 1.6562 0.6875 2.8438 2.2188 1.1875 1.5 1.8438 4t0.65625 6.1562v21.375h-9.5312v-21.438q0-2.0938-0.40625-3.2188-0.40625-1.1562-1.2188-1.5938-0.78125-0.46875-2.0312-0.46875-1.1562 0-2.0312 0.65625-0.84375 0.65625-1.4062 1.8438-0.5625 1.1562-0.8125 2.75-0.21875 1.5625-0.21875 3.4062zm40.281 11q1.125 0 1.875-0.4375 0.78125-0.4375 1.1562-1.5 0.40625-1.0625 0.375-2.875h8.9375q0.0312 4-1.5938 6.8125-1.625 2.7812-4.375 4.25-2.7188 1.4375-6.1875 1.4375-3.4062 0-5.9688-1.0625-2.5312-1.0625-4.2188-3.0938-1.6875-2.0625-2.5312-5.0625-0.8125-3-0.8125-6.9062v-2.8125q0-3.875 0.8125-6.875 0.84375-3.0312 2.5312-5.0625 1.6875-2.0625 4.2188-3.125t5.9375-1.0625q3.6562 0 6.375 1.5 2.75 1.4688 4.2812 4.4375 1.5625 2.9688 1.5312 7.4688h-8.9375q0.0312-1.9375-0.3125-3.1875-0.34375-1.25-1.125-1.875-0.75-0.625-2.0312-0.625-1.3125 0-2.0938 0.53125-0.75 0.5-1.125 1.5625-0.34375 1.0312-0.46875 2.625-0.0937 1.5625-0.0937 3.6875v2.8125q0 2.1875 0.0937 3.7812 0.125 1.5938 0.5 2.625t1.125 1.5312q0.78125 0.5 2.125 0.5zm34.969 7.6875q-3.5312 0-6.2812-1.0312t-4.625-3q-1.875-2-2.8438-4.8438-0.96875-2.875-0.96875-6.5312v-3.1875q0-4.0938 0.875-7.1562 0.90625-3.0938 2.625-5.1562t4.3125-3.0938q2.5938-1.0625 5.9688-1.0625 3.1562 0 5.5938 1t4.0938 3.0312q1.6562 2 2.5 5.0625 0.875 3.0312 0.875 7.0938v4.4688h-23.062v-6.4062h13.75v-0.9375q0-2.0625-0.40625-3.2812t-1.25-1.75q-0.84375-0.5625-2.1562-0.5625t-2.1562 0.5q-0.8125 0.46875-1.25 1.5t-0.625 2.7188q-0.15625 1.6875-0.15625 4.0312v3.1875q0 2.2812 0.375 3.7812 0.375 1.4688 1.125 2.3438 0.75 0.84375 1.8125 1.2188 1.0938 0.34375 2.5312 0.34375 2.0938 0 3.9062-0.71875 1.8438-0.75 3.125-2.1875l3.8438 5.8438q-0.90625 1.125-2.5312 2.25-1.5938 1.125-3.875 1.8438-2.25 0.6875-5.125 0.6875z"/></g></svg>
