<?xml version="1.0" encoding="UTF-8" standalone="no"?>
<svg
   id="svg"
   version="1.1"
   width="383.18222"
   height="130.91508"
   viewBox="0 0 383.18222 130.91509"
   sodipodi:docname="go-fish-logo-min.svg"
   inkscape:version="1.4 (86a8ad7, 2024-10-11)"
   xmlns:inkscape="http://www.inkscape.org/namespaces/inkscape"
   xmlns:sodipodi="http://sodipodi.sourceforge.net/DTD/sodipodi-0.dtd"
   xmlns="http://www.w3.org/2000/svg"
   xmlns:svg="http://www.w3.org/2000/svg">
  <defs
     id="defs1">
    <clipPath
       clipPathUnits="userSpaceOnUse"
       id="clipPath2">
      <rect
         style="fill:none;stroke-width:0.969265"
         id="rect2"
         width="398.3512"
         height="235.4493"
         x="1.3190436"
         y="75.185493" />
    </clipPath>
    <clipPath
       clipPathUnits="userSpaceOnUse"
       id="clipPath9">
      <rect
         style="fill:none"
         id="rect10"
         width="383.18222"
         height="130.91508"
         x="12.530916"
         y="130.25557"
         ry="0.98928279" />
    </clipPath>
  </defs>
  <sodipodi:namedview
     id="namedview1"
     pagecolor="#ffffff"
     bordercolor="#000000"
     borderopacity="0.25"
     inkscape:showpageshadow="2"
     inkscape:pageopacity="0.0"
     inkscape:pagecheckerboard="0"
     inkscape:deskcolor="#d1d1d1"
     inkscape:zoom="3.0325"
     inkscape:cx="237.59275"
     inkscape:cy="150.86562"
     inkscape:window-width="2560"
     inkscape:window-height="1494"
     inkscape:window-x="-11"
     inkscape:window-y="-11"
     inkscape:window-maximized="1"
     inkscape:current-layer="svg" />
  <g
     id="svgg"
     clip-path="url(#clipPath2)"
     transform="translate(-12.530916,-130.25557)">
    <path
       id="path0"
       d="M 299.819,155.398 C 289.523,166.729 280.948,176 280.763,176 c -0.184,0 -1.106,-0.422 -2.049,-0.939 -4.032,-2.208 -31.07,-15.861 -31.411,-15.861 -1.247,0 -1.236,1.976 0.015,2.726 2.784,1.67 33.92,17.326 34.213,17.204 0.172,-0.071 3.179,-3.28 6.682,-7.13 16.673,-18.327 17.703,-19.417 18.031,-19.09 0.107,0.108 -0.206,0.892 -0.696,1.743 -11.678,20.26 -14.577,30.243 -10.983,37.816 0.998,2.105 1.99,2.898 5.935,4.75 0.605,0.284 1.1,0.661 1.1,0.838 0,0.177 -0.495,0.583 -1.1,0.901 -7.85,4.126 -8.684,14.445 -2.277,28.157 2.907,6.219 2.936,6.238 -6.587,-4.303 -3.87,-4.284 -7.775,-8.564 -8.679,-9.512 -1.875,-1.967 -1.351,-2.019 -7.157,0.706 -1.98,0.929 -4.905,2.298 -6.5,3.042 -1.595,0.743 -4.25,1.982 -5.9,2.752 -1.65,0.77 -4.395,2.05 -6.1,2.844 -1.705,0.794 -4.63,2.165 -6.5,3.045 -1.87,0.881 -3.985,1.854 -4.7,2.162 -1.488,0.641 -1.575,0.942 -0.6,2.069 0.699,0.808 0.704,0.808 3.3,-0.416 2.505,-1.18 5.816,-2.717 11.1,-5.152 1.375,-0.634 3.715,-1.713 5.2,-2.398 1.485,-0.686 3.69,-1.701 4.9,-2.256 1.21,-0.555 3.882,-1.794 5.937,-2.754 4.544,-2.121 4.845,-2.132 6.474,-0.244 0.711,0.825 2.218,2.49 3.349,3.7 1.13,1.21 5.375,5.89 9.433,10.4 4.059,4.51 8.127,9.01 9.04,10 0.914,0.99 4.414,4.86 7.779,8.6 6.822,7.583 6.541,7.348 7.611,6.379 1.072,-0.97 1.045,-1.049 -1.33,-3.874 -25.515,-30.333 -28.444,-49.591 -8.169,-53.704 0.988,-0.201 1.11,-0.385 1,-1.515 L 311,195.4 l -4.6,-0.238 c -8.13,-0.421 -10.413,-2.408 -10.386,-9.042 0.028,-6.927 2.424,-13.433 9.915,-26.92 1.927,-3.471 8.093,-13.132 11.132,-17.445 3.292,-4.672 3.601,-5.528 2.309,-6.399 -0.789,-0.533 -1.756,0.459 -19.551,20.042 M 195.6,138.369 c -16.585,2.4 -31.332,17.13 -36.473,36.431 -2.049,7.695 -2.421,10.676 -2.445,19.6 -0.02,7.628 0.157,9.704 1.366,16 6.968,36.285 41.681,52.728 60.752,28.777 5.401,-6.783 6.394,-7.524 8.921,-6.665 1.824,0.62 2.632,2.464 4.51,10.288 0.343,1.43 0.777,3.05 0.964,3.6 0.187,0.55 0.45,1.504 0.585,2.12 0.235,1.074 0.333,1.116 2.333,1 l 2.087,-0.12 0.2,-24.286 c 0.236,-28.715 -0.517,-25.623 6.313,-25.914 l 4.687,-0.2 0.131,-1.148 c 0.072,-0.632 0.024,-1.577 -0.107,-2.1 l -0.239,-0.952 h -24.814 -24.813 l 0.121,2.1 0.121,2.1 7.2,0.099 c 10.388,0.143 9.795,-0.698 9.797,13.901 0.001,14.23 -0.656,18.357 -3.858,24.241 -5.081,9.335 -18.528,11.748 -24.931,4.474 -5.774,-6.56 -6.4,-11.192 -6.405,-47.345 -0.004,-32.801 0.227,-35.482 3.67,-42.65 5.512,-11.475 21.322,-12.765 32.127,-2.622 6.549,6.148 13.913,20.379 16.397,31.686 0.289,1.319 1.251,1.776 3.255,1.547 L 238.2,182.2 v -21.4 -21.4 l -2.086,-0.12 -2.085,-0.121 -1.779,3.542 c -2.972,5.918 -3.845,6.063 -10.896,1.82 -9.65,-5.807 -16.624,-7.473 -25.754,-6.152 m -43.8,11.819 c -22.381,5.754 -40.581,17.417 -54.951,35.212 -10.791,13.363 -11.212,15.015 -5.602,22 15.507,19.311 40.28,32.131 64.879,33.575 l 4.327,0.254 -0.127,-1.315 c -0.118,-1.226 -0.233,-1.32 -1.726,-1.411 -2.832,-0.171 -9.158,-0.949 -10.6,-1.303 -0.77,-0.189 -2.48,-0.551 -3.8,-0.804 -5.869,-1.126 -13.646,-3.583 -18.55,-5.861 -1.678,-0.779 -3.417,-1.559 -3.865,-1.733 -7.131,-2.776 -20.486,-13.64 -28.408,-23.109 l -4.106,-4.908 3.235,-4.871 c 10.973,-16.524 23.394,-27.565 40.274,-35.801 3.399,-1.658 6.639,-3.156 7.2,-3.328 0.561,-0.173 2.52,-0.865 4.352,-1.539 1.833,-0.674 4.533,-1.507 6,-1.853 1.468,-0.345 3.478,-0.819 4.468,-1.052 4.147,-0.977 4.455,-1.139 4.323,-2.28 -0.172,-1.482 -1.125,-1.466 -7.323,0.127 m -35.006,31.753 c -5.713,3.035 -3.397,11.659 3.131,11.659 4.811,0 7.882,-6.613 4.661,-10.037 -2.225,-2.366 -5.219,-2.99 -7.792,-1.622 m 5.706,2.864 c 2.485,2.728 0.796,6.357 -2.971,6.382 -2.364,0.016 -3.534,-1.227 -3.52,-3.741 0.021,-3.866 3.927,-5.455 6.491,-2.641"
       stroke="none"
       fill="#f2f2f2"
       fill-rule="evenodd" />
    <path
       id="path1"
       d="M 0,200 V 400 H 200 400 V 200 0 H 200 0 v 200 m 321.057,-63.795 c 0.107,0.278 -1.707,3.298 -4.031,6.711 -23.975,35.203 -26.987,53.686 -8.424,51.699 2.544,-0.273 2.602,-0.258 2.996,0.779 0.736,1.936 0.514,2.966 -0.698,3.234 -20.129,4.445 -17.704,22.186 7.103,51.972 3.546,4.257 3.471,4.07 2.166,5.433 -1.644,1.716 -1.244,2.046 -12.041,-9.933 -11.267,-12.5 -21.449,-23.77 -25.13,-27.814 l -2.47,-2.714 -16.928,7.814 c -9.311,4.298 -17.269,7.814 -17.685,7.814 -0.615,0 -1.915,-1.991 -1.915,-2.935 0,-0.36 36.317,-17.065 37.099,-17.065 0.594,0 3.21,2.606 8.774,8.74 4.36,4.807 7.99,8.688 8.068,8.625 0.078,-0.062 -0.346,-1.16 -0.94,-2.439 -5.518,-11.866 -4.926,-21.637 1.607,-26.532 2.163,-1.621 2.174,-1.695 0.346,-2.356 -9.086,-3.286 -8.636,-15.062 1.316,-34.438 3.02,-5.881 3.24,-6.447 2.012,-5.2 -2.659,2.701 -19.128,20.884 -19.599,21.638 -0.722,1.157 -1.069,1.04 -8.845,-2.985 -3.981,-2.061 -11.796,-6.047 -17.366,-8.857 -11.785,-5.945 -11.482,-5.728 -10.584,-7.611 0.866,-1.818 1.08,-1.785 6.274,0.959 16.663,8.802 28.689,14.576 29.204,14.023 0.291,-0.312 7.956,-8.757 17.033,-18.767 9.077,-10.01 17.293,-19.066 18.257,-20.124 l 1.753,-1.924 1.227,0.874 c 0.675,0.48 1.315,1.101 1.421,1.379 m -111.18,2.172 c 3.336,0.943 7.705,3.029 12.514,5.976 5.892,3.61 6.597,3.454 9.302,-2.06 l 1.911,-3.893 h 2.318 c 3.526,0 3.278,-1.698 3.278,22.472 v 21.513 l -0.932,0.234 c -0.513,0.128 -1.722,0.177 -2.688,0.107 L 233.824,182.6 231.59,176 c -7.671,-22.655 -17.195,-32.976 -30.39,-32.934 -9.609,0.03 -14.925,4.728 -17.711,15.65 -1.4,5.488 -1.391,65.776 0.011,71.664 3.618,15.202 15.998,20.088 25.894,10.22 5.508,-5.493 6.366,-8.996 6.389,-26.084 0.021,-16.423 1.07,-14.672 -8.893,-14.849 -8.171,-0.145 -8.074,-0.114 -8.084,-2.593 -0.013,-3.351 -2.315,-3.074 25.559,-3.074 27.876,0 25.76,-0.271 25.557,3.268 l -0.122,2.132 -4.6,0.247 c -6.754,0.364 -6,-2.847 -6,25.549 0,27.562 0.282,25.204 -3.012,25.204 -2.947,0 -2.45,0.853 -4.78,-8.2 -2.986,-11.596 -4.685,-12.28 -10.685,-4.298 -8.676,11.544 -18.863,15.315 -32.123,11.892 -34.536,-8.914 -44.612,-70.998 -16.2,-99.816 10.399,-10.548 25.102,-15.099 37.477,-11.601 m -50.297,10.962 c 0.727,2.203 0.453,2.38 -6.215,4.025 -24.94,6.151 -45.447,20.611 -59.893,42.233 -3.725,5.575 -3.742,4.692 0.174,9.455 15.555,18.916 36.975,30.099 62.343,32.545 4.783,0.462 5.194,0.656 5.205,2.454 0.011,1.878 -0.632,2.042 -6.037,1.545 -25.966,-2.389 -47.823,-13.817 -64.222,-33.579 L 86.8,203.034 v -2.292 c 0,-2.197 0.133,-2.493 3.21,-7.132 15.037,-22.676 35.419,-37.248 61.59,-44.033 7.378,-1.913 7.426,-1.915 7.98,-0.238 m -36.88,31.909 c 6.591,3.191 4.441,12.752 -2.867,12.752 -4.446,0 -6.633,-2.141 -6.633,-6.493 0,-5.505 4.683,-8.59 9.5,-6.259 m -5.131,3.921 c -3.037,3.037 0.996,7.515 4.249,4.717 2.196,-1.889 0.79,-5.886 -2.071,-5.886 -0.581,0 -1.504,0.495 -2.178,1.169"
       stroke="none"
       fill="#040404"
       fill-rule="evenodd"
       clip-path="url(#clipPath9)" />
    <path
       id="path2"
       d="m 316.422,136.094 c -1.082,1.152 -1.9,2.161 -1.819,2.242 0.081,0.082 0.744,-0.534 1.472,-1.367 0.729,-0.833 1.674,-1.842 2.1,-2.242 0.427,-0.4 0.649,-0.727 0.495,-0.727 -0.155,0 -1.166,0.942 -2.248,2.094 m 3.489,-0.671 c 0.489,0.342 0.903,0.927 0.921,1.3 0.021,0.452 0.101,0.503 0.241,0.154 0.23,-0.575 -0.944,-2.077 -1.624,-2.077 -0.235,0 -0.027,0.28 0.462,0.623 m -120.011,2.07 c 0.935,0.084 2.465,0.084 3.4,0 0.935,-0.084 0.17,-0.153 -1.7,-0.153 -1.87,0 -2.635,0.069 -1.7,0.153 m 6.7,0.507 c 1.692,0.431 3.144,0.431 1.8,0 -0.55,-0.176 -1.45,-0.317 -2,-0.313 -0.898,0.007 -0.878,0.039 0.2,0.313 m 112.692,1.029 c -0.495,0.754 -0.82,1.371 -0.723,1.371 0.278,0 1.935,-2.429 1.77,-2.594 -0.082,-0.082 -0.553,0.468 -1.047,1.223 m -86.1,0.271 c -0.401,0.827 -0.389,0.842 0.146,0.179 0.464,-0.577 1.051,-0.697 2.922,-0.6 L 238.6,139 v 21.6 21.6 h -2.463 c -1.354,0 -2.379,0.135 -2.276,0.3 0.223,0.359 3.807,0.402 4.706,0.057 0.831,-0.319 0.98,-42.85 0.153,-43.677 -0.92,-0.92 -5.03,-0.607 -5.528,0.42 m 77.086,3.6 c -2.093,2.255 -3.732,4.175 -3.642,4.267 0.09,0.091 0.215,0.091 0.277,0 0.063,-0.092 1.792,-2.012 3.844,-4.267 2.052,-2.255 3.64,-4.1 3.529,-4.1 -0.11,0 -1.914,1.845 -4.008,4.1 m -78.213,-1.483 c -0.67,1.471 -0.542,1.785 0.182,0.448 0.339,-0.625 0.541,-1.211 0.449,-1.302 -0.091,-0.092 -0.375,0.293 -0.631,0.854 m -48.376,0.048 c -0.721,0.355 -1.246,0.712 -1.165,0.792 0.171,0.171 2.676,-1.033 2.676,-1.286 0,-0.242 -0.053,-0.225 -1.511,0.494 m -3.994,2.346 c -1.152,0.775 -2.095,1.497 -2.095,1.604 0,0.106 0.99,-0.464 2.2,-1.268 1.922,-1.276 2.487,-1.747 2.095,-1.747 -0.058,0 -1.048,0.635 -2.2,1.411 m 18.21,-0.728 c 0.497,0.096 1.217,0.092 1.6,-0.008 0.382,-0.1 -0.025,-0.179 -0.905,-0.174 -0.88,0.004 -1.193,0.086 -0.695,0.182 m -3.105,0.535 c -0.438,0.297 -0.276,0.334 0.6,0.138 1.471,-0.329 1.79,-0.558 0.767,-0.55 -0.422,0.003 -1.037,0.189 -1.367,0.412 m 10.833,-0.274 c 0.092,0.079 0.707,0.264 1.367,0.412 0.876,0.196 1.038,0.159 0.6,-0.138 -0.54,-0.365 -2.368,-0.62 -1.967,-0.274 m 15.567,0.597 c 3.703,3.095 7.088,3.892 8.79,2.07 1.062,-1.137 1.932,-3.057 1.173,-2.588 -0.2,0.123 -0.363,0.457 -0.363,0.742 0,0.285 -0.441,0.994 -0.981,1.577 -1.583,1.708 -3.006,1.386 -8.419,-1.907 l -1.2,-0.73 1,0.836 m -29.2,0.903 c -0.55,0.454 -0.774,0.709 -0.499,0.566 2.305,-1.191 2.625,-1.404 2.099,-1.399 -0.33,0.004 -1.05,0.378 -1.6,0.833 m -3.2,2.556 c -0.972,0.99 -1.677,1.8 -1.567,1.8 0.11,0 0.995,-0.81 1.967,-1.8 0.972,-0.99 1.677,-1.8 1.567,-1.8 -0.11,0 -0.995,0.81 -1.967,1.8 m 23.233,-1.684 c 0.092,0.064 0.887,0.617 1.767,1.229 l 1.6,1.113 -1.385,-1.229 c -0.762,-0.676 -1.557,-1.229 -1.767,-1.229 -0.21,0 -0.306,0.052 -0.215,0.116 M 172.6,149.6 c -1.306,1.32 -2.201,2.38 -1.987,2.355 0.382,-0.045 4.878,-4.755 4.538,-4.755 -0.097,0 -1.245,1.08 -2.551,2.4 m 129.678,2.1 c -2.093,2.255 -3.732,4.175 -3.642,4.267 0.09,0.091 0.215,0.091 0.277,0 0.063,-0.092 1.792,-2.012 3.844,-4.267 2.052,-2.255 3.64,-4.1 3.529,-4.1 -0.11,0 -1.914,1.845 -4.008,4.1 M 156.4,148.4 c -1.344,0.431 0.108,0.431 1.8,0 1.078,-0.274 1.098,-0.306 0.2,-0.313 -0.55,-0.004 -1.45,0.137 -2,0.313 m 61.2,1.8 c 1.195,1.21 2.263,2.2 2.373,2.2 0.11,0 -0.778,-0.99 -1.973,-2.2 -1.195,-1.21 -2.263,-2.2 -2.373,-2.2 -0.11,0 0.778,0.99 1.973,2.2 m -64.4,-1 c -0.804,0.257 -0.843,0.323 -0.2,0.332 0.44,0.006 1.16,-0.143 1.6,-0.332 1.019,-0.438 -0.032,-0.438 -1.4,0 m 6.208,0.538 c 0.125,0.626 0.017,1.391 -0.24,1.7 -0.304,0.366 -0.319,0.562 -0.044,0.562 0.664,0 0.934,-1.389 0.475,-2.442 -0.397,-0.91 -0.406,-0.901 -0.191,0.18 M 150,150 c -0.804,0.257 -0.843,0.323 -0.2,0.332 0.44,0.006 1.16,-0.143 1.6,-0.332 1.019,-0.438 -0.032,-0.438 -1.4,0 m -3.2,0.8 c -0.824,0.264 -0.859,0.326 -0.2,0.354 0.44,0.019 1.07,-0.141 1.4,-0.354 0.701,-0.453 0.214,-0.453 -1.2,0 m 163.853,1.191 c -1,1.511 -1.438,2.605 -0.717,1.789 0.556,-0.628 2.143,-3.38 1.95,-3.38 -0.099,0 -0.654,0.716 -1.233,1.591 M 155.8,152.4 c -1.019,0.438 0.032,0.438 1.4,0 0.804,-0.257 0.843,-0.323 0.2,-0.332 -0.44,-0.006 -1.16,0.143 -1.6,0.332 m 13.54,0.9 c -1.123,1.264 -3.847,5.1 -3.621,5.1 0.103,0 1.19,-1.35 2.416,-3 2.259,-3.039 2.659,-3.737 1.205,-2.1 m 15.256,0.572 c -0.338,0.809 -0.563,1.628 -0.499,1.819 0.064,0.191 0.419,-0.471 0.79,-1.472 0.806,-2.174 0.583,-2.44 -0.291,-0.347 M 152.6,153.2 c -1.019,0.438 0.032,0.438 1.4,0 0.804,-0.257 0.843,-0.323 0.2,-0.332 -0.44,-0.006 -1.16,0.143 -1.6,0.332 m 68.427,1 c 1.373,1.8 1.641,1.803 0.477,0.005 -0.497,-0.767 -1.048,-1.397 -1.224,-1.4 -0.177,-0.003 0.16,0.625 0.747,1.395 M 149.4,154 c -1.019,0.438 0.032,0.438 1.4,0 0.804,-0.257 0.843,-0.323 0.2,-0.332 -0.44,-0.006 -1.16,0.143 -1.6,0.332 m -4,1.2 c -2.116,0.98 -1.686,0.986 1.015,0.014 1.202,-0.432 1.825,-0.778 1.385,-0.77 -0.44,0.008 -1.52,0.349 -2.4,0.756 m 157.176,1.704 c -1.087,1.148 -1.391,1.56 -0.676,0.916 1.339,-1.205 1.608,-1.142 0.886,0.206 -0.882,1.648 0.002,0.673 0.986,-1.087 1.398,-2.502 1.148,-2.509 -1.196,-0.035 m 4.193,1.596 c -0.917,1.595 -1.929,3.321 -2.25,3.835 -0.32,0.514 -0.512,1.005 -0.426,1.091 0.087,0.087 0.943,-1.234 1.903,-2.934 0.96,-1.701 2.004,-3.497 2.321,-3.992 0.316,-0.495 0.472,-0.9 0.347,-0.9 -0.126,0 -0.979,1.305 -1.895,2.9 M 141,156.829 c -0.88,0.423 -1.162,0.657 -0.626,0.52 1.465,-0.376 3.512,-1.32 2.826,-1.304 -0.33,0.008 -1.32,0.361 -2.2,0.784 m 42.4,0.771 c -0.152,0.691 -0.193,1.341 -0.091,1.442 0.102,0.102 0.3,-0.389 0.441,-1.092 0.333,-1.667 0.01,-1.99 -0.35,-0.35 m 110.878,2.9 c -2.093,2.255 -3.732,4.175 -3.642,4.267 0.09,0.091 0.215,0.091 0.277,0 0.063,-0.092 1.792,-2.012 3.844,-4.267 2.052,-2.255 3.64,-4.1 3.529,-4.1 -0.11,0 -1.914,1.845 -4.008,4.1 m -48.412,-0.6 c -0.638,1.4 -0.249,1.12 0.784,-0.565 0.425,-0.693 0.624,-0.65 3.5,0.762 1.678,0.823 3.05,1.41 3.05,1.305 0,-0.297 -5.511,-3.002 -6.116,-3.002 -0.295,0 -0.843,0.675 -1.218,1.5 m -81.213,0.2 -0.72,1.3 0.825,-1 c 0.731,-0.887 1.056,-1.6 0.728,-1.6 -0.062,0 -0.437,0.585 -0.833,1.3 m 135.133,-0.307 c -0.212,0.305 -1.89,2.186 -3.729,4.181 -1.839,1.994 -3.259,3.626 -3.156,3.626 0.329,0 7.607,-8.025 7.435,-8.197 -0.09,-0.091 -0.338,0.085 -0.55,0.39 m 1.254,1.405 c -0.6,1.101 -1.004,2.002 -0.899,2.002 0.267,0 2.302,-3.69 2.13,-3.863 -0.078,-0.077 -0.632,0.76 -1.231,1.861 m -170.44,0.247 c -2.925,1.469 -6.6,3.708 -6.6,4.02 0,0.211 0.58,-0.106 2.04,-1.115 0.572,-0.395 2.642,-1.527 4.6,-2.516 1.958,-0.988 3.38,-1.796 3.16,-1.796 -0.22,0 -1.66,0.633 -3.2,1.407 m -9.569,1.166 c -2.981,1.931 -3.833,2.61 -2.231,1.778 1.297,-0.674 5.2,-3.26 5.2,-3.446 0,-0.245 -0.126,-0.174 -2.969,1.668 m 42.155,0.09 c -0.841,1.686 -0.846,1.699 -0.639,1.699 0.258,0 1.495,-2.492 1.322,-2.664 -0.074,-0.074 -0.381,0.36 -0.683,0.965 m 19.323,0.499 c 0,0.99 0.078,1.395 0.173,0.9 0.096,-0.495 0.096,-1.305 0,-1.8 -0.095,-0.495 -0.173,-0.09 -0.173,0.9 m 65.091,-0.424 c 0.965,0.703 11.84,6.155 11.4,5.715 -0.369,-0.369 -10.688,-5.727 -11.598,-6.021 -0.221,-0.072 -0.132,0.066 0.198,0.306 m -19.793,3.103 c 0.6,1.435 0.993,2.083 0.993,1.637 0,-0.432 -1.215,-3.116 -1.411,-3.116 -0.11,0 0.078,0.666 0.418,1.479 M 114.4,167.246 c -2.883,2.324 -4.545,3.83 -3.2,2.901 1.234,-0.852 6.4,-5.043 6.4,-5.192 0,-0.273 -0.151,-0.166 -3.2,2.291 m 171.878,2.054 c -2.093,2.255 -3.732,4.175 -3.642,4.267 0.09,0.091 0.215,0.091 0.277,0 0.063,-0.092 1.792,-2.012 3.844,-4.267 2.052,-2.255 3.64,-4.1 3.529,-4.1 -0.11,0 -1.914,1.845 -4.008,4.1 m -165.944,-1.704 c -3.547,2.413 -4.334,3.018 -4.334,3.332 0,0.132 1.181,-0.654 2.624,-1.746 1.443,-1.093 3.153,-2.26 3.8,-2.594 1.038,-0.537 1.499,-0.988 1.01,-0.988 -0.092,0 -1.487,0.898 -3.1,1.996 m 61.855,26.604 c 0,15.4 0.05,21.642 0.111,13.871 0.061,-7.771 0.061,-20.371 0,-28 -0.061,-7.629 -0.111,-1.271 -0.111,14.129 M 266.6,168.297 c 0.538,0.536 11.518,6.118 11.692,5.944 0.075,-0.075 -2.615,-1.533 -5.978,-3.239 -3.362,-1.707 -5.934,-2.924 -5.714,-2.705 m 25.2,0.251 c -0.22,0.257 -2.085,2.309 -4.144,4.559 -2.059,2.251 -3.659,4.093 -3.555,4.093 0.309,0 8.415,-8.818 8.25,-8.975 -0.083,-0.079 -0.331,0.066 -0.551,0.323 m 4.6,1.936 c 0,0.12 -0.272,0.87 -0.605,1.667 -0.333,0.797 -0.516,1.449 -0.406,1.449 0.317,0 1.444,-2.9 1.216,-3.128 -0.113,-0.113 -0.205,-0.107 -0.205,0.012 m -192.263,5.684 c -2.935,2.953 -5.337,5.563 -5.337,5.801 0,0.238 0.665,-0.332 1.477,-1.268 2.828,-3.256 5.538,-6.001 7.844,-7.945 1.276,-1.076 2.103,-1.956 1.837,-1.956 -0.266,0 -2.885,2.416 -5.821,5.368 m 8.463,-2.74 c -3.4,2.701 -6.383,5.573 -9.108,8.772 -1.173,1.377 0.333,0.089 3.532,-3.021 3.067,-2.981 6.296,-5.99 7.176,-6.686 0.88,-0.696 1.51,-1.271 1.4,-1.277 -0.11,-0.007 -1.46,0.989 -3,2.212 m 186.396,0.444 c -0.338,0.809 -0.563,1.628 -0.499,1.819 0.064,0.191 0.419,-0.471 0.79,-1.472 0.806,-2.174 0.583,-2.44 -0.291,-0.347 m -140.15,-0.605 c -0.025,0.367 -0.15,0.997 -0.276,1.4 -0.218,0.695 -0.207,0.696 0.227,0.02 0.251,-0.391 0.376,-1.021 0.276,-1.4 -0.162,-0.619 -0.185,-0.621 -0.227,-0.02 m 113.554,2.126 c 0,0.376 8.784,4.607 9.493,4.573 0.467,-0.023 0.367,-0.139 -0.293,-0.343 -0.55,-0.169 -2.845,-1.235 -5.1,-2.369 -2.255,-1.134 -4.1,-1.971 -4.1,-1.861 m -114.55,1.457 c -0.333,1.667 -0.01,1.99 0.35,0.35 0.152,-0.691 0.193,-1.341 0.091,-1.442 -0.102,-0.102 -0.3,0.389 -0.441,1.092 m 139.199,2.565 c -0.137,0.358 -0.231,1.041 -0.208,1.518 0.026,0.548 0.162,0.353 0.369,-0.53 0.35,-1.487 0.255,-2.07 -0.161,-0.988 m -4.027,1.207 c -0.15,0.803 -0.194,1.54 -0.096,1.638 0.098,0.097 0.301,-0.479 0.452,-1.282 0.15,-0.803 0.194,-1.54 0.096,-1.638 -0.098,-0.097 -0.301,0.479 -0.452,1.282 m -173.917,0.061 c 0.497,0.096 1.217,0.092 1.6,-0.008 0.382,-0.1 -0.025,-0.179 -0.905,-0.174 -0.88,0.004 -1.193,0.086 -0.695,0.182 m 3.851,1.063 c 0.856,0.518 1.98,1.642 2.498,2.498 0.518,0.856 0.943,1.397 0.944,1.203 0.001,-0.194 -0.367,-0.95 -0.818,-1.68 -0.759,-1.228 -3.007,-2.97 -3.827,-2.965 -0.194,0.001 0.347,0.426 1.203,0.944 m -8.527,1.345 c -0.909,1.104 -1.212,1.858 -1.165,2.9 l 0.064,1.409 0.161,-1.4 c 0.089,-0.77 0.699,-2.075 1.355,-2.9 0.657,-0.825 1.108,-1.5 1.004,-1.5 -0.104,0 -0.743,0.671 -1.419,1.491 M 96.568,184.7 c -0.84,1.045 -1.113,1.54 -0.605,1.1 0.954,-0.826 2.629,-3 2.312,-3 -0.098,0 -0.866,0.855 -1.707,1.9 m 195.969,1.1 c 0.002,1.76 0.072,2.43 0.156,1.489 0.085,-0.94 0.084,-2.38 -0.002,-3.2 -0.086,-0.819 -0.155,-0.049 -0.154,1.711 m -136.028,-1 c 0,0.99 0.078,1.395 0.173,0.9 0.096,-0.495 0.096,-1.305 0,-1.8 -0.095,-0.495 -0.173,-0.09 -0.173,0.9 m 139.615,1 c 0.002,1.32 0.077,1.812 0.166,1.093 0.089,-0.719 0.087,-1.799 -0.004,-2.4 -0.091,-0.601 -0.164,-0.013 -0.162,1.307 m -179.088,-0.569 c -3.006,3.571 2.17,8.105 5.353,4.689 0.446,-0.479 0.786,-1.242 0.757,-1.695 -0.051,-0.761 -0.068,-0.755 -0.227,0.067 -0.203,1.052 -1.918,2.508 -2.954,2.508 -3.155,0 -4.609,-3.418 -2.396,-5.631 0.643,-0.643 1.019,-1.169 0.836,-1.169 -0.184,0 -0.8,0.554 -1.369,1.231 m 4.71,-0.402 c 0.58,0.456 1.075,1.221 1.1,1.7 0.039,0.729 0.078,0.751 0.237,0.135 0.19,-0.736 -1.262,-2.664 -2.007,-2.664 -0.211,0 0.09,0.373 0.67,0.829 m -21.187,0.871 c -1.752,2.021 -2.272,2.7 -2.069,2.7 0.117,0 0.877,-0.81 1.689,-1.8 1.502,-1.834 1.8,-2.537 0.38,-0.9 m -6.435,2 c -0.742,0.819 -5.12,7.263 -5.911,8.7 -0.848,1.541 0.692,-0.521 2.988,-4 1.379,-2.09 2.875,-4.205 3.323,-4.7 0.449,-0.495 0.725,-0.9 0.615,-0.9 -0.11,0 -0.566,0.405 -1.015,0.9 m 61.969,0.3 c 0,0.77 0.082,1.085 0.183,0.7 0.1,-0.385 0.1,-1.015 0,-1.4 -0.101,-0.385 -0.183,-0.07 -0.183,0.7 m -42.847,1.069 c -0.049,1.362 1.357,3.396 2.897,4.191 0.471,0.243 0.16,-0.17 -0.691,-0.918 -1.095,-0.963 -1.638,-1.827 -1.854,-2.952 -0.289,-1.501 -0.309,-1.519 -0.352,-0.321 m -15.848,0.269 c -7.034,9.513 -7.929,11.66 -5.711,13.692 l 1.277,1.17 -1.282,-1.514 c -0.705,-0.833 -1.282,-1.734 -1.282,-2.003 0,-0.61 5.737,-9.293 7.125,-10.783 0.564,-0.605 0.855,-1.1 0.648,-1.1 -0.207,0 -0.556,0.242 -0.775,0.538 m 27.717,1.704 c -0.596,0.967 -1.004,1.758 -0.905,1.758 0.283,0 2.325,-3.199 2.149,-3.366 -0.088,-0.082 -0.647,0.641 -1.244,1.608 m 173.373,1.571 c 0.598,0.63 1.159,1.064 1.247,0.966 0.088,-0.099 -0.402,-0.614 -1.088,-1.145 l -1.247,-0.965 1.088,1.144 M 155.714,194.2 c 0.003,1.1 0.081,1.503 0.173,0.895 0.092,-0.609 0.09,-1.509 -0.005,-2 -0.095,-0.492 -0.171,0.005 -0.168,1.105 m -32.643,-1.138 c -0.144,0.144 -0.939,0.394 -1.767,0.554 -1.423,0.276 -1.438,0.294 -0.28,0.338 0.672,0.025 1.572,-0.218 2,-0.541 0.427,-0.323 0.671,-0.593 0.543,-0.6 -0.129,-0.007 -0.352,0.105 -0.496,0.249 m 172.33,1.672 c 0.659,0.734 1.559,1.521 1.999,1.749 0.44,0.228 0.62,0.257 0.4,0.065 -0.22,-0.193 -1.12,-0.98 -1.999,-1.749 l -1.599,-1.399 1.199,1.334 M 199.462,194.3 c -0.169,0.272 17.61,0.268 40.938,-0.009 4.95,-0.059 -2.194,-0.148 -15.876,-0.199 -13.682,-0.051 -24.96,0.043 -25.062,0.208 m 107.338,0.5 -2.2,0.27 2,0.025 c 1.1,0.014 2.45,-0.119 3,-0.295 1.228,-0.393 0.409,-0.393 -2.8,0 m 4.475,0.903 c 0.542,1.766 0.221,2.697 -0.929,2.697 -0.484,0 -0.768,0.112 -0.631,0.248 0.136,0.136 0.729,0.127 1.316,-0.02 1.126,-0.283 1.271,-2.886 0.219,-3.938 -0.27,-0.27 -0.262,0.079 0.025,1.013 m -61.603,1.183 -0.072,2.285 -3.9,0.131 -3.9,0.131 3.913,0.083 c 4.433,0.095 4.422,0.103 4.183,-2.967 l -0.152,-1.949 -0.072,2.286 M 198.914,197 c 0.003,1.1 0.081,1.503 0.173,0.895 0.092,-0.609 0.09,-1.509 -0.005,-2 -0.095,-0.492 -0.171,0.005 -0.168,1.105 M 87.28,197.68 c -1.151,1.151 -0.585,5.272 0.954,6.953 l 1.435,1.567 -1.235,-1.591 c -1.342,-1.73 -1.794,-5.889 -0.754,-6.929 0.264,-0.264 0.39,-0.48 0.28,-0.48 -0.11,0 -0.416,0.216 -0.68,0.48 m 210.681,2.435 c -1.908,1.703 -4.5,5.713 -3.156,4.882 0.217,-0.134 0.395,-0.493 0.395,-0.798 0,-0.304 1.009,-1.644 2.243,-2.976 2.507,-2.708 2.648,-3.01 0.518,-1.108 M 200.4,199.457 c 3.052,0.268 13.934,0.326 13.288,0.071 -0.378,-0.149 -3.838,-0.254 -7.688,-0.233 -3.85,0.022 -6.37,0.095 -5.6,0.162 m -44.123,3.143 c 0.121,1.76 0.288,3.275 0.372,3.367 0.27,0.297 0.101,-2.917 -0.25,-4.767 -0.257,-1.353 -0.287,-1.006 -0.122,1.4 m 83.623,-2.568 c -0.385,0.224 -0.697,0.624 -0.694,0.888 0.005,0.373 0.074,0.373 0.311,0 0.168,-0.264 0.751,-0.658 1.294,-0.875 0.544,-0.217 0.719,-0.4 0.389,-0.407 -0.33,-0.008 -0.915,0.17 -1.3,0.394 m 63.3,0.944 c -0.99,0.516 -2.159,1.363 -2.597,1.881 l -0.797,0.943 0.997,-0.855 c 0.548,-0.471 1.897,-1.317 2.997,-1.882 1.1,-0.564 1.82,-1.026 1.6,-1.026 -0.22,0 -1.21,0.423 -2.2,0.939 m -64.402,24.824 -0.198,24 h -2.364 c -2.339,0 -2.37,-0.015 -2.87,-1.4 -0.278,-0.77 -0.519,-1.202 -0.536,-0.96 -0.147,2.132 0.805,2.96 3.402,2.96 3.286,0 3.009,2.423 2.877,-25.2 l -0.112,-23.4 -0.199,24 m 59.673,-20.241 c -0.479,0.852 -0.871,1.781 -0.871,2.063 0,0.283 0.444,-0.363 0.986,-1.435 1.19,-2.349 1.107,-2.801 -0.115,-0.628 M 94.44,206.4 c 0.947,1.21 1.775,2.275 1.841,2.367 0.065,0.091 0.115,0.001 0.111,-0.2 -0.005,-0.202 -0.833,-1.267 -1.841,-2.367 l -1.832,-2 1.721,2.2 m -3.485,1.719 c 0.848,1.034 1.625,1.881 1.727,1.881 0.273,0 -2.261,-3.14 -2.805,-3.476 -0.255,-0.158 0.23,0.56 1.078,1.595 m 66.117,0.481 c 0.127,1.1 0.297,2.075 0.379,2.167 0.281,0.315 0.069,-2.168 -0.271,-3.167 -0.229,-0.674 -0.264,-0.349 -0.108,1 m 136.27,3.2 c -10e-4,1.98 0.066,2.84 0.15,1.912 0.084,-0.928 0.085,-2.548 0.003,-3.6 -0.083,-1.052 -0.152,-0.292 -0.153,1.688 m 3.71,-2.5 c -0.306,1.141 -0.253,4.612 0.088,5.824 0.143,0.508 0.26,-0.797 0.26,-2.9 0,-4.202 -0.002,-4.216 -0.348,-2.924 M 93.2,210.802 c 0,0.117 1.89,2.096 4.2,4.398 2.31,2.302 4.2,4.065 4.2,3.918 0,-0.148 -1.89,-2.127 -4.2,-4.398 -2.31,-2.271 -4.2,-4.034 -4.2,-3.918 m 6,0.556 c 0,0.409 4.929,5.171 6.964,6.728 0.9,0.688 1.366,0.987 1.036,0.665 -4.523,-4.422 -8,-7.635 -8,-7.393 m 58.468,0.242 c 0.02,1.039 0.65,2.746 0.664,1.8 0.006,-0.44 -0.143,-1.16 -0.332,-1.6 -0.211,-0.49 -0.339,-0.568 -0.332,-0.2 m 120.932,0.378 c -0.88,0.417 -1.42,0.758 -1.2,0.76 0.546,0.004 3.702,-1.474 3.2,-1.498 -0.22,-0.01 -1.12,0.322 -2,0.738 m 4.6,1.015 c 0.99,1.095 1.845,2.07 1.9,2.166 0.055,0.096 0.186,0.088 0.291,-0.016 0.105,-0.105 -0.75,-1.08 -1.9,-2.167 L 281.4,211 l 1.8,1.993 M 158.456,214.8 c 0,0.33 0.155,0.96 0.344,1.4 0.217,0.504 0.344,0.578 0.344,0.2 0,-0.33 -0.155,-0.96 -0.344,-1.4 -0.217,-0.504 -0.344,-0.578 -0.344,-0.2 m 113.144,0.4 c -0.77,0.422 -1.22,0.766 -1,0.766 0.22,0 1.03,-0.344 1.8,-0.766 0.77,-0.422 1.22,-0.766 1,-0.766 -0.22,0 -1.03,0.344 -1.8,0.766 m 15.816,2.376 c 3.485,3.935 5.783,6.364 5.771,6.1 -0.006,-0.152 -1.671,-1.997 -3.7,-4.1 -2.028,-2.102 -2.96,-3.002 -2.071,-2 M 293.862,217 c 0.134,0.88 0.31,1.675 0.391,1.767 0.303,0.343 0.076,-1.799 -0.272,-2.567 -0.252,-0.558 -0.288,-0.315 -0.119,0.8 M 277.3,216.634 c -0.715,0.312 -1.3,0.66 -1.3,0.773 0,0.208 2.806,-0.88 3.146,-1.22 0.34,-0.34 -0.526,-0.13 -1.846,0.447 m 20.306,0.599 c 0.003,0.532 0.183,1.237 0.4,1.567 0.276,0.422 0.317,0.185 0.136,-0.8 -0.317,-1.725 -0.544,-2.051 -0.536,-0.767 m -31.006,0.345 c -0.88,0.417 -1.487,0.772 -1.349,0.79 0.389,0.05 3.149,-1.154 3.149,-1.373 0,-0.268 -10e-4,-0.268 -1.8,0.583 m 15.416,-0.448 c 0.009,0.148 1.674,1.989 3.7,4.089 3.673,3.808 2.909,2.798 -1.429,-1.889 -1.258,-1.359 -2.28,-2.349 -2.271,-2.2 m -122.568,1.07 c 0.143,0.66 0.418,1.47 0.611,1.8 0.225,0.384 0.259,0.168 0.093,-0.6 -0.143,-0.66 -0.418,-1.47 -0.611,-1.8 -0.225,-0.384 -0.259,-0.168 -0.093,0.6 m 112.652,0.834 c -0.715,0.312 -1.3,0.66 -1.3,0.773 0,0.208 2.806,-0.88 3.146,-1.22 0.34,-0.34 -0.526,-0.13 -1.846,0.447 m -169.976,0.443 c 0.336,0.544 3.476,3.078 3.476,2.805 0,-0.102 -0.847,-0.879 -1.881,-1.727 -1.035,-0.848 -1.753,-1.333 -1.595,-1.078 m 6.02,0.032 c 0.316,0.512 2.656,2.244 2.656,1.966 0,-0.099 -0.661,-0.684 -1.468,-1.3 -0.808,-0.616 -1.343,-0.916 -1.188,-0.666 m 152.456,0.862 c -1.32,0.642 -2.287,1.181 -2.148,1.198 0.354,0.044 4.748,-1.991 4.748,-2.198 0,-0.262 -0.039,-0.247 -2.6,1 m 7.283,0.611 c -1.055,0.506 -2.045,1.05 -2.2,1.211 -0.346,0.356 2.136,-0.655 3.745,-1.527 1.778,-0.962 0.633,-0.728 -1.545,0.316 m 27.345,0.71 c -0.046,0.473 1.258,3.556 1.43,3.383 0.087,-0.087 -0.192,-0.95 -0.621,-1.917 -0.429,-0.967 -0.793,-1.627 -0.809,-1.466 M 106,222.49 c 0,0.28 4.349,3.608 6.1,4.668 2.409,1.457 1.727,0.704 -1,-1.105 -1.375,-0.912 -3.085,-2.13 -3.8,-2.707 -0.715,-0.577 -1.3,-0.962 -1.3,-0.856 m 148.6,0.688 c -0.88,0.417 -1.487,0.772 -1.349,0.79 0.389,0.05 3.149,-1.154 3.149,-1.373 0,-0.268 -10e-4,-0.268 -1.8,0.583 m 8.083,0.204 c -1.055,0.506 -2.045,1.05 -2.2,1.211 -0.346,0.356 2.136,-0.655 3.745,-1.527 1.778,-0.962 0.633,-0.728 -1.545,0.316 M 114.4,223.933 c 1.143,0.946 4,2.611 4,2.332 0,-0.102 -0.601,-0.54 -1.335,-0.973 -0.734,-0.433 -1.859,-1.103 -2.5,-1.487 l -1.165,-0.7 1,0.828 m 185.621,-0.229 c -0.031,0.455 1.658,3.95 1.828,3.781 0.08,-0.081 -0.294,-1.033 -0.831,-2.116 -0.537,-1.083 -0.985,-1.832 -0.997,-1.665 m -138.055,1.207 c 0.562,1.477 1.615,3.489 1.826,3.489 0.207,0 -1.59,-3.931 -1.972,-4.313 -0.148,-0.149 -0.083,0.222 0.146,0.824 m 20.474,0.722 c 0.022,0.972 0.185,2.217 0.362,2.767 0.193,0.6 0.235,-0.04 0.104,-1.6 -0.255,-3.038 -0.524,-3.711 -0.466,-1.167 m 113.548,1.467 c 2.789,3.199 3.554,3.645 2.516,1.468 -0.375,-0.788 -0.753,-1.22 -0.84,-0.961 -0.088,0.264 -1.047,-0.382 -2.181,-1.468 -1.88,-1.801 -1.844,-1.733 0.505,0.961 m -80.321,-0.7 c -0.043,0.99 -0.171,2.25 -0.284,2.8 l -0.206,1 0.43,-0.985 c 0.237,-0.541 0.364,-1.801 0.284,-2.8 l -0.147,-1.815 -0.077,1.8 m 32.933,-0.429 c -1.32,0.642 -2.287,1.181 -2.148,1.198 0.354,0.044 4.748,-1.991 4.748,-2.198 0,-0.262 -0.039,-0.247 -2.6,1 m 8.883,-0.189 c -1.055,0.506 -2.045,1.05 -2.2,1.211 -0.346,0.356 2.136,-0.655 3.745,-1.527 1.778,-0.962 0.633,-0.728 -1.545,0.316 m 32.529,0.142 c 0.007,0.152 1.492,1.817 3.3,3.7 3.311,3.448 2.643,2.523 -1.226,-1.7 -1.147,-1.252 -2.081,-2.152 -2.074,-2 M 245,227.671 c -0.44,0.246 -0.856,0.491 -0.923,0.545 -0.068,0.054 0.159,0.775 0.505,1.602 0.346,0.828 0.719,1.414 0.83,1.303 0.111,-0.111 -0.069,-0.724 -0.4,-1.361 -0.567,-1.091 -0.55,-1.201 0.293,-1.851 1.019,-0.787 0.877,-0.898 -0.305,-0.238 m 7.283,0.511 c -1.055,0.506 -2.045,1.05 -2.2,1.211 -0.346,0.356 2.136,-0.655 3.745,-1.527 1.778,-0.962 0.633,-0.728 -1.545,0.316 M 114.2,228.29 c 0.22,0.21 1.12,0.786 2,1.28 0.88,0.495 1.24,0.6 0.8,0.234 -0.894,-0.743 -3.428,-2.113 -2.8,-1.514 m 69.028,2.143 c 0.016,0.532 0.191,1.327 0.391,1.767 0.252,0.558 0.288,0.315 0.119,-0.8 -0.283,-1.857 -0.551,-2.364 -0.51,-0.967 M 247.6,230.4 c -0.77,0.422 -1.22,0.766 -1,0.766 0.22,0 1.03,-0.344 1.8,-0.766 0.77,-0.422 1.22,-0.766 1,-0.766 -0.22,0 -1.03,0.344 -1.8,0.766 m 55.615,-0.2 c 0.002,0.22 0.371,0.85 0.821,1.4 0.543,0.664 0.679,0.731 0.404,0.2 -0.674,-1.305 -1.228,-2.028 -1.225,-1.6 M 118,230.598 c 0,0.269 4.049,2.286 4.229,2.107 0.082,-0.082 -0.836,-0.632 -2.04,-1.223 -1.204,-0.59 -2.189,-0.988 -2.189,-0.884 m 8.8,0.016 c 0,0.279 2.906,1.417 3.291,1.289 0.191,-0.064 -0.471,-0.419 -1.472,-0.79 -1,-0.371 -1.819,-0.596 -1.819,-0.499 m 38.667,0.992 c 0.392,0.664 1.131,1.699 1.643,2.3 0.511,0.602 0.265,0.059 -0.547,-1.206 -1.539,-2.397 -2.335,-3.193 -1.096,-1.094 m 49.379,-0.739 c -0.025,0.367 -0.15,0.997 -0.276,1.4 -0.218,0.695 -0.207,0.696 0.227,0.02 0.251,-0.391 0.376,-1.021 0.276,-1.4 -0.162,-0.619 -0.185,-0.621 -0.227,-0.02 M 123.6,233.4 c 0.55,0.314 1.18,0.572 1.4,0.572 0.22,0 -0.05,-0.258 -0.6,-0.572 -0.55,-0.314 -1.18,-0.572 -1.4,-0.572 -0.22,0 0.05,0.258 0.6,0.572 m 104.726,0.512 c 0.59,0.612 1.15,1.062 1.242,0.999 0.231,-0.156 -1.633,-2.111 -2.012,-2.111 -0.168,0 0.179,0.501 0.77,1.112 m 68.89,0.018 c 0.009,0.148 1.674,1.989 3.7,4.089 3.673,3.808 2.909,2.798 -1.429,-1.889 -1.258,-1.359 -2.28,-2.349 -2.271,-2.2 m 9.2,1.579 c 0.518,0.941 1.283,2.019 1.701,2.396 0.417,0.378 0.094,-0.301 -0.717,-1.509 -1.866,-2.779 -2.183,-3.064 -0.984,-0.887 M 138.4,234.794 c 0.33,0.217 1.035,0.397 1.567,0.4 1.284,0.008 0.958,-0.219 -0.767,-0.536 -0.985,-0.181 -1.222,-0.14 -0.8,0.136 m 3.4,0.796 c 0.764,0.338 3.314,0.567 2.967,0.266 -0.092,-0.08 -0.977,-0.252 -1.967,-0.383 -1.202,-0.159 -1.534,-0.12 -1,0.117 m 26.985,0.604 c 1.088,1.5 5.005,5.46 6.615,6.688 0.882,0.673 0.573,0.29 -0.689,-0.854 -1.259,-1.141 -3.239,-3.102 -4.4,-4.358 -1.161,-1.255 -1.848,-1.92 -1.526,-1.476 m 43.868,0.306 -0.72,1.3 0.825,-1 c 0.731,-0.887 1.056,-1.6 0.728,-1.6 -0.062,0 -0.437,0.585 -0.833,1.3 m -27.834,-0.787 c -0.038,0.638 1.943,4.156 2.65,4.705 0.692,0.538 0.696,0.526 0.077,-0.225 -0.359,-0.436 -1.116,-1.693 -1.681,-2.793 -0.565,-1.1 -1.036,-1.859 -1.046,-1.687 M 145.8,236.39 c 0.764,0.338 3.314,0.567 2.967,0.266 -0.092,-0.08 -0.977,-0.252 -1.967,-0.383 -1.202,-0.159 -1.534,-0.12 -1,0.117 m 4,0.82 c 0.77,0.321 4.507,0.541 4.167,0.245 -0.092,-0.079 -1.247,-0.242 -2.567,-0.362 -1.449,-0.131 -2.083,-0.085 -1.6,0.117 m 69.962,1.49 c -0.844,1.045 -1.631,1.994 -1.748,2.108 -0.118,0.115 -0.844,0.925 -1.614,1.8 l -1.4,1.592 1.511,-1.389 c 1.474,-1.355 5.319,-6.011 4.964,-6.011 -0.098,0 -0.869,0.855 -1.713,1.9 m -84.529,-0.956 c 0.092,0.079 0.707,0.264 1.367,0.412 0.876,0.196 1.038,0.159 0.6,-0.138 -0.54,-0.365 -2.368,-0.62 -1.967,-0.274 m 21.072,0.139 c 0.497,0.096 1.217,0.092 1.6,-0.008 0.382,-0.1 -0.025,-0.179 -0.905,-0.174 -0.88,0.004 -1.193,0.086 -0.695,0.182 m 52.924,2.831 c -1.414,1.453 -2.044,2.263 -1.4,1.8 1.125,-0.808 2.622,-2.335 3.74,-3.814 0.945,-1.25 0.281,-0.679 -2.34,2.014 m 21.239,-2.314 c 0.02,1.039 0.65,2.746 0.664,1.8 0.006,-0.44 -0.143,-1.16 -0.332,-1.6 -0.211,-0.49 -0.339,-0.568 -0.332,-0.2 m -91.668,0.4 c 1.368,0.438 2.419,0.438 1.4,0 -0.44,-0.189 -1.16,-0.338 -1.6,-0.332 -0.643,0.009 -0.604,0.075 0.2,0.332 m 22.093,1.2 c 0,0.77 0.082,1.085 0.183,0.7 0.1,-0.385 0.1,-1.015 0,-1.4 -0.101,-0.385 -0.183,-0.07 -0.183,0.7 m -19.26,-0.653 c 0.092,0.081 0.887,0.257 1.767,0.391 1.115,0.169 1.358,0.133 0.8,-0.119 -0.768,-0.348 -2.91,-0.575 -2.567,-0.272 m 4,0.8 c 0.092,0.081 0.887,0.257 1.767,0.391 1.115,0.169 1.358,0.133 0.8,-0.119 -0.768,-0.348 -2.91,-0.575 -2.567,-0.272 m 5.767,1.071 c 1.1,0.172 2.63,0.304 3.4,0.294 1.133,-0.015 1.018,-0.078 -0.6,-0.33 -1.1,-0.172 -2.63,-0.304 -3.4,-0.294 -1.133,0.015 -1.018,0.078 0.6,0.33 m 159.791,1.17 c 0.466,0.653 1.051,1.314 1.3,1.468 0.25,0.155 -0.05,-0.38 -0.666,-1.188 -1.337,-1.753 -1.841,-1.976 -0.634,-0.28 m -152.886,-0.505 c 0.497,0.096 1.217,0.092 1.6,-0.008 0.382,-0.1 -0.025,-0.179 -0.905,-0.174 -0.88,0.004 -1.193,0.086 -0.695,0.182 m 146.907,0.841 c 0.007,0.152 1.492,1.817 3.3,3.7 3.311,3.448 2.643,2.523 -1.226,-1.7 -1.147,-1.252 -2.081,-2.152 -2.074,-2 M 191,243.81 c 0.88,0.542 1.78,0.985 2,0.983 0.22,-0.001 -0.383,-0.45 -1.341,-0.998 -2.245,-1.284 -2.749,-1.272 -0.659,0.015 m 21.99,1.521 c -0.886,0.698 -2.056,1.592 -2.6,1.986 -0.952,0.69 -0.939,0.69 0.349,0 1.238,-0.663 4.515,-3.302 4.061,-3.269 -0.11,0.007 -0.925,0.585 -1.81,1.283 m 19.254,0.069 c 0.329,1.471 0.558,1.79 0.55,0.767 -0.003,-0.422 -0.189,-1.037 -0.412,-1.367 -0.297,-0.438 -0.334,-0.276 -0.138,0.6 m 81.347,0.188 c 0.466,0.653 1.051,1.314 1.3,1.468 0.25,0.155 -0.05,-0.38 -0.666,-1.188 -1.337,-1.753 -1.841,-1.976 -0.634,-0.28 M 200.8,245.2 l -1.8,0.28 1.6,0.054 c 0.88,0.029 1.87,-0.121 2.2,-0.334 0.33,-0.213 0.42,-0.363 0.2,-0.334 -0.22,0.03 -1.21,0.18 -2.2,0.334 m -5.3,0.282 c 0.495,0.096 1.305,0.096 1.8,0 0.495,-0.095 0.09,-0.173 -0.9,-0.173 -0.99,0 -1.395,0.078 -0.9,0.173 m 9.916,3.982 c -0.871,0.314 -1.681,0.667 -1.799,0.786 -0.366,0.366 2.125,-0.33 3.183,-0.889 1.278,-0.676 0.647,-0.629 -1.384,0.103 m -16.983,0.283 c 0.092,0.081 0.887,0.257 1.767,0.391 1.115,0.169 1.358,0.133 0.8,-0.119 -0.768,-0.348 -2.91,-0.575 -2.567,-0.272 M 316.8,249.725 c 0,0.069 0.585,0.654 1.3,1.3 l 1.3,1.175 -1.175,-1.3 c -1.095,-1.212 -1.425,-1.484 -1.425,-1.175 m -123.495,0.962 c 0.609,0.092 1.509,0.09 2,-0.005 0.492,-0.095 -0.005,-0.171 -1.105,-0.168 -1.1,0.003 -1.503,0.081 -0.895,0.173 m 5.295,0.113 -2.4,0.266 2,0.044 c 1.1,0.024 2.72,-0.105 3.6,-0.287 2.001,-0.414 0.436,-0.425 -3.2,-0.023 m 113.8,-0.184 c 0,0.462 5.704,6.584 6.135,6.584 0.52,0 2.665,-2.017 2.665,-2.506 0,-0.195 -0.466,0.198 -1.036,0.875 -1.443,1.716 -1.645,1.633 -4.884,-1.989 -1.584,-1.772 -2.88,-3.105 -2.88,-2.964"
       stroke="none"
       fill="#555555"
       fill-rule="evenodd" />
    <path
       id="path3"
       d="m 188.575,147.3 -1.175,1.3 1.3,-1.175 c 1.212,-1.095 1.484,-1.425 1.175,-1.425 -0.069,0 -0.654,0.585 -1.3,1.3 m 115.395,7.768 -0.97,1.068 1.087,-0.768 c 0.599,-0.422 1.094,-0.903 1.1,-1.068 0.021,-0.493 -0.198,-0.354 -1.217,0.768 m -199.379,21.032 -3.191,3.3 3.3,-3.191 c 1.815,-1.754 3.3,-3.239 3.3,-3.3 0,-0.291 -0.446,0.126 -3.409,3.191 m 51.51,14.5 c 0.004,0.88 0.086,1.193 0.182,0.695 0.096,-0.497 0.092,-1.217 -0.008,-1.6 -0.1,-0.382 -0.179,0.025 -0.174,0.905 m 0,7.6 c 0.004,0.88 0.086,1.193 0.182,0.695 0.096,-0.497 0.092,-1.217 -0.008,-1.6 -0.1,-0.382 -0.179,0.025 -0.174,0.905 m 60.075,15.4 c 0,6.27 0.056,8.835 0.123,5.7 0.068,-3.135 0.068,-8.265 0,-11.4 -0.067,-3.135 -0.123,-0.57 -0.123,5.7"
       stroke="none"
       fill="#7c7c7c"
       fill-rule="evenodd" />
    <path
       id="path4"
       d="m 317.178,135.9 -1.378,1.5 1.426,-1.307 c 0.785,-0.719 1.579,-1.169 1.764,-1 0.186,0.169 0.209,0.082 0.051,-0.193 -0.381,-0.662 -0.291,-0.71 -1.863,1 m -117.466,1.995 c 1.052,0.082 2.672,0.081 3.6,-0.003 0.928,-0.084 0.068,-0.151 -1.912,-0.15 -1.98,0.001 -2.74,0.07 -1.688,0.153 m 114.073,1.805 -1.985,2.1 2.1,-1.985 c 1.951,-1.844 2.283,-2.215 1.985,-2.215 -0.063,0 -1.008,0.945 -2.1,2.1 m -80.362,-0.011 c -0.343,0.489 -0.616,1.074 -0.607,1.3 0.009,0.226 0.289,-0.093 0.623,-0.709 0.561,-1.035 0.766,-1.111 2.684,-1 l 2.077,0.12 v 21.462 c 0,11.804 0.135,21.378 0.3,21.276 0.54,-0.334 0.364,-42.314 -0.18,-42.858 -0.876,-0.876 -4.191,-0.6 -4.897,0.409 m 76.758,4.011 -1.581,1.7 1.7,-1.581 c 1.581,-1.471 1.884,-1.819 1.581,-1.819 -0.065,0 -0.83,0.765 -1.7,1.7 M 196.2,142.81 c -0.534,0.237 -0.202,0.276 1,0.117 0.99,-0.131 1.875,-0.303 1.967,-0.383 0.347,-0.301 -2.203,-0.072 -2.967,0.266 m 8.2,-0.01 c 0.55,0.176 1.36,0.32 1.8,0.32 0.633,0 0.592,-0.066 -0.2,-0.32 -0.55,-0.176 -1.36,-0.32 -1.8,-0.32 -0.633,0 -0.592,0.066 0.2,0.32 m -25.3,1.814 c -1.045,0.766 -1.9,1.482 -1.9,1.589 0,0.149 2.531,-1.52 4.367,-2.88 0.091,-0.067 0.001,-0.119 -0.2,-0.113 -0.202,0.005 -1.222,0.637 -2.267,1.404 m 40.7,-1.124 c 0.22,0.21 1.12,0.786 2,1.28 0.88,0.495 1.24,0.6 0.8,0.234 -0.894,-0.743 -3.428,-2.113 -2.8,-1.514 m -30.293,2.526 c -0.812,0.669 -1.86,1.794 -2.329,2.5 l -0.854,1.284 1.177,-1.361 c 0.648,-0.748 1.79,-1.868 2.538,-2.489 0.749,-0.621 1.267,-1.133 1.152,-1.139 -0.115,-0.006 -0.873,0.536 -1.684,1.205 m 116.278,2.484 -1.985,2.1 2.1,-1.985 c 1.951,-1.844 2.283,-2.215 1.985,-2.215 -0.063,0 -1.008,0.945 -2.1,2.1 m -87.996,1.405 c 1.534,1.592 2.871,2.895 2.97,2.895 0.367,0 -1.855,-2.335 -4.183,-4.395 -0.867,-0.767 -0.321,-0.092 1.213,1.5 m 84.392,2.595 -1.581,1.7 1.7,-1.581 c 1.581,-1.471 1.884,-1.819 1.581,-1.819 -0.065,0 -0.83,0.765 -1.7,1.7 m -131.747,0.053 -0.965,1.247 1.144,-1.088 c 0.63,-0.598 1.064,-1.159 0.966,-1.247 -0.099,-0.088 -0.614,0.402 -1.145,1.088 M 151,153.2 c -0.504,0.217 -0.578,0.344 -0.2,0.344 0.33,0 0.96,-0.155 1.4,-0.344 0.504,-0.217 0.578,-0.344 0.2,-0.344 -0.33,0 -0.96,0.155 -1.4,0.344 m 153.4,1.101 c -0.975,1.015 -1.051,1.161 -0.25,0.478 l 1.149,-0.979 -0.276,0.9 c -0.402,1.305 0.017,1.103 0.748,-0.361 1.044,-2.093 0.613,-2.105 -1.371,-0.038 M 147.8,154 c -0.504,0.217 -0.578,0.344 -0.2,0.344 0.33,0 0.96,-0.155 1.4,-0.344 0.504,-0.217 0.578,-0.344 0.2,-0.344 -0.33,0 -0.96,0.155 -1.4,0.344 m 160.152,1.7 c -0.262,0.495 -0.737,1.35 -1.056,1.9 -0.557,0.959 -0.553,0.967 0.092,0.2 0.798,-0.948 1.917,-3 1.636,-3 -0.108,0 -0.41,0.405 -0.672,0.9 m -10.167,1.6 -1.985,2.1 2.1,-1.985 c 1.951,-1.844 2.283,-2.215 1.985,-2.215 -0.063,0 -1.008,0.945 -2.1,2.1 m 3.2,0.8 -1.985,2.1 2.1,-1.985 c 1.951,-1.844 2.283,-2.215 1.985,-2.215 -0.063,0 -1.008,0.945 -2.1,2.1 m -118.335,1.15 c -0.333,1.667 -0.01,1.99 0.35,0.35 0.152,-0.691 0.193,-1.341 0.091,-1.442 -0.102,-0.102 -0.3,0.389 -0.441,1.092 m 111.531,2.05 -1.581,1.7 1.7,-1.581 c 1.581,-1.471 1.884,-1.819 1.581,-1.819 -0.065,0 -0.83,0.765 -1.7,1.7 m -48.353,-0.545 c -0.223,0.36 0.287,0.884 1.372,1.412 0.33,0.161 0.24,-0.004 -0.2,-0.366 -0.44,-0.361 -0.755,-0.825 -0.7,-1.029 0.127,-0.473 -0.184,-0.484 -0.472,-0.017 M 121.7,162.626 c -0.935,0.561 -1.7,1.114 -1.7,1.229 0,0.216 2.699,-1.317 3.38,-1.919 0.687,-0.608 0.047,-0.345 -1.68,0.69 m 174.081,1.074 -1.581,1.7 1.7,-1.581 c 0.935,-0.87 1.7,-1.635 1.7,-1.7 0,-0.303 -0.348,0 -1.819,1.581 M 182.093,164 c 0,0.77 0.082,1.085 0.183,0.7 0.1,-0.385 0.1,-1.015 0,-1.4 -0.101,-0.385 -0.183,-0.07 -0.183,0.7 M 125.5,163.829 c -1.495,0.811 -1.404,1.149 0.1,0.371 0.66,-0.341 1.2,-0.706 1.2,-0.81 0,-0.258 -0.043,-0.243 -1.3,0.439 m 164.285,2.271 -1.985,2.1 2.1,-1.985 c 1.951,-1.844 2.283,-2.215 1.985,-2.215 -0.063,0 -1.008,0.945 -2.1,2.1 m -174.539,0.921 c -0.965,0.758 -1.595,1.376 -1.4,1.373 0.195,-0.003 1.074,-0.626 1.954,-1.385 2.064,-1.779 1.713,-1.772 -0.554,0.012 M 181.79,194.4 c 0,15.95 0.049,22.475 0.11,14.5 0.06,-7.975 0.06,-21.025 0,-29 -0.061,-7.975 -0.11,-1.45 -0.11,14.5 m 110.395,-26.7 -1.985,2.1 2.1,-1.985 c 1.951,-1.844 2.283,-2.215 1.985,-2.215 -0.063,0 -1.008,0.945 -2.1,2.1 m -172.292,-0.286 c -0.821,0.558 -1.493,1.101 -1.493,1.206 0,0.105 0.72,-0.285 1.6,-0.867 1.397,-0.925 1.87,-1.353 1.493,-1.353 -0.059,0 -0.779,0.456 -1.6,1.014 m 166.288,2.686 -1.581,1.7 1.7,-1.581 c 1.581,-1.471 1.884,-1.819 1.581,-1.819 -0.065,0 -0.83,0.765 -1.7,1.7 M 111.6,170.049 c -1.394,1.222 -1.395,1.223 -0.112,0.37 0.708,-0.471 1.394,-1.028 1.524,-1.238 0.385,-0.624 0.065,-0.427 -1.412,0.868 m 2.8,1.6 c -1.394,1.222 -1.395,1.223 -0.112,0.37 0.708,-0.471 1.394,-1.028 1.524,-1.238 0.385,-0.624 0.065,-0.427 -1.412,0.868 m 173.381,0.851 -1.581,1.7 1.7,-1.581 c 0.935,-0.87 1.7,-1.635 1.7,-1.7 0,-0.303 -0.348,0 -1.819,1.581 m -183.388,4.2 -4.593,4.7 4.7,-4.593 c 4.366,-4.267 4.882,-4.807 4.593,-4.807 -0.058,0 -2.173,2.115 -4.7,4.7 m 177.987,-2.479 c -0.862,0.889 -1.64,1.352 -2.079,1.237 -0.386,-0.101 -0.601,-0.02 -0.478,0.179 0.434,0.702 1.23,0.347 2.777,-1.237 0.859,-0.88 1.471,-1.6 1.36,-1.6 -0.112,0 -0.823,0.639 -1.58,1.421 m -175.987,4.479 -4.193,4.3 4.3,-4.193 c 2.365,-2.306 4.3,-4.241 4.3,-4.3 0,-0.289 -0.513,0.199 -4.407,4.193 m 177.792,-2.2 -1.985,2.1 2.1,-1.985 c 1.951,-1.844 2.283,-2.215 1.985,-2.215 -0.063,0 -1.008,0.945 -2.1,2.1 m -4.009,2.478 c 0.89,0.712 1.667,0.8 2.021,0.227 0.138,-0.223 -0.014,-0.297 -0.345,-0.17 -0.324,0.125 -1.009,0.023 -1.521,-0.226 -0.888,-0.432 -0.895,-0.424 -0.155,0.169 m -161.743,1.967 c 0.092,0.08 0.968,0.247 1.946,0.373 1.151,0.147 1.575,0.098 1.2,-0.139 -0.534,-0.339 -3.521,-0.56 -3.146,-0.234 m 4.005,0.755 c 0.094,0.055 0.889,0.73 1.766,1.5 l 1.596,1.4 -1.378,-1.5 c -0.759,-0.825 -1.554,-1.5 -1.767,-1.5 -0.214,0 -0.311,0.045 -0.217,0.1 m 34.618,0.784 c -0.135,0.504 -0.229,1.276 -0.21,1.716 0.019,0.44 0.199,0.098 0.4,-0.76 0.39,-1.662 0.224,-2.5 -0.19,-0.956 m -59.701,1.797 c -0.848,1.035 -1.333,1.753 -1.078,1.595 0.544,-0.336 3.078,-3.476 2.805,-3.476 -0.102,0 -0.879,0.847 -1.727,1.881 m 195.554,0.119 c 0,0.99 0.078,1.395 0.173,0.9 0.096,-0.495 0.096,-1.305 0,-1.8 -0.095,-0.495 -0.173,-0.09 -0.173,0.9 M 118.4,183.618 c -0.438,0.297 -0.276,0.334 0.6,0.138 1.471,-0.329 1.79,-0.558 0.767,-0.55 -0.422,0.003 -1.037,0.189 -1.367,0.412 m 2.433,0.082 c 0.092,0.055 0.707,0.55 1.367,1.1 l 1.2,1 -0.97,-1.1 c -0.533,-0.605 -1.148,-1.1 -1.366,-1.1 -0.219,0 -0.322,0.045 -0.231,0.1 m 4.967,3.7 c 0,1.168 0.132,1.916 0.294,1.662 0.162,-0.254 0.294,-1.002 0.294,-1.662 0,-0.66 -0.132,-1.408 -0.294,-1.662 -0.162,-0.254 -0.294,0.494 -0.294,1.662 m -2.499,0 c 0.004,0.88 0.086,1.193 0.182,0.695 0.096,-0.497 0.092,-1.217 -0.008,-1.6 -0.1,-0.382 -0.179,0.025 -0.174,0.905 m 33.219,1.8 c 0,1.21 0.075,1.705 0.167,1.1 0.091,-0.605 0.091,-1.595 0,-2.2 -0.092,-0.605 -0.167,-0.11 -0.167,1.1 m 136.348,-1 c -0.006,0.44 0.143,1.16 0.332,1.6 0.438,1.019 0.438,-0.032 0,-1.4 -0.257,-0.804 -0.323,-0.843 -0.332,-0.2 m -176.548,1.233 c 0.456,0.871 1.628,1.995 1.798,1.724 0.054,-0.086 -0.427,-0.697 -1.069,-1.357 -0.792,-0.816 -1.026,-0.933 -0.729,-0.367 M 95.287,191.7 c -1.46,2.156 -1.775,2.7 -1.567,2.7 0.092,0 0.824,-0.99 1.627,-2.2 0.804,-1.21 1.378,-2.2 1.276,-2.2 -0.101,0 -0.703,0.765 -1.336,1.7 m 28.92,-0.176 c -0.869,1.019 -0.967,1.258 -0.359,0.878 0.805,-0.502 1.941,-1.976 1.68,-2.179 -0.071,-0.054 -0.665,0.531 -1.321,1.301 M 296.8,191.325 c 0,0.069 0.585,0.654 1.3,1.3 l 1.3,1.175 -1.175,-1.3 c -1.095,-1.212 -1.425,-1.484 -1.425,-1.175 M 156.128,194.4 c 0,1.43 0.073,2.015 0.161,1.3 0.089,-0.715 0.089,-1.885 0,-2.6 -0.088,-0.715 -0.161,-0.13 -0.161,1.3 m -65.575,-1.1 c -1.377,2.336 -1.467,2.535 -0.766,1.7 0.813,-0.968 1.513,-2.2 1.251,-2.2 -0.105,0 -0.323,0.225 -0.485,0.5 m 108.917,1.364 c -0.369,0.368 -0.343,4.043 0.03,4.275 0.165,0.103 0.238,-0.787 0.163,-1.976 l -0.137,-2.163 h 24.804 c 16.54,0 24.871,0.137 25.007,0.41 0.112,0.226 0.157,0.181 0.1,-0.1 -0.112,-0.553 -49.42,-0.994 -49.967,-0.446 M 87.996,197.3 c -0.436,0.715 -0.786,1.66 -0.777,2.1 0.01,0.476 0.234,0.19 0.553,-0.704 0.295,-0.827 0.759,-1.772 1.031,-2.1 0.272,-0.328 0.38,-0.596 0.24,-0.596 -0.14,0 -0.611,0.585 -1.047,1.3 m 223.236,-0.233 c -0.018,0.476 -0.257,0.957 -0.532,1.068 -0.392,0.158 -0.389,0.209 0.013,0.233 0.607,0.038 1.048,-0.928 0.756,-1.655 -0.113,-0.282 -0.22,-0.123 -0.237,0.354 M 156.52,199.6 c 0,1.21 0.075,1.705 0.167,1.1 0.091,-0.605 0.091,-1.595 0,-2.2 -0.092,-0.605 -0.167,-0.11 -0.167,1.1 m 83.169,0.223 c -0.489,0.342 -0.889,0.827 -0.889,1.076 0,0.25 0.225,0.172 0.5,-0.173 0.275,-0.345 0.86,-0.823 1.3,-1.064 0.44,-0.241 0.615,-0.443 0.389,-0.45 -0.226,-0.007 -0.811,0.268 -1.3,0.611 M 297.6,201 c -0.972,0.99 -1.677,1.8 -1.567,1.8 0.11,0 0.995,-0.81 1.967,-1.8 0.972,-0.99 1.677,-1.8 1.567,-1.8 -0.11,0 -0.995,0.81 -1.967,1.8 M 89.621,200.175 c -0.386,0.465 -0.195,0.866 1.002,2.1 l 1.479,1.525 -1.27,-1.536 c -1.009,-1.22 -1.174,-1.652 -0.802,-2.1 0.257,-0.31 0.378,-0.564 0.268,-0.564 -0.11,0 -0.415,0.259 -0.677,0.575 m 126.686,10.495 c 0.06,5.462 0.161,10.83 0.226,11.93 0.066,1.1 0.134,-2.95 0.153,-9 0.019,-6.05 -0.083,-11.418 -0.226,-11.93 -0.143,-0.511 -0.212,3.539 -0.153,9 m 84.56,-8.37 -1.502,1.5 1.417,-1.199 c 0.78,-0.659 1.589,-1.334 1.798,-1.5 0.209,-0.166 0.247,-0.301 0.085,-0.301 -0.163,0 -0.972,0.675 -1.798,1.5 M 87.254,202.038 c -0.033,0.633 0.297,1.335 0.846,1.8 0.893,0.756 0.895,0.756 0.236,-0.038 -0.364,-0.44 -0.745,-1.25 -0.845,-1.8 l -0.182,-1 -0.055,1.038 m 151.144,23.362 -0.198,24 -2,0.237 -2,0.237 1.851,0.063 c 2.923,0.099 2.767,1.556 2.651,-24.782 l -0.105,-23.755 -0.199,24 m -81.511,-20.2 c -0.004,0.55 0.137,1.45 0.313,2 0.431,1.344 0.431,-0.108 0,-1.8 -0.274,-1.078 -0.306,-1.098 -0.313,-0.2 m 136.935,3.022 c -0.15,0.803 -0.194,1.54 -0.096,1.638 0.098,0.097 0.301,-0.479 0.452,-1.282 0.15,-0.803 0.194,-1.54 0.096,-1.638 -0.098,-0.097 -0.301,0.479 -0.452,1.282 M 95.6,208.24 c 0,0.206 1.935,2.261 4.3,4.567 l 4.3,4.193 -4.2,-4.387 c -2.31,-2.413 -4.245,-4.468 -4.3,-4.567 -0.055,-0.099 -0.1,-0.011 -0.1,0.194 m -2.766,1.607 c 0.531,0.686 1.046,1.176 1.145,1.088 0.098,-0.088 -0.336,-0.649 -0.966,-1.247 l -1.144,-1.088 0.965,1.247 M 157.656,210 c 0,0.33 0.155,0.96 0.344,1.4 0.217,0.504 0.344,0.578 0.344,0.2 0,-0.33 -0.155,-0.96 -0.344,-1.4 -0.217,-0.504 -0.344,-0.578 -0.344,-0.2 m 135.972,4.033 c 0.016,0.532 0.191,1.327 0.391,1.767 0.252,0.558 0.288,0.315 0.119,-0.8 -0.283,-1.857 -0.551,-2.364 -0.51,-0.967 M 97.648,214.7 c 0.027,0.165 1.332,1.465 2.9,2.89 l 2.852,2.589 -2.789,-2.889 c -2.832,-2.934 -3.049,-3.123 -2.963,-2.59 m 188.152,1.7 c 1.083,1.1 2.06,2 2.17,2 0.11,0 -0.687,-0.9 -1.77,-2 -1.083,-1.1 -2.06,-2 -2.17,-2 -0.11,0 0.687,0.9 1.77,2 m -5,-1.075 c 0,0.069 0.585,0.654 1.3,1.3 l 1.3,1.175 -1.175,-1.3 c -1.095,-1.212 -1.425,-1.484 -1.425,-1.175 m 7.2,3.6 c 0,0.069 0.585,0.654 1.3,1.3 l 1.3,1.175 -1.175,-1.3 C 288.33,218.888 288,218.616 288,218.925 m -3.2,0.8 c 0,0.069 0.585,0.654 1.3,1.3 l 1.3,1.175 -1.175,-1.3 c -1.095,-1.212 -1.425,-1.484 -1.425,-1.175 m -179.056,2.184 c 0.316,0.512 2.656,2.244 2.656,1.966 0,-0.099 -0.661,-0.684 -1.468,-1.3 -0.808,-0.616 -1.343,-0.916 -1.188,-0.666 M 287.6,222.65 c 0,0.211 0.855,1.186 1.9,2.167 l 1.9,1.783 -1.8,-1.993 c -0.99,-1.095 -1.845,-2.07 -1.9,-2.166 -0.055,-0.096 -0.1,-0.002 -0.1,0.209 m 5.8,2.15 c 0.859,0.88 1.652,1.6 1.762,1.6 0.11,0 -0.503,-0.72 -1.362,-1.6 -0.859,-0.88 -1.652,-1.6 -1.762,-1.6 -0.11,0 0.503,0.72 1.362,1.6 m -111.307,0 c 0,0.77 0.082,1.085 0.183,0.7 0.1,-0.385 0.1,-1.015 0,-1.4 -0.101,-0.385 -0.183,-0.07 -0.183,0.7 M 114,224.179 c 0,0.11 0.54,0.48 1.2,0.821 0.66,0.341 1.2,0.531 1.2,0.421 0,-0.11 -0.54,-0.48 -1.2,-0.821 -0.66,-0.341 -1.2,-0.531 -1.2,-0.421 m 102.109,2.221 c 0,0.99 0.078,1.395 0.173,0.9 0.096,-0.495 0.096,-1.305 0,-1.8 -0.095,-0.495 -0.173,-0.09 -0.173,0.9 m 80.491,2 c 0.859,0.88 1.652,1.6 1.762,1.6 0.11,0 -0.503,-0.72 -1.362,-1.6 -0.859,-0.88 -1.652,-1.6 -1.762,-1.6 -0.11,0 0.503,0.72 1.362,1.6 M 120.2,228 c 0.66,0.437 1.38,0.795 1.6,0.796 0.22,0 -0.189,-0.358 -0.91,-0.797 -1.698,-1.036 -2.254,-1.035 -0.69,0.001 m 173.2,1.2 c 0.859,0.88 1.652,1.6 1.762,1.6 0.11,0 -0.503,-0.72 -1.362,-1.6 -0.859,-0.88 -1.652,-1.6 -1.762,-1.6 -0.11,0 0.503,0.72 1.362,1.6 m -110.932,-0.6 c -0.006,0.44 0.143,1.16 0.332,1.6 0.438,1.019 0.438,-0.032 0,-1.4 -0.257,-0.804 -0.323,-0.843 -0.332,-0.2 m 32.961,1.629 c -0.148,0.586 -0.191,1.143 -0.097,1.237 0.095,0.094 0.292,-0.308 0.439,-0.895 0.148,-0.586 0.191,-1.143 0.097,-1.237 -0.095,-0.094 -0.292,0.308 -0.439,0.895 m 29.371,-0.78 c 0,0.786 1.486,1.859 1.822,1.315 0.186,-0.3 0.135,-0.385 -0.133,-0.219 -0.239,0.148 -0.717,-0.135 -1.062,-0.627 -0.345,-0.493 -0.627,-0.704 -0.627,-0.469 m 54.279,0.688 c -0.127,0.333 0.028,0.82 0.345,1.083 0.666,0.553 0.817,-0.22 0.226,-1.154 -0.275,-0.433 -0.382,-0.42 -0.571,0.071 m -132.663,2.172 c 0.518,0.941 1.283,2.019 1.701,2.396 0.417,0.378 0.094,-0.301 -0.717,-1.509 -1.866,-2.779 -2.183,-3.064 -0.984,-0.887 M 296.6,232.8 c 0.859,0.88 1.652,1.6 1.762,1.6 0.11,0 -0.503,-0.72 -1.362,-1.6 -0.859,-0.88 -1.652,-1.6 -1.762,-1.6 -0.11,0 0.503,0.72 1.362,1.6 m -67.275,1.568 c 0.475,0.867 0.925,1.516 0.999,1.441 0.194,-0.193 -1.047,-2.514 -1.49,-2.788 -0.205,-0.127 0.016,0.479 0.491,1.347 M 140.2,235.6 c 0.44,0.189 1.07,0.344 1.4,0.344 0.378,0 0.304,-0.127 -0.2,-0.344 -0.44,-0.189 -1.07,-0.344 -1.4,-0.344 -0.378,0 -0.304,0.127 0.2,0.344 m 4,0.8 c 0.44,0.189 1.07,0.344 1.4,0.344 0.378,0 0.304,-0.127 -0.2,-0.344 -0.44,-0.189 -1.07,-0.344 -1.4,-0.344 -0.378,0 -0.304,0.127 0.2,0.344 m 155.8,0.125 c 0,0.069 0.585,0.654 1.3,1.3 l 1.3,1.175 -1.175,-1.3 C 300.33,236.488 300,236.216 300,236.525 M 148.2,237.2 c 0.44,0.189 1.07,0.344 1.4,0.344 0.378,0 0.304,-0.127 -0.2,-0.344 -0.44,-0.189 -1.07,-0.344 -1.4,-0.344 -0.378,0 -0.304,0.127 0.2,0.344 m 4.105,0.683 c 0.497,0.096 1.217,0.092 1.6,-0.008 0.382,-0.1 -0.025,-0.179 -0.905,-0.174 -0.88,0.004 -1.193,0.086 -0.695,0.182 M 172.2,239.6 c 1.083,1.1 2.06,2 2.17,2 0.11,0 -0.687,-0.9 -1.77,-2 -1.083,-1.1 -2.06,-2 -2.17,-2 -0.11,0 0.687,0.9 1.77,2 m -16.695,-1.317 c 0.497,0.096 1.217,0.092 1.6,-0.008 0.382,-0.1 -0.025,-0.179 -0.905,-0.174 -0.88,0.004 -1.193,0.086 -0.695,0.182 M 140.6,238.8 c 0.44,0.189 1.16,0.338 1.6,0.332 0.643,-0.009 0.604,-0.075 -0.2,-0.332 -1.368,-0.438 -2.419,-0.438 -1.4,0 m 19.729,1.046 0.169,1.446 -3.349,-0.217 -3.349,-0.218 2.91,0.411 c 1.6,0.225 3.175,0.308 3.5,0.184 0.616,-0.237 0.866,-3.052 0.27,-3.052 -0.176,0 -0.243,0.651 -0.151,1.446 m 50.246,0.254 -1.175,1.3 1.3,-1.175 c 0.715,-0.646 1.3,-1.231 1.3,-1.3 0,-0.309 -0.33,-0.037 -1.425,1.175 M 144.6,239.6 c 0.44,0.189 1.16,0.338 1.6,0.332 0.643,-0.009 0.604,-0.075 -0.2,-0.332 -1.368,-0.438 -2.419,-0.438 -1.4,0 m 73.175,0.9 -1.175,1.3 1.3,-1.175 c 0.715,-0.646 1.3,-1.231 1.3,-1.3 0,-0.309 -0.33,-0.037 -1.425,1.175 m 85.025,-1.05 c 0,0.211 0.855,1.186 1.9,2.167 l 1.9,1.783 -1.8,-1.993 c -0.99,-1.095 -1.845,-2.07 -1.9,-2.166 -0.055,-0.096 -0.1,-0.002 -0.1,0.209 M 231.256,240 c 0,0.33 0.155,0.96 0.344,1.4 0.217,0.504 0.344,0.578 0.344,0.2 0,-0.33 -0.155,-0.96 -0.344,-1.4 -0.217,-0.504 -0.344,-0.578 -0.344,-0.2 m -82.656,0.4 c 0.44,0.189 1.16,0.338 1.6,0.332 0.643,-0.009 0.604,-0.075 -0.2,-0.332 -1.368,-0.438 -2.419,-0.438 -1.4,0 m 39.688,1.623 c 0.708,0.765 1.878,1.71 2.6,2.101 1.266,0.686 1.277,0.685 0.316,-0.007 -0.548,-0.394 -1.718,-1.339 -2.6,-2.1 l -1.604,-1.383 1.288,1.389 m 122.103,-0.035 c 0.466,0.653 1.051,1.314 1.3,1.468 0.25,0.155 -0.05,-0.38 -0.666,-1.188 -1.337,-1.753 -1.841,-1.976 -0.634,-0.28 m -97.828,3.149 c -1.341,1.025 -2.781,2.095 -3.2,2.378 -0.42,0.283 -0.021,0.128 0.885,-0.345 1.427,-0.744 5.508,-3.971 4.952,-3.916 -0.11,0.011 -1.297,0.858 -2.637,1.883 M 308.6,246 c 0.859,0.88 1.652,1.6 1.762,1.6 0.11,0 -0.503,-0.72 -1.362,-1.6 -0.859,-0.88 -1.652,-1.6 -1.762,-1.6 -0.11,0 0.503,0.72 1.362,1.6 m -112.295,-0.117 c 0.497,0.096 1.217,0.092 1.6,-0.008 0.382,-0.1 -0.025,-0.179 -0.905,-0.174 -0.88,0.004 -1.193,0.086 -0.695,0.182 m 2.995,-0.007 c 0.385,0.1 1.015,0.1 1.4,0 0.385,-0.101 0.07,-0.183 -0.7,-0.183 -0.77,0 -1.085,0.082 -0.7,0.183 m 112.5,3.724 c 0.859,0.88 1.652,1.6 1.762,1.6 0.11,0 -0.503,-0.72 -1.362,-1.6 -0.859,-0.88 -1.652,-1.6 -1.762,-1.6 -0.11,0 0.503,0.72 1.362,1.6 M 191.4,250 c 0.44,0.189 1.16,0.338 1.6,0.332 0.643,-0.009 0.604,-0.075 -0.2,-0.332 -1.368,-0.438 -2.419,-0.438 -1.4,0 m 127.64,2.803 c 1.385,1.642 1.479,2.003 0.737,2.822 -0.993,1.098 -1.193,1.021 -3.439,-1.325 l -2.011,-2.1 1.937,2.295 c 2.187,2.593 2.44,2.685 3.701,1.343 1.014,-1.08 0.817,-1.848 -0.828,-3.24 l -0.937,-0.792 0.84,0.997"
       stroke="none"
       fill="#848484"
       fill-rule="evenodd" />
  </g>
  <rect
     style="fill:none"
     id="rect4"
     width="379.55478"
     height="138.82935"
     x="14.50948"
     y="151.69002"
     ry="2.9678483" />
  <rect
     style="fill:none"
     id="rect5"
     width="370.65128"
     height="145.0948"
     x="19.785654"
     y="152.01978"
     ry="2.9678483" />
  <rect
     style="fill:none"
     id="rect6"
     width="8.9035454"
     height="2.9678483"
     x="13.849958"
     y="150.70074"
     ry="1.4839242" />
  <rect
     style="fill:none"
     id="rect7"
     width="41.549877"
     height="32.31657"
     x="6.9249778"
     y="178.40067"
     ry="1.4839242" />
  <rect
     style="fill:none"
     id="rect8"
     width="6.5952187"
     height="1.9785656"
     x="46.166523"
     y="213.02556"
     ry="0.98928279" />
</svg>
