<?xml version="1.0" encoding="UTF-8"?>
<svg version="1.1" viewBox="0 0 612.18 187.21" xml:space="preserve" xmlns="http://www.w3.org/2000/svg"><rect x="119.27" y="507.97" width="483.26" height="200.33" ry=".989" fill="none"/><path d="M336.554 161.689c-3.78.71-5.276-1.065-6.025-4.065-1.13-4.517-2.201-9.065-3.663-13.478-1.695-5.116-5.453-5.653-8.846-1.436-1.668 2.074-3.09 4.353-4.826 6.365-14.716 17.062-32.46 17.144-50.588 5.943-11.707-7.233-18.588-18.54-22.866-31.26-7.342-21.825-7.778-43.758.885-65.407 5.338-13.34 13.543-24.62 26.322-31.643 15.506-8.522 31.338-9.344 46.988.037 1.856 1.113 3.641 2.345 5.5 3.453 5.003 2.982 6.823 2.438 9.364-2.732.66-1.344 1.25-2.727 1.977-4.034 1.183-2.132 3.228-2.118 5.263-1.873 2.406.29 2.759 2.137 2.76 4.057.017 15.824.012 31.649-.026 47.474-.005 1.903-.305 3.636-2.87 3.856-2.704.231-4.422-.601-5.27-3.33-2.318-7.473-4.734-14.914-8.338-21.902-2.996-5.811-6.517-11.262-11.289-15.77-4.306-4.069-9.258-7.244-15.244-7.948-16.747-1.972-27.178 7.113-27.585 25.413-.57 25.638-.197 51.3-.047 76.95.023 3.955 1.073 7.9 2.48 11.65 2.615 6.969 6.888 12.287 14.792 13.21 8.318.97 14.557-2.822 19.013-9.542 3.169-4.778 5.015-10.109 4.993-15.974-.031-8.496-.132-16.995.079-25.485.103-4.143-1.58-5.762-5.59-5.617-3.66.132-7.329.015-10.993-.011-2.58-.019-4.538-.563-4.519-3.876.019-3.175 1.923-3.403 4.277-3.402 18.324.007 36.647.015 54.97-.023 2.676-.005 4.469.513 4.403 3.822-.061 3.109-1.899 3.488-4.263 3.507-1.166.009-2.338.12-3.497.037-4.146-.298-5.513 1.702-5.483 5.696.123 16.99.08 33.982.015 50.972-.008 2.198.83 4.789-2.253 6.366z" fill="currentColor"/><path d="M408.385 48.354c8.97-9.885 17.694-19.513 26.464-29.1 1.237-1.352 2.286-3.733 4.766-1.56 2.281 1.998.521 3.61-.545 5.18-9.363 13.784-18.699 27.58-25.076 43.098-1.457 3.543-2.599 7.174-3.327 10.96-1.953 10.166 2.825 15.775 13.185 15.278 1.159-.056 2.317-.322 3.468-.282 1.507.052 1.715 1.378 2.01 2.488.295 1.112-.119 1.971-1.208 2.4-.929.367-1.865.765-2.836.964-12.01 2.46-17.17 12.085-12.3 25.418 5.173 14.16 14.169 25.94 23.36 37.6 1.03 1.308 2.126 2.564 3.183 3.851 1.156 1.407 1.88 2.82.07 4.288-1.881 1.525-3.03.195-4.18-1.067-2.805-3.079-5.6-6.166-8.393-9.255-11.17-12.36-22.417-24.651-33.447-37.134-2.448-2.771-4.448-2.951-7.667-1.407-11.71 5.615-23.558 10.942-35.38 16.323-1.532.697-3.406 2.325-4.71-.195-1.462-2.824 1.1-3.374 2.806-4.179 12.803-6.037 25.657-11.967 38.426-18.074 3.204-1.532 5.538-1.153 7.895 1.548 5.462 6.26 11.108 12.36 17.349 19.265-5.456-13.629-11.663-26.597 2.66-38.293-4.487-2.52-8.23-5.527-9.225-10.592-1.157-5.888-.073-11.612 1.967-17.147 1.438-3.904 2.99-7.777 4.734-11.552 1.716-3.718 3.737-7.295 5.062-11.341-7.734 8.385-15.554 16.692-23.138 25.21-1.88 2.11-3.273 2.628-5.858 1.283-12.705-6.61-25.519-13.014-38.248-19.579-1.578-.813-4.453-1.273-3.056-4.107 1.505-3.054 3.725-1.05 5.498-.153 10.997 5.566 22.044 11.045 32.867 16.931 4.05 2.202 6.438 1.529 9.23-1.941 4.168-5.183 8.881-9.927 13.594-15.127zM217.519 39.337c5.645-1.64 10.884-3.27 16.19-4.646 1.74-.45 4.23-1.634 4.98 1.32.751 2.963-1.997 3.147-3.756 3.545-14.728 3.336-28.59 8.623-41.394 16.81-16.175 10.341-28.914 23.881-39.18 39.971-1.76 2.76-.782 4.433.892 6.578 17.684 22.659 40.637 36.5 68.968 41.353 3.923.672 7.942.797 11.851 1.525 1.821.34 5.039-.341 4.61 3.084-.365 2.911-3.075 2.1-4.866 1.96-22.018-1.718-42.383-8.266-60.401-21.29-9.23-6.672-17.088-14.79-24.3-23.598-3.491-4.263-3.563-8.217-.695-12.737 16.164-25.482 38.025-43.854 67.1-53.875z" fill="currentColor"/><path d="M197.145 86.632c-2.884 4.918-7.08 5.417-11.481 3.898-3.555-1.226-4.729-4.354-4.509-8.066.294-4.957 3.432-8.127 8.213-8.11 4.563.015 8.345 3.48 8.561 8.03.061 1.284-.39 2.592-.784 4.248m-10.961-6.139c-1.667 2.414-1.034 4.37 1.221 5.968 1.667 1.181 3.17.656 4.484-.612 1.471-1.42 2.01-3.16.788-4.934-1.604-2.328-3.704-2.588-6.493-.422z" fill="currentColor"/><g fill="none"><rect x="92.342" y="-7.993" width="404.91" height="189.91" ry=".989"/><rect x="27.791" y="-28.949" width="565.48" height="238.93" ry=".989"/><rect width="612.18" height="187.21" ry=".989"/></g></svg>
