<svg version="1.1" id="Layer_1" xmlns="http://www.w3.org/2000/svg" xmlns:xlink="http://www.w3.org/1999/xlink" x="0px" y="0px"
	 width="100%" viewBox="0 0 496 496" enable-background="new 0 0 496 496" xml:space="preserve">
<path fill="#000000" opacity="1.000000" stroke="none" 
	d="
M297.865540,314.042908 
	C294.084991,314.753998 292.589294,312.977600 291.839844,309.978119 
	C290.711212,305.460876 289.639252,300.913300 288.177368,296.499786 
	C286.482758,291.383728 282.724304,290.847382 279.331543,295.064117 
	C277.662872,297.138062 276.240479,299.416992 274.504974,301.429230 
	C259.789520,318.491211 242.045288,318.572876 223.916901,307.372101 
	C212.210449,300.139160 205.329544,288.832458 201.050873,276.112732 
	C193.709229,254.287277 193.273422,232.353714 201.936157,210.705063 
	C207.274033,197.365387 215.479492,186.085480 228.258163,179.062317 
	C243.764465,170.540039 259.595978,169.717773 275.246338,179.099091 
	C277.102661,180.211777 278.887299,181.444168 280.746277,182.552155 
	C285.748993,185.533859 287.569763,184.990509 290.110596,179.820236 
	C290.771179,178.476028 291.360779,177.093170 292.086792,175.785690 
	C293.270660,173.653671 295.315338,173.668274 297.350403,173.913208 
	C299.755890,174.202728 300.109009,176.050491 300.110931,177.969849 
	C300.126831,193.794434 300.122559,209.619080 300.084747,225.443619 
	C300.080200,227.347260 299.779449,229.080215 297.213470,229.299744 
	C294.510468,229.530991 292.791840,228.698654 291.944855,225.969131 
	C289.626312,218.497375 287.210388,211.056351 283.606659,204.067596 
	C280.610382,198.256866 277.089691,192.805634 272.317535,188.297272 
	C268.011353,184.229095 263.059204,181.054382 257.073456,180.349716 
	C240.326553,178.378189 229.894867,187.462601 229.487900,205.763184 
	C228.917770,231.401337 229.291626,257.062408 229.441055,282.712616 
	C229.464096,286.667572 230.514206,290.612549 231.921173,294.362457 
	C234.536072,301.331848 238.809341,306.650055 246.713409,307.572815 
	C255.031738,308.543915 261.270325,304.751038 265.726837,298.030731 
	C268.894928,293.253296 270.740936,287.922424 270.719452,282.056580 
	C270.688354,273.561310 270.587006,265.062225 270.798004,256.571808 
	C270.900970,252.429184 269.217773,250.810455 265.207672,250.954880 
	C261.548248,251.086700 257.879456,250.969864 254.214935,250.943787 
	C251.634399,250.925430 249.677048,250.381149 249.696548,247.067780 
	C249.715256,243.893112 251.619156,243.664764 253.973495,243.665710 
	C272.297058,243.672989 290.620636,243.680557 308.944122,243.642960 
	C311.619324,243.637482 313.412109,244.156509 313.346558,247.465286 
	C313.284943,250.574081 311.447388,250.952682 309.083191,250.971725 
	C307.917267,250.981110 306.745270,251.092377 305.586670,251.009186 
	C301.440491,250.711502 300.073761,252.711014 300.102814,256.705353 
	C300.226288,273.695282 300.183289,290.686768 300.118683,307.677368 
	C300.110321,309.875397 300.947449,312.465607 297.865540,314.042908 
z"/>
<path fill="#000000" opacity="1.000000" stroke="none" 
	d="
M369.696350,200.707718 
	C378.666504,190.823242 387.390167,181.194962 396.160126,171.608994 
	C397.397430,170.256500 398.445862,167.874863 400.926605,170.048019 
	C403.207550,172.046188 401.447754,173.658081 400.381226,175.228088 
	C391.018127,189.011566 381.682465,202.809006 375.304810,218.325912 
	C373.848724,221.868637 372.706482,225.500000 371.978699,229.287003 
	C370.025269,239.451721 374.803253,245.061340 385.163513,244.564102 
	C386.322083,244.508484 387.480194,244.241669 388.631226,244.281876 
	C390.138214,244.334534 390.345917,245.660065 390.640961,246.770172 
	C390.936310,247.881592 390.522644,248.741257 389.433228,249.170578 
	C388.504517,249.536606 387.568054,249.935074 386.597076,250.133926 
	C374.587952,252.593628 369.426636,262.219238 374.297394,275.552277 
	C379.470306,289.712341 388.465790,301.492157 397.656464,313.152069 
	C398.687286,314.459900 399.783234,315.716248 400.840668,317.003265 
	C401.996460,318.410034 402.720093,319.823486 400.910217,321.290649 
	C399.028870,322.815765 397.880798,321.486389 396.730133,320.223633 
	C393.925140,317.145325 391.129700,314.058289 388.337158,310.968719 
	C377.166443,298.609802 365.919891,286.317871 354.889954,273.834595 
	C352.441864,271.063995 350.442749,270.883820 347.222961,272.427887 
	C335.513275,278.043243 323.664917,283.370483 311.843597,288.750763 
	C310.311707,289.447998 308.437439,291.076355 307.133179,288.555908 
	C305.671692,285.731567 308.233185,285.181976 309.939362,284.377350 
	C322.742218,278.339752 335.596405,272.410217 348.365814,266.303192 
	C351.569580,264.770996 353.903595,265.150391 356.260071,267.851227 
	C361.722382,274.111755 367.368835,280.211639 373.609344,287.116516 
	C368.153229,273.487488 361.946075,260.518829 376.269287,248.822586 
	C371.782593,246.303802 368.040222,243.296082 367.044464,238.230591 
	C365.886993,232.342606 366.971252,226.619385 369.011383,221.083572 
	C370.449799,217.180435 372.002228,213.307083 373.745270,209.531921 
	C375.461823,205.814026 377.482574,202.236588 378.806976,198.190857 
	C371.073730,206.575684 363.253296,214.882858 355.669037,223.400360 
	C353.789581,225.511093 352.396729,226.028687 349.811462,224.683655 
	C337.105896,218.073288 324.292755,211.669952 311.563080,205.105286 
	C309.985352,204.291656 307.110413,203.831619 308.507111,200.998032 
	C310.012360,197.944260 312.232025,199.947708 314.005829,200.845505 
	C325.002106,206.411057 336.048950,211.889587 346.872803,217.776154 
	C350.922150,219.978378 353.310608,219.304733 356.101837,215.834793 
	C360.270447,210.652527 364.983307,205.908081 369.696350,200.707718 
z"/>
<path fill="#000000" opacity="1.000000" stroke="none" 
	d="
M178.829819,191.691254 
	C184.475098,190.050812 189.714355,188.420975 195.019547,187.045410 
	C196.759491,186.594269 199.251053,185.411057 200.000214,188.365082 
	C200.751709,191.328384 198.003281,191.511581 196.244293,191.910065 
	C181.516205,195.246460 167.654739,200.533035 154.850510,208.719467 
	C138.675049,219.061310 125.935898,232.601135 115.671127,248.691269 
	C113.911018,251.450287 114.888229,253.123611 116.562309,255.268646 
	C134.246643,277.928040 157.199783,291.769135 185.530563,296.621796 
	C189.453262,297.293701 193.472214,297.419312 197.381439,298.147522 
	C199.202621,298.486755 202.419876,297.805603 201.990646,301.231354 
	C201.625900,304.142365 198.916687,303.331024 197.125076,303.191254 
	C175.107117,301.473206 154.742783,294.925262 136.723953,281.900208 
	C127.494598,275.228729 119.636185,267.111176 112.424141,258.303406 
	C108.932983,254.039825 108.861557,250.086349 111.728966,245.566208 
	C127.893562,220.084549 149.754242,201.712479 178.829819,191.691254 
z"/>
<path fill="#000000" opacity="1.000000" stroke="none" 
	d="
M158.456116,238.985901 
	C155.572342,243.904129 151.376389,244.402832 146.975189,242.884445 
	C143.419830,241.657867 142.246399,238.530029 142.466537,234.818359 
	C142.760544,229.861053 145.898041,226.691193 150.678802,226.707657 
	C155.242279,226.723373 159.024094,230.187469 159.240463,234.738617 
	C159.301483,236.022018 158.850433,237.329773 158.456116,238.985901 
M147.494919,232.847397 
	C145.828140,235.260834 146.461090,237.216339 148.716263,238.814743 
	C150.382965,239.996048 151.886597,239.470947 153.200195,238.202881 
	C154.671631,236.782440 155.210403,235.043304 153.988205,233.268997 
	C152.384338,230.940598 150.284348,230.681473 147.494919,232.847397 
z"/>
</svg>