<svg version="1.1" viewBox="0 0 1323 298.6" xml:space="preserve" xmlns="http://www.w3.org/2000/svg">
<style type="text/css">
	.st1{fill:#40AA1D;}
	.st0{fill:currentColor;}
</style>
			<path class="st0" d="m433.5 90.3c17.3 0 31.4 5.8 42.2 17.4 10.2 11.1 15.3 25.3 15.3 42.4 0 17.2-5.1 31.3-15.3 42.4-10.8 11.6-24.9 17.4-42.2 17.4s-31.4-5.8-42.2-17.4c-10.2-11.1-15.3-25.3-15.3-42.4 0-17.2 5.1-31.3 15.3-42.4 10.8-11.6 24.9-17.4 42.2-17.4zm0 103.9c12.5 0 22.4-4.3 29.7-13 7-8.2 10.4-18.6 10.4-31.1s-3.5-22.9-10.4-31.1c-7.3-8.7-17.2-13-29.7-13s-22.4 4.3-29.7 13c-7 8.2-10.4 18.6-10.4 31.1s3.5 22.9 10.4 31.1c7.3 8.7 17.2 13 29.7 13z"/>
			<path class="st0" d="m531.4 92.2v18.1c4.2-5.6 9.3-10.3 15.3-14.1 6-3.9 12.9-5.8 20.6-5.8s14.4 1.1 19.9 3.2c5.6 2.2 10.4 5.4 14.6 9.7 9.6 9.4 14.4 21.9 14.4 37.3v67.5h-17.4v-67c0-10.7-3-19.2-9-25.5s-13.8-9.5-23.4-9.5c-9.7 0-18 3.2-24.8 9.7-6.8 6.6-10.2 15.2-10.2 25.5v66.8h-17.4v-115.9z"/>
			<path class="st0" d="m713.4 123.3c-1.5-12.1-11.2-18.1-29.1-18.1s-26.8 5.6-26.8 16.7c0 4.6 1.9 8.2 5.7 10.6s8.5 4.4 14.3 5.9c5.7 1.5 11.9 3 18.7 4.3 6.7 1.3 12.9 3.2 18.7 5.6 5.7 2.4 10.5 5.7 14.3 9.9s5.7 9.9 5.7 17.2c0 11.3-4.3 19.9-12.8 25.9s-20 8.9-34.6 8.9c-15.5 0-27.8-3.9-36.9-11.6-8.4-6.8-12.8-15.7-13.5-26.7h18.1c1.1 10.7 7.1 17.9 18.1 21.6 4 1.2 8 1.9 11.9 1.9s7.6-0.2 11-0.7 6.7-1.3 10-2.6c7.4-2.9 11.1-8 11.1-15.1 0-4.8-1.9-8.5-5.7-11-3.8-2.6-8.5-4.6-14.3-6.3-5.7-1.6-11.9-3.1-18.7-4.4-6.7-1.3-13-3.1-18.7-5.4s-10.5-5.5-14.3-9.5-5.7-9.6-5.7-16.7c0-10.5 3.8-18.7 11.5-24.5s19-8.7 34-8.7c14.2 0 25.4 3.4 33.6 10.2 6.8 5.7 10.7 13.3 11.8 22.7h-17.4z"/>
			<path class="st0" d="m774.4 45.8v64.5c4.2-5.6 9.3-10.3 15.3-14.1 6-3.9 12.9-5.8 20.6-5.8s14.4 1.1 19.9 3.2c5.6 2.2 10.4 5.4 14.6 9.7 9.6 9.4 14.4 21.9 14.4 37.3v67.5h-17.4v-67c0-10.7-3-19.2-9-25.5s-13.8-9.5-23.4-9.5c-9.7 0-18 3.2-24.8 9.7-6.8 6.6-10.2 15.2-10.2 25.5v66.8h-17.4v-162.3z"/>
			<path class="st0" d="m978.7 189.6c-9.3 13.6-23.1 20.4-41.5 20.4-16.7 0-30.3-5.8-40.8-17.4-10.2-11.4-15.3-25.6-15.3-42.4s5.1-31 15.3-42.4c10.5-11.6 24.5-17.4 42-17.4s30.9 6.9 40.3 20.6v-18.8h17.4v115.9h-17.4zm-39.2 4.6c12.5 0 22.4-4.3 29.7-13 7-8.2 10.4-18.6 10.4-31.1s-3.5-22.9-10.4-31.1c-7.3-8.7-17.2-13-29.7-13-12.4 0-22.4 4.3-30.1 13-7.3 8.2-10.9 18.6-10.9 31.1s3.6 22.9 10.9 31.1c7.7 8.7 17.7 13 30.1 13z"/>
			<path class="st0" d="m1043.6 110.8c9.3-13.6 23.1-20.4 41.5-20.4 16.7 0 30.2 5.8 40.6 17.4 10.4 11.4 15.5 25.6 15.5 42.4 0 16.9-5.2 31-15.5 42.4-10.4 11.6-24.3 17.4-41.7 17.4-17.5 0-30.9-6.9-40.4-20.6v64.7h-17.4v-161.9h17.4zm39.2-4.7c-12.5 0-22.4 4.3-29.7 13-7 8.2-10.4 18.6-10.4 31.1s3.5 22.9 10.4 31.1c7.3 8.7 17.2 13 29.7 13 12.4 0 22.4-4.3 30.1-13 7.3-8.2 10.9-18.6 10.9-31.1s-3.6-22.9-10.9-31.1c-7.7-8.7-17.7-13-30.1-13z"/>
			<path class="st0" d="m1215.7 194.2c15.6 0 26.8-6.5 33.6-19.5h19c-4 10.5-10.4 19-19.1 25.5s-20 9.7-33.7 9.7c-17.5 0-31.7-5.8-42.7-17.4-10.7-11.3-16-25.4-16-42.4 0-17.2 5.1-31.3 15.3-42.4 10.8-11.6 24.9-17.4 42.2-17.4s31.4 5.8 42.2 17.4c10.2 11.1 15.3 25.3 15.3 42.4v7h-97.2c1.2 10.7 5.5 19.5 12.8 26.4 7.4 7.2 16.9 10.7 28.3 10.7zm-1.4-88.1c-10.7 0-19.6 3.3-26.9 10-6.8 6.3-11 14.6-12.5 24.8h78.8c-1.5-10.2-5.7-18.5-12.5-24.8-7.3-6.7-16.2-10-26.9-10z"/>

			<polygon class="st1" transform="translate(-187.7,-180.1)" points="187.7 254.5 187.7 321.1 238.7 351.4 238.7 282.6 366.2 208.8 316.4 180.1"/>
			<polygon class="st1" transform="translate(-187.7,-180.1)" points="317.1 478.7 373.8 446 373.8 383.5 316.5 420.9 187.7 342.9 187.7 404"/>
			<polygon class="st1" transform="translate(-187.7,-180.1)" points="386.1 220.2 446.6 254.9 446.6 404 393 434.9 393.1 285.9 332.8 251.1"/>
			<polygon class="st0" transform="translate(-187.7,-180.1)" points="257.7 294.9 257.7 324.1 280.1 337.2 280.1 307.2 336.2 274.7 314.4 262.2"/>
			<polygon class="st0" transform="translate(-187.7,-180.1)" points="316.5 397.9 340.6 382.9 340.6 356.1 316.5 371.6 257.7 335.9 257.7 362.6"/>
			<polygon class="st0" transform="translate(-187.7,-180.1)" points="347.1 281.1 373.8 296.5 373.8 361.9 350.3 376.8 350.4 310.2 323.5 294.8"/>

	<path class="st0" d="m1281.8 95.5v-2.8h17.3v2.8h-7.2v18.3h-3v-18.3zm38.1-2.8h3.1v21.2h-3v-16.3l-7 9-7.2-9v16.3h-3v-21.2h3.2l7 9.3z"/>

</svg>
