<svg xmlns="http://www.w3.org/2000/svg" xml:space="preserve" viewBox="0 0 1204.1 443.63"><path fill="#fe4603" d="M809.95 47.531c8.888 11.093 9.009 14.146 1.461 25.058-52.686 76.171-95.26 157.19-128.04 242.91a65.07 65.07 0 0 0-1.61 4.81c-.093.317.205.74.624 2.08 1.877-1.433 3.513-2.579 5.027-3.855 26.42-22.274 55.037-41.663 85.56-58.425 7.153-3.93 15.05-7.741 23.042-8.936 16.484-2.465 32.708 10.37 34.015 27.289.776 10.04-1.12 20.487-3.315 30.45-1.876 8.518-5.89 16.607-9.537 26.447 7.97-2.52 14.773-4.092 21.067-6.759 28.36-12.017 56.624-24.244 84.81-36.626 7.75-3.403 14.414-2.176 18.959 4.473 3.902 5.71 3.178 11.564-2.726 14.812-31.511 17.335-61.534 37.25-95.462 50.416-9.223 3.58-18.487 6.68-28.774 6.081-22.29-1.296-35.882-18.858-30.498-41.134 2.715-11.23 7.45-22.017 11.243-33.014.655-1.9 1.169-3.844 2.279-7.532-8.932 5.19-16.315 9.284-23.492 13.685-34.392 21.086-65.578 45.84-93.3 74.535-6.94 7.185-12.105 7.735-20.52 1.844-16.374-11.466-22.731-27.394-17.918-45.664 5.094-19.336 12.06-38.318 19.537-56.97 32.406-80.85 74.41-157.01 124.49-229.15 4.045-5.827 8.122-6.924 14.464-3.395 3.008 1.674 5.537 4.131 8.612 6.564z"/><g fill="#fe4604" stroke-width="1.296"><path d="M495.28 369.26c-6.8 5.334-12.723 11.301-19.903 15.115-13.838 7.35-28.693 4.745-40.149-5.738-13.711-12.546-18.425-27.855-12.7-45.008 3.101-9.292 7.82-18.419 13.513-26.534 14.107-20.11 32.797-35.84 55.128-47.342 3.205-1.65 8.248-2.09 11.663-.957 11.107 3.685 16.913 14.006 15.762 25.209-.291 2.835.9 5.781 1.116 8.696 2.094 28.316-5.58 53.837-24.43 76.558m-38.58-24.632-4.131 11.866c16.925-8.094 35.657-36.868 33.104-50.54-12.547 10.985-21.876 23.45-28.972 38.674zM613.7 262.46c7.962 6.664 11.151 14.011 9.794 24.195-1.681 12.617.199 25.706-1.872 38.227-3.092 18.684-12.418 35.08-26.234 48.79-14.563 14.453-32.494 18.448-47.125 11.019-17.246-8.756-26.605-28.478-22.54-47.325 2.781-12.897 9.31-24.063 17.527-34.394 13.516-16.992 30.127-30.668 49.076-41.984 7.719-4.61 14.322-4.443 21.374 1.471m-23.236 43.054c-15.56 13.958-27.408 30.073-33.256 50.096 1.332.273 1.605.42 1.753.344.769-.393 1.55-.787 2.248-1.28 16.564-11.72 25.44-28.004 30.299-46.638.237-.912-.228-1.99-.071-2.922l.218-.103s-.407.112-1.191.503zM311.99 286.74c2.146-5.38 4.03-10.33 6.006-15.247 2.686-6.68 6.338-8.741 12.65-5.063 6.742 3.93 12.401 9.55 17.68 13.754 10.717-3.877 22.018-9.24 33.98-11.973 15.236-3.48 36.79 11.216 40.275 25.778 1.633 6.824-3.013 11.279-10.768 9.99-2.293-.381-5.13-1.216-6.47-2.803-6.164-7.297-12.33-4.029-18.426-.388C354 320.45 329.919 347.68 312.4 380.454c-5.442 10.18-11.488 11.475-21.178 4.296-10.738-7.956-12.846-14.876-8.041-26.803a30394.136 30394.136 0 0 1 28.809-71.208z"/></g><rect width="1204.1" height="443.63" fill="none" ry=".989" style="font-variation-settings:&quot;wght&quot;900"/></svg>