<svg version="1.1" id="Layer_1" xmlns="http://www.w3.org/2000/svg" xmlns:xlink="http://www.w3.org/1999/xlink" x="0px" y="0px"
	 width="100%" viewBox="0 0 560 334" enable-background="new 0 0 560 334" xml:space="preserve">
<path fill="#FDFBF5" opacity="1.000000" stroke="none" 
	d="
M321.000000,335.000000 
	C214.029755,335.000000 107.559517,335.000000 1.044638,335.000000 
	C1.044638,223.727554 1.044638,112.455078 1.044638,1.091303 
	C187.553589,1.091303 374.107239,1.091303 560.830444,1.091303 
	C560.830444,112.333130 560.830444,223.666534 560.830444,335.000000 
	C481.121704,335.000000 401.310852,335.000000 321.000000,335.000000 
M434.415375,31.112967 
	C432.346069,29.452122 430.440338,27.510822 428.173523,26.188572 
	C423.393982,23.400646 420.322083,24.267235 417.273468,28.870045 
	C379.531982,85.852455 347.878326,146.013000 323.458130,209.877151 
	C317.824280,224.610931 312.574158,239.605194 308.735382,254.878693 
	C305.108246,269.310272 309.898682,281.891754 322.238770,290.949280 
	C328.579468,295.603333 332.471619,295.168274 337.702454,289.492767 
	C358.592926,266.826294 382.094086,247.272507 408.010803,230.616089 
	C413.419128,227.140213 418.982971,223.906250 425.713684,219.806351 
	C424.877289,222.719589 424.490326,224.255692 423.996399,225.756622 
	C421.138092,234.442795 417.570007,242.962830 415.524231,251.834732 
	C411.466736,269.431000 421.710693,283.303040 438.506927,284.327515 
	C446.258972,284.800354 453.240143,282.350922 460.190460,279.523682 
	C485.757782,269.123596 508.382446,253.392014 532.128540,239.699036 
	C536.577759,237.133453 537.123718,232.508469 534.182617,227.998566 
	C530.757385,222.746399 525.735107,221.776764 519.896118,224.465332 
	C498.654968,234.245850 477.356049,243.904190 455.984802,253.396729 
	C451.241608,255.503540 446.114349,256.745697 440.108826,258.735535 
	C442.857361,250.962814 445.882385,244.573395 447.296173,237.845413 
	C448.950073,229.975052 450.378632,221.722733 449.794220,213.791656 
	C448.809448,200.427658 436.583588,190.288544 424.161316,192.235611 
	C418.137695,193.179764 412.187683,196.190567 406.796356,199.294159 
	C383.795624,212.534912 362.230560,227.849976 342.320801,245.444916 
	C341.179565,246.453491 339.946625,247.358231 338.532776,248.490341 
	C338.216492,247.431671 337.992035,247.097626 338.062714,246.846771 
	C338.423157,245.567932 338.820068,244.296097 339.275513,243.047821 
	C363.978973,175.336823 396.062286,111.335678 435.764923,51.167263 
	C441.452637,42.547691 441.361359,40.136753 434.415375,31.112967 
M197.768600,285.244293 
	C211.740158,267.564545 217.523682,247.405090 215.944977,225.038132 
	C215.782455,222.735458 214.884903,220.408295 215.104279,218.168488 
	C215.971069,209.318832 211.596100,201.165894 203.226181,198.255157 
	C200.652786,197.360245 196.852295,197.707657 194.437164,199.011505 
	C177.609116,208.096436 163.524704,220.521896 152.893784,236.407593 
	C148.604263,242.817398 145.047684,250.026993 142.710693,257.367096 
	C138.396820,270.916412 141.948563,283.009613 152.281143,292.919769 
	C160.914276,301.199951 172.108276,303.258331 182.536591,297.452148 
	C187.947083,294.439728 192.410431,289.726166 197.768600,285.244293 
M286.492859,200.924637 
	C281.458435,196.482376 276.482513,196.350327 270.665588,199.991699 
	C256.386597,208.930283 243.868958,219.732819 233.683334,233.155441 
	C227.491043,241.315659 222.571442,250.135849 220.475342,260.323608 
	C217.412231,275.211578 224.464905,290.789948 237.460831,297.706604 
	C248.486374,303.574585 261.998993,300.419067 272.973267,289.002533 
	C283.383972,278.172272 290.412842,265.221405 292.742249,250.462296 
	C294.303314,240.571381 292.886566,230.232727 294.153198,220.266098 
	C295.175629,212.221054 292.772797,206.417679 286.492859,200.924637 
M59.245823,220.679245 
	C52.062984,239.310684 44.866947,257.937042 37.702831,276.575684 
	C34.081505,285.997131 35.670460,291.463623 43.762093,297.748047 
	C51.064472,303.419495 55.620899,302.396698 59.721565,294.354950 
	C72.923050,268.465576 91.070427,246.956497 115.875717,231.425308 
	C120.469521,228.549042 125.116257,225.967606 129.761856,231.731781 
	C130.771713,232.984787 132.909042,233.644638 134.637177,233.945709 
	C140.481354,234.963898 143.982483,231.445099 142.751770,226.054291 
	C140.125626,214.551270 123.882477,202.942398 112.401184,205.691650 
	C103.387016,207.850128 94.870438,212.086609 86.794533,215.149017 
	C82.816727,211.828979 78.551888,207.388779 73.470833,204.284622 
	C68.714920,201.379120 65.962860,203.007828 63.938667,208.284134 
	C62.448898,212.167389 61.029732,216.077728 59.245823,220.679245 
z"/>
<path fill="#FE4603" opacity="1.000000" stroke="none" 
	d="
M434.663879,31.373833 
	C441.361359,40.136753 441.452637,42.547691 435.764923,51.167263 
	C396.062286,111.335678 363.978973,175.336823 339.275513,243.047821 
	C338.820068,244.296097 338.423157,245.567932 338.062714,246.846771 
	C337.992035,247.097626 338.216492,247.431671 338.532776,248.490341 
	C339.946625,247.358231 341.179565,246.453491 342.320801,245.444916 
	C362.230560,227.849976 383.795624,212.534912 406.796356,199.294159 
	C412.187683,196.190567 418.137695,193.179764 424.161316,192.235611 
	C436.583588,190.288544 448.809448,200.427658 449.794220,213.791656 
	C450.378632,221.722733 448.950073,229.975052 447.296173,237.845413 
	C445.882385,244.573395 442.857361,250.962814 440.108826,258.735535 
	C446.114349,256.745697 451.241608,255.503540 455.984802,253.396729 
	C477.356049,243.904190 498.654968,234.245850 519.896118,224.465332 
	C525.735107,221.776764 530.757385,222.746399 534.182617,227.998566 
	C537.123718,232.508469 536.577759,237.133453 532.128540,239.699036 
	C508.382446,253.392014 485.757782,269.123596 460.190460,279.523682 
	C453.240143,282.350922 446.258972,284.800354 438.506927,284.327515 
	C421.710693,283.303040 411.466736,269.431000 415.524231,251.834732 
	C417.570007,242.962830 421.138092,234.442795 423.996399,225.756622 
	C424.490326,224.255692 424.877289,222.719589 425.713684,219.806351 
	C418.982971,223.906250 413.419128,227.140213 408.010803,230.616089 
	C382.094086,247.272507 358.592926,266.826294 337.702454,289.492767 
	C332.471619,295.168274 328.579468,295.603333 322.238770,290.949280 
	C309.898682,281.891754 305.108246,269.310272 308.735382,254.878693 
	C312.574158,239.605194 317.824280,224.610931 323.458130,209.877151 
	C347.878326,146.013000 379.531982,85.852455 417.273468,28.870045 
	C420.322083,24.267235 423.393982,23.400646 428.173523,26.188572 
	C430.440338,27.510822 432.346069,29.452122 434.663879,31.373833 
z"/>
<path fill="#FE4604" opacity="1.000000" stroke="none" 
	d="
M197.535126,285.512695 
	C192.410431,289.726166 187.947083,294.439728 182.536591,297.452148 
	C172.108276,303.258331 160.914276,301.199951 152.281143,292.919769 
	C141.948563,283.009613 138.396820,270.916412 142.710693,257.367096 
	C145.047684,250.026993 148.604263,242.817398 152.893784,236.407593 
	C163.524704,220.521896 177.609116,208.096436 194.437164,199.011505 
	C196.852295,197.707657 200.652786,197.360245 203.226181,198.255157 
	C211.596100,201.165894 215.971069,209.318832 215.104279,218.168488 
	C214.884903,220.408295 215.782455,222.735458 215.944977,225.038132 
	C217.523682,247.405090 211.740158,267.564545 197.535126,285.512695 
M168.462967,266.055420 
	C167.510925,268.921356 166.558868,271.787292 165.349182,275.428833 
	C178.103256,269.034760 192.219421,246.306473 190.295410,235.505997 
	C180.840073,244.183411 173.810532,254.028992 168.462967,266.055420 
z"/>
<path fill="#FE4604" opacity="1.000000" stroke="none" 
	d="
M286.772827,201.153763 
	C292.772797,206.417679 295.175629,212.221054 294.153198,220.266098 
	C292.886566,230.232727 294.303314,240.571381 292.742249,250.462296 
	C290.412842,265.221405 283.383972,278.172272 272.973267,289.002533 
	C261.998993,300.419067 248.486374,303.574585 237.460831,297.706604 
	C224.464905,290.789948 217.412231,275.211578 220.475342,260.323608 
	C222.571442,250.135849 227.491043,241.315659 233.683334,233.155441 
	C243.868958,219.732819 256.386597,208.930283 270.665588,199.991699 
	C276.482513,196.350327 281.458435,196.482376 286.772827,201.153763 
M269.263000,235.162903 
	C257.537537,246.188477 248.608582,258.917816 244.201950,274.734406 
	C245.205887,274.950104 245.411606,275.066040 245.523193,275.006226 
	C246.102631,274.695770 246.690765,274.384552 247.217010,273.994263 
	C259.699615,264.737122 266.388794,251.874069 270.049622,237.154877 
	C270.228699,236.434784 269.878326,235.583008 269.996246,234.846359 
	C269.996246,234.846359 270.161194,234.765244 270.161194,234.765244 
	C270.161194,234.765244 269.854370,234.853821 269.263000,235.162903 
z"/>
<path fill="#FE4604" opacity="1.000000" stroke="none" 
	d="
M59.412464,220.327621 
	C61.029732,216.077728 62.448898,212.167389 63.938667,208.284134 
	C65.962860,203.007828 68.714920,201.379120 73.470833,204.284622 
	C78.551888,207.388779 82.816727,211.828979 86.794533,215.149017 
	C94.870438,212.086609 103.387016,207.850128 112.401184,205.691650 
	C123.882477,202.942398 140.125626,214.551270 142.751770,226.054291 
	C143.982483,231.445099 140.481354,234.963898 134.637177,233.945709 
	C132.909042,233.644638 130.771713,232.984787 129.761856,231.731781 
	C125.116257,225.967606 120.469521,228.549042 115.875717,231.425308 
	C91.070427,246.956497 72.923050,268.465576 59.721565,294.354950 
	C55.620899,302.396698 51.064472,303.419495 43.762093,297.748047 
	C35.670460,291.463623 34.081505,285.997131 37.702831,276.575684 
	C44.866947,257.937042 52.062984,239.310684 59.412464,220.327621 
z"/>
<path fill="#FDF3EB" opacity="1.000000" stroke="none" 
	d="
M168.629349,265.712860 
	C173.810532,254.028992 180.840073,244.183411 190.295410,235.505997 
	C192.219421,246.306473 178.103256,269.034760 165.349182,275.428833 
	C166.558868,271.787292 167.510925,268.921356 168.629349,265.712860 
z"/>
<path fill="#FDF3EA" opacity="1.000000" stroke="none" 
	d="
M269.774536,234.792557 
	C269.878326,235.583008 270.228699,236.434784 270.049622,237.154877 
	C266.388794,251.874069 259.699615,264.737122 247.217010,273.994263 
	C246.690765,274.384552 246.102631,274.695770 245.523193,275.006226 
	C245.411606,275.066040 245.205887,274.950104 244.201950,274.734406 
	C248.608582,258.917816 257.537537,246.188477 269.537292,234.994888 
	C269.811615,234.826874 269.774536,234.792557 269.774536,234.792557 
z"/>
<path fill="#FDF3EA" opacity="1.000000" stroke="none" 
	d="
M269.833008,234.840347 
	C269.854370,234.853821 270.161194,234.765244 270.161194,234.765244 
	C270.161194,234.765244 269.996246,234.846359 269.885376,234.819458 
	C269.774536,234.792557 269.811615,234.826874 269.833008,234.840347 
z"/>
</svg>