<svg viewBox="0 0 655 137" xmlns="http://www.w3.org/2000/svg">
  <g fill="#FF8300">
    <path d="M162 137v-18h-4c-4.956-.15-8.51-3.771-9-8V25c.51-4.397 4.143-8.068 9-8h4V0h-55v17h4c4.926.052 8.602 3.718 9 8v86c-.393 4.192-3.932 7.753-8 8h-5v18h55M590 0h-44v17h4c4.883.502 8.376 4.426 8 9v85c.32 4.37-3.311 8.004-8 8h-4v18h46v-18h-4c-4.853-.195-8.447-3.545-9-8V49l34 88h29V25c.766-4.702 4.671-8.292 9-8h4V0h-46v17h5c4.374-.14 8.031 3.393 8 8v55L590 0M437 119c-4.802.118-5.383-1.406-9-7-.444.226-30.072-41.56-35-49 3.296-4.275 30.06-43.16 30-43 1.224-2.2 3.442-3.409 6-3h5V0h-46v17h2c1.704-.207 2.888.297 4 1 1.135 2.095-1.657 5.867-2 7l-23 33V25c-.28-4.483 3.311-8.059 8-8h4V0h-56v17h5c4.002.07 7.479 3.625 8 8v86c-.58 4.285-4.212 7.919-9 8h-4v18h56v-18h-4c-4.502.05-8.344-3.618-9-8V73c2.548 2.773 27.208 39.625 27 40 3.363 6.082-1.279 6.082-3 6h-3v18h49v-18h-1M445 137h92v-35h-15v9c-.655 4.302-4.291 7.847-9 8h-25V73h10c4.656.806 8.124 4.261 9 9v5h15V44h-15v6c-.173 1.697-.987 3.79-3 5-1.021 1.87-3.108 2.718-5 3h-11V17h24c4.229-.13 7.881 3.447 8 8v9h15V0h-90v17h4c4.869-.058 8.486 3.344 9 8v86c-.716 4.363-4.256 7.74-9 8h-4v18M76 137v-18h-6c-1.792.135-3.93-.75-5-2-2.07-1.901-2.943-4.035-3-6V17h12c4.822-.333 8.599 3.422 9 8v12h13V0H0v37h13V25c.438-2.14 1.331-4.28 3-6 1.511-1.427 3.666-2.307 6-2h12v94c.016 2.011-.867 4.152-2 6-2.042 1.295-4.2 2.165-6 2h-6v18h56M188 25c-.371-4.479-4.01-8.11-9-8h-4V0h44l24 82 25-82h44v17h-4c-4.718.029-8.378 3.65-9 8v86c.578 4.52 4.202 8.041 9 8h4v18h-50v-18h2c2.213-.007 4.062-.98 5-3 1.61-1.084 2.203-3.084 2-5V50l-26 87h-12l-25-87v61c-.408 1.956.203 3.951 1 5 1.777 2.039 3.631 3.001 6 3h2v18h-42v-18h4c4.84.005 8.515-3.583 9-8V25"></path>
  </g>
</svg>
