<svg version="1.1" viewBox="0 0 77.603 71.11" xml:space="preserve" xmlns="http://www.w3.org/2000/svg"><g transform="matrix(1.3333 0 0 -1.3333 -629.2 677.05)"><g transform="translate(390.15)"><g><g transform="matrix(1.0337 0 0 1.0337 -15.116 -83.066)"><path d="m136.78 563.3c0.16979-0.60919 0.3397-1.2192 0.50949-1.8284 0.50114-0.20478 1.0002-0.41023 1.5014-0.61501-0.67094 0.81396-1.3399 1.6295-2.0108 2.4434zm-0.19445-0.0136c-0.42088-0.59272-0.84032-1.1835-1.2602-1.7742-0.97639-0.30353-1.9282-0.67775-2.8685-1.0778 0.20787-0.07 0.41468-0.14154 0.62254-0.21254-1.1391-0.75119-2.279-1.5034-3.4202-2.2535 0.4147-0.0185 0.82738-0.0378 1.2421-0.0542-0.97243-0.45587-1.4496-0.97929-1.7078-1.3868-0.45749-0.71614-0.92969-1.3767-1.2979-1.7139-0.62762-0.6236-1.4822-0.82594-2.2927-1.1064-1.0626-0.38893-1.8406-0.77981-2.5595-1.2315 0.22328 0.37275 0.54825 0.77763 1.0175 1.1381-0.61227 0.0206-1.5012 0.018-2.558-0.10552-4.6656-0.54436-7.8535-2.876-8.9432-3.693-2.6868-2.0169-4.3125-4.3318-5.2366-5.933 3.5517-0.18354 5.5617 2.0665 6.1546 2.8565 0.36418-0.15984 0.62559-0.37831 0.80041-0.56074 0.21201 1.583 0.79271 3.0352 1.4214 4.4874 0.5254-4.569-2.52-7.3888-3.4926-8.1639-0.0237-0.90864-0.0618-2.0269-0.12662-3.3132-0.0535-1.0404-0.0948-1.6088-0.50949-1.8918-0.1914-0.12966-0.3279-0.23501-1.5586-0.3482-1.6675-0.31309 4.5429-0.14169 5.5366-0.14169-0.40865 0.12414-0.77525 0.3209-1.0732 0.5954-0.57833 0.53202-0.76349 1.2124-0.817 1.4501-0.42136 1.8793 1.1925 3.191 1.524 3.3569 1.3619 0.49925 2.4102 1.5448 3.3343 2.6273 0.60404 0.75017 1.7212 1.0886 2.6093 1.6144 0.0957-0.14201 0.1907-0.28307 0.2864-0.42508-0.96523-1.1957-1.9324-2.3903-2.8987-3.586 0.016-1.5099 0.17813-3.2536 0.60596-5.1432-0.42655-0.21995-0.86064-0.38232-1.2873-0.48989 0.96599-0.0896 26.528 0.0506 19.502 0.15525-0.94465 2e-3 -2.3384 0.9785-2.4269 1.9129-0.15744 1.6135-0.30988 3.261-0.16581 4.8643 0.15024 1.6722 0.41415 3.3325 0.66626 4.9954 0.3242 1.1079 1.0426 3.3706 2.2324 5.9873 1.3909 0.26941 2.7956 0.49414 4.1814 0.77782 1.0035 0.34752 1.6074 1.6581 1.5631 1.8963-0.16224 0.87366-1.8631 0.84269-2.653 1.2798-0.68486 0.37348-0.51243 0.74776-0.716 1.0024-0.70311 0.87953-1.8955 1.1244-2.8776 1.6325-0.51229 1.8244-0.55353 1.9766-0.55317 1.9761zm-18.753-26.48h-2.2837c0.673-0.20445 1.4649-0.20645 2.2837 0zm21.569 21.982c-0.74061 0.60938-1.3986 0.64909-2.1028 0.11004 0.0453-0.2186 3.7994-0.31995 4.4422-1.4109 0.20683-0.3509 0.27318-0.87466 0.0437-1.1154-0.15436-0.16156-0.40101-0.15431-0.52758-0.15225-0.61022 0.0144-1.3898-4e-3 -2.4208-0.0512 7.7e-4 -0.0762 2e-3 -0.15448 3e-3 -0.23063 1.1988-0.0731 2.1118-0.12661 2.1118-0.12661-0.0144-0.0278-0.0293-0.0562-0.0437-0.0829l-3.2861-0.39296c-1.5621-1.1134-2.0265-3.1858-2.5866-4.9487-0.319-0.93745-0.86572-2.2405-1.8526-3.7398l0.22611 4.5899-2.6952-1.4441 5.5547 5.8079-1.5164-0.48537 1.9475 1.9219-1.9581-0.38891 1.2918 1.4426-1.7305-0.24118c1.7859 2.4712 4.7194 2.3624 5.0995 0.93857zm-11.559-11.414c1.9624-2.9821 2.3437-6.5382 3.2544-10.172-2.9605 0-5.7795 4e-3 -8.598-3e-3 -1.1721-2e-3 -2.7178 2.221-1.7938 3.5227 1.1906 1.6783 2.4086 3.3343 3.6825 4.9427 0.93614 0.53061 2.067 0.13975 3.072-0.0528 0.14818 0.67608 0.28101 1.2857 0.38288 1.7621zm4.7407-3.1504c0.49085-2.3061 0.98278-4.6099 1.4983-7.0394-2.6096 0.33547-2.8721 3.3112-1.4983 7.0394z" fill="currentColor"/><g transform="translate(134.48 530.44)" fill="#cd2027"><path d="m0 0c-1.372-0.14-2.518 1.002-2.383 2.375 0.1 1.014 0.92 1.835 1.934 1.935 1.369 0.136 2.511-1.003 2.379-2.372-0.099-1.014-0.917-1.835-1.93-1.938m-9.943 0c-1.371-0.14-2.518 1.002-2.382 2.375 0.1 1.014 0.919 1.835 1.933 1.935 1.37 0.136 2.512-1.003 2.379-2.372-0.098-1.014-0.916-1.835-1.93-1.938m-9.942 0c-1.372-0.14-2.518 1.002-2.383 2.375 0.1 1.014 0.92 1.835 1.934 1.935 1.369 0.136 2.511-1.003 2.378-2.372-0.098-1.014-0.916-1.835-1.929-1.938m6.713 7.202c-2.653-0.028-5.309 0.018-7.956-0.155-1.897-0.124-3.788-0.498-5.666-0.871-1.331-0.266-2.635-0.719-3.952-1.088-0.744-0.209-0.745-0.21-1.168 0.54-0.44254 0.76034-0.50133 1.4296-1.486 1.42-0.4814-0.00204-0.547-0.16592-0.547-0.16592s0.011-1.8971-5e-3 -2.6771c-1e-3 -0.126-0.087-0.326-0.172-0.359-0.758-0.302-1.525-0.575-2.311-0.864 0.031 0.58 0.073 1.087 0.079 1.594 4e-3 0.288-0.03 0.598-0.379 0.584-0.322-0.012-0.345-0.323-0.337-0.576 0.016-0.579 0.076-1.157 0.119-1.767-0.249-0.117-0.528-0.247-0.805-0.376 1e-3 -0.074 2e-3 -0.083 3e-3 -0.157 0.28-0.12 0.561-0.239 0.831-0.354-0.058-0.494-0.145-0.948-0.155-1.403-6e-3 -0.352-0.138-0.904 0.355-0.917 0.509-0.011 0.363 0.536 0.363 0.892 1e-3 0.4-0.052 0.802-0.088 1.271 0.681-0.251 1.322-0.532 1.983-0.715 0.443-0.123 0.553-0.372 0.532-0.877-0.036-0.845-0.01-1.693-0.01-2.478 1.1083-0.37711 1.5513 0.30829 1.972 1.2 0.518 0.938 0.516 0.928 1.442 0.617 3.838-1.29 7.768-1.929 11.744-1.97 7.588-0.079 15.177-8e-3 22.767-0.037 1.491-6e-3 2.922 0.263 4.315 0.854 1.359 0.576 2.687 1.237 3.695 2.535 0.657 0.846 0.717 1.855 0.115 2.754-1.0513 1.5218-2.7744 2.2551-4.431 2.933-1.303 0.533-2.625 0.648-3.979 0.622" fill="#cd2027"/></g></g></g></g></g></svg>
