<?xml version="1.0" encoding="UTF-8" standalone="no"?>
<!-- Created with Inkscape (http://www.inkscape.org/) -->

<svg
   version="1.1"
   id="svg2"
   xml:space="preserve"
   width="129.18494"
   height="100.51073"
   viewBox="0 0 129.18494 100.51072"
   sodipodi:docname="homepage-splash-logo.svg"
   inkscape:version="1.4 (e7c3feb100, 2024-10-09)"
   xmlns:inkscape="http://www.inkscape.org/namespaces/inkscape"
   xmlns:sodipodi="http://sodipodi.sourceforge.net/DTD/sodipodi-0.dtd"
   xmlns="http://www.w3.org/2000/svg"
   xmlns:svg="http://www.w3.org/2000/svg"><sodipodi:namedview
     id="namedview1"
     pagecolor="#808080"
     bordercolor="#000000"
     borderopacity="0.25"
     inkscape:showpageshadow="2"
     inkscape:pageopacity="0.0"
     inkscape:pagecheckerboard="0"
     inkscape:deskcolor="#d1d1d1"
     inkscape:zoom="8.894573"
     inkscape:cx="64.589947"
     inkscape:cy="75.776544"
     inkscape:window-width="1207"
     inkscape:window-height="738"
     inkscape:window-x="0"
     inkscape:window-y="0"
     inkscape:window-maximized="0"
     inkscape:current-layer="g164" /><defs
     id="defs6" /><g
     id="g8"
     transform="matrix(1.3333333,0,0,-1.3333333,-863.40754,668.51115)"
     style="display:inline"><g
       id="g165"
       transform="translate(585.1504)"
       style="fill:#ffffff;fill-opacity:1"><g
         id="g164"
         style="fill:#ffffff;fill-opacity:1"><text
           xml:space="preserve"
           style="stroke-width:1.88976;fill-opacity:1;fill:#ffffff;display:inline;text-anchor:middle;letter-spacing:0.8px;text-align:center;-inkscape-font-specification:'Univers LT Std Bold Condensed';font-family:var(--font-display);font-size:14.6667px;font-stretch:condensed;font-weight:bold;font-variant:normal;font-style:normal;"
           x="147.95348"
           y="485.19824"
           id="text143"
           transform="matrix(0.75000002,0,0,-0.75000002,0,792.00002)"><tspan
             id="tspan143"
             x="148.35347"
             y="485.19824"
             style="font-style:normal;font-variant:normal;font-weight:300;font-stretch:condensed;font-size:14.6667px;font-family:'Univers LT Std';-inkscape-font-specification:'Univers LT Std Light Condensed';letter-spacing:0.8px;fill:#ffffff;fill-opacity:1">AquaPack Robotics</tspan></text><g
           id="g146"
           transform="matrix(1.157547,0,0,1.157547,-30.209377,-150.66812)"
           style="fill:#ffffff;fill-opacity:1"><path
             id="path144"
             style="fill:#ffffff;fill-opacity:1;fill-rule:nonzero;stroke:none;stroke-width:1.02903"
             d="m 136.77832,563.30455 c 0.16979,-0.60919 0.3397,-1.21925 0.50949,-1.82844 0.50114,-0.20478 1.0002,-0.41023 1.50135,-0.61501 -0.67094,0.81396 -1.33991,1.62949 -2.01084,2.44345 z m -0.19445,-0.0136 c -0.42088,-0.59272 -0.84032,-1.1835 -1.26016,-1.77417 -0.97639,-0.30353 -1.92824,-0.67775 -2.86853,-1.07779 0.20787,-0.07 0.41468,-0.14154 0.62254,-0.21254 -1.13914,-0.75119 -2.27902,-1.50335 -3.42022,-2.25352 0.4147,-0.0185 0.82738,-0.0378 1.24207,-0.0542 -0.97243,-0.45587 -1.44956,-0.97929 -1.70785,-1.38679 -0.45749,-0.71614 -0.92969,-1.37673 -1.29787,-1.71389 -0.62762,-0.6236 -1.48218,-0.82594 -2.29272,-1.10641 -1.06261,-0.38893 -1.84063,-0.77981 -2.55951,-1.23152 0.22328,0.37275 0.54825,0.77763 1.01747,1.13807 -0.61227,0.0206 -1.50119,0.018 -2.55801,-0.10552 -4.66563,-0.54436 -7.85348,-2.87601 -8.94323,-3.69305 -2.6868,-2.01691 -4.31253,-4.33185 -5.2366,-5.93302 3.55174,-0.18354 5.56174,2.06651 6.1546,2.85647 0.36418,-0.15984 0.62559,-0.37831 0.80041,-0.56074 0.21201,1.58297 0.79271,3.03518 1.42145,4.48744 0.5254,-4.56898 -2.51999,-7.38879 -3.49258,-8.16392 -0.0237,-0.90864 -0.0618,-2.02691 -0.12662,-3.3132 -0.0535,-1.04035 -0.0948,-1.60877 -0.50949,-1.89175 -0.1914,-0.12966 -0.3279,-0.23501 -1.55862,-0.3482 -1.66754,-0.31309 4.54287,-0.14169 5.53657,-0.14169 -0.40865,0.12414 -0.77525,0.3209 -1.07324,0.5954 -0.57833,0.53202 -0.76349,1.21239 -0.817,1.4501 -0.42136,1.87928 1.1925,3.19097 1.52395,3.35691 1.36193,0.49925 2.41022,1.54485 3.3343,2.62734 0.60404,0.75017 1.72121,1.08857 2.60926,1.6144 0.0957,-0.14201 0.1907,-0.28307 0.2864,-0.42508 -0.96523,-1.19573 -1.93241,-2.3903 -2.89867,-3.58603 0.016,-1.50988 0.17813,-3.25358 0.60596,-5.14315 -0.42655,-0.21995 -0.86064,-0.38232 -1.2873,-0.48989 0.96599,-0.0896 26.52842,0.0506 19.50237,0.15525 -0.94465,0.002 -2.33837,0.9785 -2.42687,1.91286 -0.15744,1.61352 -0.30988,3.26105 -0.16581,4.86428 0.15024,1.67218 0.41415,3.33251 0.66626,4.99543 0.3242,1.10793 1.04255,3.37056 2.23241,5.98728 1.39087,0.26941 2.79561,0.49414 4.18145,0.77782 1.0035,0.34752 1.60738,1.65806 1.56314,1.89627 -0.16224,0.87366 -1.86312,0.84269 -2.65297,1.27975 -0.68486,0.37348 -0.51243,0.74776 -0.716,1.00241 -0.70311,0.87953 -1.89551,1.12438 -2.87757,1.63248 -0.51229,1.82438 -0.55353,1.97656 -0.55317,1.97611 z m -18.7532,-26.47997 H 115.547 c 0.673,-0.20445 1.46492,-0.20645 2.28367,0 z m 21.56897,21.98199 c -0.74061,0.60938 -1.39861,0.64909 -2.10279,0.11004 0.0453,-0.2186 3.79941,-0.31995 4.44223,-1.4109 0.20683,-0.3509 0.27318,-0.87466 0.0437,-1.11545 -0.15436,-0.16156 -0.40101,-0.15431 -0.52758,-0.15225 -0.61022,0.0144 -1.38975,-0.004 -2.42084,-0.0512 7.7e-4,-0.0762 0.002,-0.15448 0.003,-0.23063 1.19882,-0.0731 2.11182,-0.12661 2.11182,-0.12661 -0.0144,-0.0278 -0.0293,-0.0562 -0.0437,-0.0829 l -3.28608,-0.39296 c -1.5621,-1.11343 -2.02651,-3.18581 -2.58665,-4.9487 -0.319,-0.93745 -0.86572,-2.24049 -1.85256,-3.73979 l 0.22611,4.58994 -2.69518,-1.44406 5.55466,5.8079 -1.51642,-0.48537 1.94753,1.9219 -1.95808,-0.38891 1.29182,1.44256 -1.73046,-0.24118 c 1.78588,2.47124 4.7194,2.36243 5.09947,0.93857 z m -11.55852,-11.41382 c 1.96236,-2.98213 2.34372,-6.53822 3.25441,-10.17174 -2.96052,0 -5.77952,0.004 -8.59804,-0.003 -1.17207,-0.002 -2.71784,2.221 -1.79377,3.52273 1.19059,1.67834 2.40856,3.33428 3.68251,4.94266 0.93614,0.53061 2.06704,0.13975 3.07201,-0.0528 0.14818,0.67608 0.28101,1.28568 0.38288,1.76212 z m 4.74068,-3.1504 c 0.49085,-2.30606 0.98278,-4.60988 1.49832,-7.03943 -2.60962,0.33547 -2.87208,3.31125 -1.49832,7.03943 z" /><g
             id="g145"
             transform="translate(134.47782,530.4363)"
             style="fill:#ffffff;fill-opacity:1"><path
               d="m 0,0 c -1.372,-0.14 -2.518,1.002 -2.383,2.375 0.1,1.014 0.92,1.835 1.934,1.935 C 0.92,4.446 2.062,3.307 1.93,1.938 1.831,0.924 1.013,0.103 0,0 m -9.943,0 c -1.371,-0.14 -2.518,1.002 -2.382,2.375 0.1,1.014 0.919,1.835 1.933,1.935 1.37,0.136 2.512,-1.003 2.379,-2.372 C -8.111,0.924 -8.929,0.103 -9.943,0 m -9.942,0 c -1.372,-0.14 -2.518,1.002 -2.383,2.375 0.1,1.014 0.92,1.835 1.934,1.935 1.369,0.136 2.511,-1.003 2.378,-2.372 C -18.054,0.924 -18.872,0.103 -19.885,0 m 6.713,7.202 c -2.653,-0.028 -5.309,0.018 -7.956,-0.155 -1.897,-0.124 -3.788,-0.498 -5.666,-0.871 -1.331,-0.266 -2.635,-0.719 -3.952,-1.088 -0.744,-0.209 -0.745,-0.21 -1.168,0.54 -0.442543,0.7603355 -0.501326,1.4296226 -1.486,1.42 -0.481395,-0.00204 -0.547,-0.1659173 -0.547,-0.1659173 0,0 0.011,-1.8970829 -0.005,-2.6770829 -0.001,-0.126 -0.087,-0.326 -0.172,-0.359 -0.758,-0.302 -1.525,-0.575 -2.311,-0.864 0.031,0.58 0.073,1.087 0.079,1.594 0.004,0.288 -0.03,0.598 -0.379,0.584 -0.322,-0.012 -0.345,-0.323 -0.337,-0.576 0.016,-0.579 0.076,-1.157 0.119,-1.767 -0.249,-0.117 -0.528,-0.247 -0.805,-0.376 0.001,-0.074 0.002,-0.083 0.003,-0.157 0.28,-0.12 0.561,-0.239 0.831,-0.354 -0.058,-0.494 -0.145,-0.948 -0.155,-1.403 -0.006,-0.352 -0.138,-0.904 0.355,-0.917 0.509,-0.011 0.363,0.536 0.363,0.892 10e-4,0.4 -0.052,0.802 -0.088,1.271 0.681,-0.251 1.322,-0.532 1.983,-0.715 0.443,-0.123 0.553,-0.372 0.532,-0.877 -0.036,-0.845 -0.01,-1.693 -0.01,-2.478 1.108305,-0.3771149 1.551253,0.3082898 1.972,1.2 0.518,0.938 0.516,0.928 1.442,0.617 3.838,-1.29 7.768,-1.929 11.744,-1.97 7.588,-0.079 15.177,-0.008 22.767,-0.037 1.491,-0.006 2.922,0.263 4.315,0.854 1.359,0.576 2.687,1.237 3.695,2.535 0.657,0.846 0.717,1.855 0.115,2.754 -1.05131,1.5218165 -2.7743632,2.2551237 -4.431,2.933 C 6.372,7.122 5.05,7.237 3.696,7.211"
               style="fill:#ffffff;fill-opacity:1;fill-rule:nonzero;stroke:none"
               id="path145" /></g></g><g
           id="g163"
           transform="translate(-6.330032,-67.725065)"
           style="fill:#ffffff;fill-opacity:1"><g
             id="g147"
             transform="translate(68.7353,512.1807)"
             style="fill:#ffffff;fill-opacity:1"><path
               d="M 0,0 V 7.738 H 2.185 L 4.244,2.38 h 0.021 v 5.358 h 1.51 V 0 H 3.644 L 1.531,5.658 H 1.511 V 0 Z"
               style="fill:#ffffff;fill-opacity:1;fill-rule:nonzero;stroke:none"
               id="path146" /></g><g
             id="g148"
             transform="translate(75.7997,516.0486)"
             style="fill:#ffffff;fill-opacity:1"><path
               d="m 0,0 c 0,2.048 0,3.998 2.669,3.998 1.651,0 2.316,-0.911 2.252,-2.572 H 3.334 c 0,1.028 -0.182,1.416 -0.665,1.416 -0.91,0 -1.031,-0.859 -1.031,-2.842 0,-1.982 0.121,-2.839 1.031,-2.839 0.749,0 0.719,0.963 0.741,1.575 H 5.006 C 5.006,-3.331 4.181,-3.997 2.669,-3.997 0,-3.997 0,-2.023 0,0"
               style="fill:#ffffff;fill-opacity:1;fill-rule:nonzero;stroke:none"
               id="path147" /></g><g
             id="g149"
             transform="translate(86.3148,512.0519)"
             style="fill:#ffffff;fill-opacity:1"><path
               d="m 0,0 c -2.004,0 -2.379,1.182 -2.295,2.518 h 1.621 c 0,-0.739 0.03,-1.361 0.92,-1.361 0.548,0 0.813,0.355 0.813,0.879 0,1.396 -3.257,1.48 -3.257,3.784 0,1.21 0.579,2.174 2.552,2.174 1.575,0 2.356,-0.705 2.251,-2.325 H 1.029 c 0,0.58 -0.098,1.169 -0.751,1.169 -0.524,0 -0.835,-0.29 -0.835,-0.825 C -0.557,4.543 2.7,4.673 2.7,2.241 2.7,0.237 1.23,0 0,0"
               style="fill:#ffffff;fill-opacity:1;fill-rule:nonzero;stroke:none"
               id="path148" /></g><g
             id="g150"
             transform="translate(94.7816,519.919)"
             style="fill:#ffffff;fill-opacity:1"><path
               d="m 0,0 v -1.287 h -1.799 v -6.451 h -1.619 v 6.451 H -5.219 V 0 Z"
               style="fill:#ffffff;fill-opacity:1;fill-rule:nonzero;stroke:none"
               id="path149" /></g><g
             id="g151"
             transform="translate(97.4165,518.4279)"
             style="fill:#ffffff;fill-opacity:1"><path
               d="m 0,0 h -0.022 l -0.739,-3.344 h 1.543 z m -3.117,-6.247 2.14,7.738 h 2.134 l 2.1,-7.738 H 1.553 l -0.428,1.716 h -2.209 l -0.438,-1.716 z"
               style="fill:#ffffff;fill-opacity:1;fill-rule:nonzero;stroke:none"
               id="path150" /></g><g
             id="g152"
             transform="translate(105.3943,519.919)"
             style="fill:#ffffff;fill-opacity:1"><path
               d="m 0,0 v -1.287 h -1.803 v -6.451 h -1.619 v 6.451 H -5.221 V 0 Z"
               style="fill:#ffffff;fill-opacity:1;fill-rule:nonzero;stroke:none"
               id="path151" /></g><g
             id="g153"
             transform="translate(106.1456,512.1807)"
             style="fill:#ffffff;fill-opacity:1"><path
               d="M 0,0 V 7.738 H 4.221 V 6.548 H 1.618 V 4.639 h 2.4 V 3.451 h -2.4 V 1.19 h 2.69 V 0 Z"
               style="fill:#ffffff;fill-opacity:1;fill-rule:nonzero;stroke:none"
               id="path152" /></g><g
             id="g154"
             transform="translate(114.5938,515.0542)"
             style="fill:#ffffff;fill-opacity:1"><path
               d="m 0,0 c 0,-1.008 0,-2.445 1.575,-2.445 1.576,0 1.576,1.437 1.576,2.445 v 4.865 h 0.685 v -5.372 c 0,-1.992 -1.051,-2.517 -2.261,-2.517 -1.211,0 -2.261,0.525 -2.261,2.517 V 4.865 H 0 Z"
               style="fill:#ffffff;fill-opacity:1;fill-rule:nonzero;stroke:none"
               id="path153" /></g><g
             id="g155"
             transform="translate(120.4579,512.1807)"
             style="fill:#ffffff;fill-opacity:1"><path
               d="M 0,0 V 7.738 H 1.052 L 4.19,0.944 4.212,0.965 V 7.738 H 4.897 V 0 H 3.857 L 0.71,6.87 0.687,6.847 V 0 Z"
               style="fill:#ffffff;fill-opacity:1;fill-rule:nonzero;stroke:none"
               id="path154" /></g><path
             d="m 128.199,512.181 h -0.687 v 7.738 h 0.687 z"
             style="fill:#ffffff;fill-opacity:1;fill-rule:nonzero;stroke:none"
             id="path155" /><g
             id="g156"
             transform="translate(134.1143,519.919)"
             style="fill:#ffffff;fill-opacity:1"><path
               d="M 0,0 H 0.664 L -1.479,-7.738 H -2.334 L -4.491,0 h 0.73 l 1.835,-6.922 h 0.017 z"
               style="fill:#ffffff;fill-opacity:1;fill-rule:nonzero;stroke:none"
               id="path156" /></g><g
             id="g157"
             transform="translate(139.6789,519.919)"
             style="fill:#ffffff;fill-opacity:1"><path
               d="m 0,0 v -0.578 h -2.818 v -2.893 h 2.693 V -4.053 H -2.818 V -7.16 H 0.074 V -7.738 H -3.503 V 0 Z"
               style="fill:#ffffff;fill-opacity:1;fill-rule:nonzero;stroke:none"
               id="path157" /></g><g
             id="g158"
             transform="translate(142.0268,516.5117)"
             style="fill:#ffffff;fill-opacity:1"><path
               d="m 0,0 h 1.116 c 1.029,0 1.509,0.266 1.509,1.564 0,1.06 -0.418,1.265 -1.22,1.265 L 0,2.829 Z m 0,-0.579 v -3.752 h -0.683 v 7.738 h 2.131 c 1.491,0 1.864,-0.493 1.864,-1.853 0,-0.967 -0.162,-1.609 -1.2,-1.845 v -0.021 c 1.083,-0.224 1.147,-0.353 1.147,-3.119 0,-0.299 0.053,-0.597 0.073,-0.9 h -0.65 c -0.067,0.226 -0.098,1.513 -0.11,1.927 -0.009,0.335 0.215,1.825 -1.272,1.825 z"
               style="fill:#ffffff;fill-opacity:1;fill-rule:nonzero;stroke:none"
               id="path158" /></g><g
             id="g159"
             transform="translate(150.4974,517.9579)"
             style="fill:#ffffff;fill-opacity:1"><path
               d="m 0,0 c -0.019,0.952 -0.258,1.532 -1.31,1.532 -0.833,0 -1.36,-0.29 -1.36,-1.2 0,-1.148 0.58,-1.178 1.46,-1.813 0.952,-0.683 1.926,-0.888 1.926,-2.389 0,-1.382 -0.704,-2.057 -2.055,-2.057 -1.51,0 -2.188,0.816 -2.125,2.327 h 0.712 c 0,-0.858 0.063,-1.749 1.442,-1.749 0.902,0 1.341,0.483 1.341,1.374 0,1.05 -0.697,1.348 -1.811,2.033 -1.497,0.924 -1.563,1.383 -1.575,2.156 -0.01,1.339 0.837,1.896 2.1,1.896 1.608,0 1.952,-0.996 1.952,-2.11 z"
               style="fill:#ffffff;fill-opacity:1;fill-rule:nonzero;stroke:none"
               id="path159" /></g><path
             d="m 153.831,512.181 h -0.685 v 7.738 h 0.685 z"
             style="fill:#ffffff;fill-opacity:1;fill-rule:nonzero;stroke:none"
             id="path160" /><g
             id="g161"
             transform="translate(157.1959,519.3408)"
             style="fill:#ffffff;fill-opacity:1"><path
               d="M 0,0 H -1.883 V 0.578 H 2.574 V 0 H 0.689 V -7.16 H 0 Z"
               style="fill:#ffffff;fill-opacity:1;fill-rule:nonzero;stroke:none"
               id="path161" /></g><g
             id="g162"
             transform="translate(162.731,515.3958)"
             style="fill:#ffffff;fill-opacity:1"><path
               d="m 0,0 -2.188,4.523 h 0.773 L 0.353,0.675 2.207,4.523 H 2.893 L 0.687,0 V -3.215 H 0 Z"
               style="fill:#ffffff;fill-opacity:1;fill-rule:nonzero;stroke:none"
               id="path162" /></g></g></g></g></g></svg>
