<svg version="1.1" viewBox="0 0 129.18 100.51" xml:space="preserve" xmlns="http://www.w3.org/2000/svg"><g transform="matrix(1.3333 0 0 -1.3333 -863.41 668.51)"><g transform="translate(585.15)" fill="#fff"><g fill="#fff"><path transform="matrix(.75 0 0 -.75 0 792)" d="m86.771 485.2h1.812l0.864-2.196h3.468l0.852 2.196h1.884l-3.42-8.4h-2.004zm3.216-3.6 1.2-3.096 1.2 3.096zm11.36 6.048h1.644v-8.7h-1.62v0.42c-0.504-0.324-1.092-0.504-1.728-0.504-1.812 0-3.228 1.404-3.228 3.204s1.404 3.216 3.18 3.216c0.648 0 1.248-0.192 1.752-0.576zm-1.488-3.768c-1.032 0-1.824-0.792-1.824-1.812 0-1.032 0.792-1.812 1.824-1.812 0.588 0 1.128 0.216 1.488 0.588v2.436c-0.372 0.396-0.888 0.6-1.488 0.6zm7.652 1.44c0.696 0 1.296-0.216 1.764-0.624v0.504h1.644v-6.252h-1.644v4.332c-0.3 0.396-0.732 0.624-1.296 0.624-0.78 0-1.296-0.516-1.296-1.32v-3.636h-1.644v3.876c0 1.476 1.02 2.496 2.472 2.496zm7.484-0.012c0.696 0 1.284-0.168 1.8-0.552v0.444h1.62v-4.056c0-1.476-0.972-2.316-2.664-2.316-0.912 0-1.8 0.216-2.784 0.672l0.6 1.212c0.792-0.36 1.38-0.516 1.908-0.516 0.876 0 1.32 0.372 1.32 1.092v0.456c-0.48-0.168-0.996-0.252-1.536-0.252-1.596 0-2.544 0.708-2.544 1.896 0 1.14 0.924 1.92 2.28 1.92zm-0.72-1.956c0-0.48 0.444-0.78 1.2-0.78 0.48 0 0.912 0.072 1.32 0.24v0.912c-0.372 0.276-0.84 0.408-1.38 0.408-0.696 0-1.14-0.3-1.14-0.78zm6.296 1.848h1.74v-3.168h2.472c1.632 0 2.82-1.092 2.82-2.592 0-1.548-1.164-2.64-2.82-2.64h-4.212zm1.74-4.608v-2.292h2.28c0.756 0 1.248 0.456 1.248 1.152 0 0.684-0.492 1.14-1.248 1.14zm8.888 4.716c0.696 0 1.284-0.168 1.8-0.552v0.444h1.62v-4.056c0-1.476-0.972-2.316-2.664-2.316-0.912 0-1.8 0.216-2.784 0.672l0.6 1.212c0.792-0.36 1.38-0.516 1.908-0.516 0.876 0 1.32 0.372 1.32 1.092v0.456c-0.48-0.168-0.996-0.252-1.536-0.252-1.596 0-2.544 0.708-2.544 1.896 0 1.14 0.924 1.92 2.28 1.92zm-0.72-1.956c0-0.48 0.444-0.78 1.2-0.78 0.48 0 0.912 0.072 1.32 0.24v0.912c-0.372 0.276-0.84 0.408-1.38 0.408-0.696 0-1.14-0.3-1.14-0.78zm9.176 1.968c0.96 0 1.896-0.408 2.544-1.104l-0.984-1.032c-0.444 0.48-0.924 0.696-1.488 0.696-0.972 0-1.716-0.768-1.716-1.8s0.732-1.824 1.68-1.824c0.588 0 1.092 0.252 1.548 0.756l1.008-1.068c-0.648-0.708-1.596-1.116-2.592-1.116-1.848 0-3.276 1.428-3.276 3.252s1.428 3.24 3.276 3.24zm4.196-0.12h1.644v-2.856l2.64 2.856h2.1l-3.132-3.384 2.952-2.868h-1.86l-2.7 2.628v-5.052l-1.644 0.276zm10.936 0h1.74v-3.216h1.896l1.644 3.216h1.944l-1.86-3.468c0.996-0.396 1.644-1.26 1.644-2.328 0-1.536-1.2-2.604-2.904-2.604h-4.104zm1.74-4.644v-2.256h2.208c0.78 0 1.296 0.456 1.296 1.128 0 0.684-0.516 1.128-1.296 1.128zm9.788 4.764c1.872 0 3.336-1.416 3.336-3.24s-1.464-3.252-3.336-3.252-3.336 1.428-3.336 3.252 1.464 3.24 3.336 3.24zm0-1.428c-0.972 0-1.728-0.792-1.728-1.812s0.768-1.824 1.728-1.824c0.972 0 1.74 0.804 1.74 1.824s-0.768 1.812-1.74 1.812zm5.144 1.308h1.62v-0.432c0.492 0.336 1.092 0.516 1.728 0.516 1.812 0 3.228-1.404 3.228-3.204s-1.404-3.216-3.18-3.216c-0.66 0-1.26 0.192-1.752 0.588v-2.928l-1.644 0.276zm3.132-1.308c-0.588 0-1.128-0.216-1.488-0.588v-2.436c0.36-0.396 0.888-0.6 1.488-0.6 1.02 0 1.824 0.78 1.824 1.812s-0.792 1.812-1.824 1.812zm8.3 1.428c1.872 0 3.336-1.416 3.336-3.24s-1.464-3.252-3.336-3.252-3.336 1.428-3.336 3.252 1.464 3.24 3.336 3.24zm0-1.428c-0.972 0-1.728-0.792-1.728-1.812s0.768-1.824 1.728-1.824c0.972 0 1.74 0.804 1.74 1.824s-0.768 1.812-1.74 1.812zm7.856 1.404c0.36 0 0.924-0.072 1.272-0.18v-1.356c-0.324 0.108-0.564 0.144-0.876 0.144-0.636 0-0.864-0.216-0.864-0.804v-2.784h1.788v-1.368h-1.788v-1.968l-1.644 0.372v1.596h-1.284v1.368h1.284v3.12c0 1.224 0.72 1.86 2.112 1.86zm3.74-7.092c0.516 0 0.936-0.432 0.936-0.936 0-0.516-0.42-0.936-0.936-0.936s-0.936 0.42-0.936 0.936c0 0.504 0.42 0.936 0.936 0.936zm-0.816 6.996h1.644v-6.252h-1.644zm6.716 0.12c0.96 0 1.896-0.408 2.544-1.104l-0.984-1.032c-0.444 0.48-0.924 0.696-1.488 0.696-0.972 0-1.716-0.768-1.716-1.8s0.732-1.824 1.68-1.824c0.588 0 1.092 0.252 1.548 0.756l1.008-1.068c-0.648-0.708-1.596-1.116-2.592-1.116-1.848 0-3.276 1.428-3.276 3.252s1.428 3.24 3.276 3.24zm6.596 0c1.572 0 2.736-0.876 2.736-2.064 0-0.972-0.684-1.608-1.908-1.788l-1.2-0.18c-0.612-0.084-0.852-0.252-0.852-0.6 0-0.36 0.396-0.612 0.984-0.612 0.636 0 1.248 0.192 1.932 0.612l0.792-1.068c-0.78-0.516-1.656-0.78-2.568-0.78-1.596 0-2.604 0.78-2.604 1.98 0 1.008 0.66 1.644 1.896 1.824l1.2 0.18c0.54 0.084 0.78 0.264 0.78 0.588 0 0.408-0.48 0.672-1.212 0.672-0.66 0-1.296-0.228-2.028-0.72l-0.816 1.092c0.708 0.564 1.728 0.864 2.868 0.864z" stroke-width="1.8898" aria-label="AquaPack Robotics"/><g transform="matrix(1.1575 0 0 1.1575 -30.209 -150.67)" fill="#fff"><path d="m136.78 563.3c0.16979-0.60919 0.3397-1.2192 0.50949-1.8284 0.50114-0.20478 1.0002-0.41023 1.5014-0.61501-0.67094 0.81396-1.3399 1.6295-2.0108 2.4434zm-0.19445-0.0136c-0.42088-0.59272-0.84032-1.1835-1.2602-1.7742-0.97639-0.30353-1.9282-0.67775-2.8685-1.0778 0.20787-0.07 0.41468-0.14154 0.62254-0.21254-1.1391-0.75119-2.279-1.5034-3.4202-2.2535 0.4147-0.0185 0.82738-0.0378 1.2421-0.0542-0.97243-0.45587-1.4496-0.97929-1.7078-1.3868-0.45749-0.71614-0.92969-1.3767-1.2979-1.7139-0.62762-0.6236-1.4822-0.82594-2.2927-1.1064-1.0626-0.38893-1.8406-0.77981-2.5595-1.2315 0.22328 0.37275 0.54825 0.77763 1.0175 1.1381-0.61227 0.0206-1.5012 0.018-2.558-0.10552-4.6656-0.54436-7.8535-2.876-8.9432-3.693-2.6868-2.0169-4.3125-4.3318-5.2366-5.933 3.5517-0.18354 5.5617 2.0665 6.1546 2.8565 0.36418-0.15984 0.62559-0.37831 0.80041-0.56074 0.21201 1.583 0.79271 3.0352 1.4214 4.4874 0.5254-4.569-2.52-7.3888-3.4926-8.1639-0.0237-0.90864-0.0618-2.0269-0.12662-3.3132-0.0535-1.0404-0.0948-1.6088-0.50949-1.8918-0.1914-0.12966-0.3279-0.23501-1.5586-0.3482-1.6675-0.31309 4.5429-0.14169 5.5366-0.14169-0.40865 0.12414-0.77525 0.3209-1.0732 0.5954-0.57833 0.53202-0.76349 1.2124-0.817 1.4501-0.42136 1.8793 1.1925 3.191 1.524 3.3569 1.3619 0.49925 2.4102 1.5448 3.3343 2.6273 0.60404 0.75017 1.7212 1.0886 2.6093 1.6144 0.0957-0.14201 0.1907-0.28307 0.2864-0.42508-0.96523-1.1957-1.9324-2.3903-2.8987-3.586 0.016-1.5099 0.17813-3.2536 0.60596-5.1432-0.42655-0.21995-0.86064-0.38232-1.2873-0.48989 0.96599-0.0896 26.528 0.0506 19.502 0.15525-0.94465 2e-3 -2.3384 0.9785-2.4269 1.9129-0.15744 1.6135-0.30988 3.261-0.16581 4.8643 0.15024 1.6722 0.41415 3.3325 0.66626 4.9954 0.3242 1.1079 1.0426 3.3706 2.2324 5.9873 1.3909 0.26941 2.7956 0.49414 4.1814 0.77782 1.0035 0.34752 1.6074 1.6581 1.5631 1.8963-0.16224 0.87366-1.8631 0.84269-2.653 1.2798-0.68486 0.37348-0.51243 0.74776-0.716 1.0024-0.70311 0.87953-1.8955 1.1244-2.8776 1.6325-0.51229 1.8244-0.55353 1.9766-0.55317 1.9761zm-18.753-26.48h-2.2837c0.673-0.20445 1.4649-0.20645 2.2837 0zm21.569 21.982c-0.74061 0.60938-1.3986 0.64909-2.1028 0.11004 0.0453-0.2186 3.7994-0.31995 4.4422-1.4109 0.20683-0.3509 0.27318-0.87466 0.0437-1.1154-0.15436-0.16156-0.40101-0.15431-0.52758-0.15225-0.61022 0.0144-1.3898-4e-3 -2.4208-0.0512 7.7e-4 -0.0762 2e-3 -0.15448 3e-3 -0.23063 1.1988-0.0731 2.1118-0.12661 2.1118-0.12661-0.0144-0.0278-0.0293-0.0562-0.0437-0.0829l-3.2861-0.39296c-1.5621-1.1134-2.0265-3.1858-2.5866-4.9487-0.319-0.93745-0.86572-2.2405-1.8526-3.7398l0.22611 4.5899-2.6952-1.4441 5.5547 5.8079-1.5164-0.48537 1.9475 1.9219-1.9581-0.38891 1.2918 1.4426-1.7305-0.24118c1.7859 2.4712 4.7194 2.3624 5.0995 0.93857zm-11.559-11.414c1.9624-2.9821 2.3437-6.5382 3.2544-10.172-2.9605 0-5.7795 4e-3 -8.598-3e-3 -1.1721-2e-3 -2.7178 2.221-1.7938 3.5227 1.1906 1.6783 2.4086 3.3343 3.6825 4.9427 0.93614 0.53061 2.067 0.13975 3.072-0.0528 0.14818 0.67608 0.28101 1.2857 0.38288 1.7621zm4.7407-3.1504c0.49085-2.3061 0.98278-4.6099 1.4983-7.0394-2.6096 0.33547-2.8721 3.3112-1.4983 7.0394z"/><g transform="translate(134.48 530.44)"><path d="m0 0c-1.372-0.14-2.518 1.002-2.383 2.375 0.1 1.014 0.92 1.835 1.934 1.935 1.369 0.136 2.511-1.003 2.379-2.372-0.099-1.014-0.917-1.835-1.93-1.938m-9.943 0c-1.371-0.14-2.518 1.002-2.382 2.375 0.1 1.014 0.919 1.835 1.933 1.935 1.37 0.136 2.512-1.003 2.379-2.372-0.098-1.014-0.916-1.835-1.93-1.938m-9.942 0c-1.372-0.14-2.518 1.002-2.383 2.375 0.1 1.014 0.92 1.835 1.934 1.935 1.369 0.136 2.511-1.003 2.378-2.372-0.098-1.014-0.916-1.835-1.929-1.938m6.713 7.202c-2.653-0.028-5.309 0.018-7.956-0.155-1.897-0.124-3.788-0.498-5.666-0.871-1.331-0.266-2.635-0.719-3.952-1.088-0.744-0.209-0.745-0.21-1.168 0.54-0.44254 0.76034-0.50133 1.4296-1.486 1.42-0.4814-0.00204-0.547-0.16592-0.547-0.16592s0.011-1.8971-5e-3 -2.6771c-1e-3 -0.126-0.087-0.326-0.172-0.359-0.758-0.302-1.525-0.575-2.311-0.864 0.031 0.58 0.073 1.087 0.079 1.594 4e-3 0.288-0.03 0.598-0.379 0.584-0.322-0.012-0.345-0.323-0.337-0.576 0.016-0.579 0.076-1.157 0.119-1.767-0.249-0.117-0.528-0.247-0.805-0.376 1e-3 -0.074 2e-3 -0.083 3e-3 -0.157 0.28-0.12 0.561-0.239 0.831-0.354-0.058-0.494-0.145-0.948-0.155-1.403-6e-3 -0.352-0.138-0.904 0.355-0.917 0.509-0.011 0.363 0.536 0.363 0.892 1e-3 0.4-0.052 0.802-0.088 1.271 0.681-0.251 1.322-0.532 1.983-0.715 0.443-0.123 0.553-0.372 0.532-0.877-0.036-0.845-0.01-1.693-0.01-2.478 1.1083-0.37711 1.5513 0.30829 1.972 1.2 0.518 0.938 0.516 0.928 1.442 0.617 3.838-1.29 7.768-1.929 11.744-1.97 7.588-0.079 15.177-8e-3 22.767-0.037 1.491-6e-3 2.922 0.263 4.315 0.854 1.359 0.576 2.687 1.237 3.695 2.535 0.657 0.846 0.717 1.855 0.115 2.754-1.0513 1.5218-2.7744 2.2551-4.431 2.933-1.303 0.533-2.625 0.648-3.979 0.622" fill="#fff"/></g></g><g transform="translate(-6.33 -67.725)" fill="#fff"><g transform="translate(68.735 512.18)"><path d="m0 0v7.738h2.185l2.059-5.358h0.021v5.358h1.51v-7.738h-2.131l-2.113 5.658h-0.02v-5.658z" fill="#fff"/></g><g transform="translate(75.8 516.05)"><path d="m0 0c0 2.048 0 3.998 2.669 3.998 1.651 0 2.316-0.911 2.252-2.572h-1.587c0 1.028-0.182 1.416-0.665 1.416-0.91 0-1.031-0.859-1.031-2.842 0-1.982 0.121-2.839 1.031-2.839 0.749 0 0.719 0.963 0.741 1.575h1.596c0-2.067-0.825-2.733-2.337-2.733-2.669 0-2.669 1.974-2.669 3.997" fill="#fff"/></g><g transform="translate(86.315 512.05)"><path d="m0 0c-2.004 0-2.379 1.182-2.295 2.518h1.621c0-0.739 0.03-1.361 0.92-1.361 0.548 0 0.813 0.355 0.813 0.879 0 1.396-3.257 1.48-3.257 3.784 0 1.21 0.579 2.174 2.552 2.174 1.575 0 2.356-0.705 2.251-2.325h-1.576c0 0.58-0.098 1.169-0.751 1.169-0.524 0-0.835-0.29-0.835-0.825 0-1.47 3.257-1.34 3.257-3.772 0-2.004-1.47-2.241-2.7-2.241" fill="#fff"/></g><g transform="translate(94.782 519.92)"><path d="m0 0v-1.287h-1.799v-6.451h-1.619v6.451h-1.801v1.287z" fill="#fff"/></g><g transform="translate(97.416 518.43)"><path d="m0 0h-0.022l-0.739-3.344h1.543zm-3.117-6.247 2.14 7.738h2.134l2.1-7.738h-1.704l-0.428 1.716h-2.209l-0.438-1.716z" fill="#fff"/></g><g transform="translate(105.39 519.92)"><path d="m0 0v-1.287h-1.803v-6.451h-1.619v6.451h-1.799v1.287z" fill="#fff"/></g><g transform="translate(106.15 512.18)"><path d="m0 0v7.738h4.221v-1.19h-2.603v-1.909h2.4v-1.188h-2.4v-2.261h2.69v-1.19z" fill="#fff"/></g><g transform="translate(114.59 515.05)"><path d="m0 0c0-1.008 0-2.445 1.575-2.445 1.576 0 1.576 1.437 1.576 2.445v4.865h0.685v-5.372c0-1.992-1.051-2.517-2.261-2.517-1.211 0-2.261 0.525-2.261 2.517v5.372h0.686z" fill="#fff"/></g><g transform="translate(120.46 512.18)"><path d="m0 0v7.738h1.052l3.138-6.794 0.022 0.021v6.773h0.685v-7.738h-1.04l-3.147 6.87-0.023-0.023v-6.847z" fill="#fff"/></g><path d="m128.2 512.18h-0.687v7.738h0.687z"/><g transform="translate(134.11 519.92)"><path d="m0 0h0.664l-2.143-7.738h-0.855l-2.157 7.738h0.73l1.835-6.922h0.017z" fill="#fff"/></g><g transform="translate(139.68 519.92)"><path d="m0 0v-0.578h-2.818v-2.893h2.693v-0.582h-2.693v-3.107h2.892v-0.578h-3.577v7.738z" fill="#fff"/></g><g transform="translate(142.03 516.51)"><path d="m0 0h1.116c1.029 0 1.509 0.266 1.509 1.564 0 1.06-0.418 1.265-1.22 1.265h-1.405zm0-0.579v-3.752h-0.683v7.738h2.131c1.491 0 1.864-0.493 1.864-1.853 0-0.967-0.162-1.609-1.2-1.845v-0.021c1.083-0.224 1.147-0.353 1.147-3.119 0-0.299 0.053-0.597 0.073-0.9h-0.65c-0.067 0.226-0.098 1.513-0.11 1.927-9e-3 0.335 0.215 1.825-1.272 1.825z" fill="#fff"/></g><g transform="translate(150.5 517.96)"><path d="m0 0c-0.019 0.952-0.258 1.532-1.31 1.532-0.833 0-1.36-0.29-1.36-1.2 0-1.148 0.58-1.178 1.46-1.813 0.952-0.683 1.926-0.888 1.926-2.389 0-1.382-0.704-2.057-2.055-2.057-1.51 0-2.188 0.816-2.125 2.327h0.712c0-0.858 0.063-1.749 1.442-1.749 0.902 0 1.341 0.483 1.341 1.374 0 1.05-0.697 1.348-1.811 2.033-1.497 0.924-1.563 1.383-1.575 2.156-0.01 1.339 0.837 1.896 2.1 1.896 1.608 0 1.952-0.996 1.952-2.11z" fill="#fff"/></g><path d="m153.83 512.18h-0.685v7.738h0.685z"/><g transform="translate(157.2 519.34)"><path d="m0 0h-1.883v0.578h4.457v-0.578h-1.885v-7.16h-0.689z" fill="#fff"/></g><g transform="translate(162.73 515.4)"><path d="m0 0-2.188 4.523h0.773l1.768-3.848 1.854 3.848h0.686l-2.206-4.523v-3.215h-0.687z" fill="#fff"/></g></g></g></g></g></svg>
