<?xml version="1.0" encoding="UTF-8" standalone="no"?>
<svg
   id="Layer_1"
   data-name="Layer 1"
   viewBox="0 0 512 512"
   version="1.1"
   xmlns="http://www.w3.org/2000/svg"
   xmlns:svg="http://www.w3.org/2000/svg"
   xmlns:rdf="http://www.w3.org/1999/02/22-rdf-syntax-ns#"
   xmlns:cc="http://creativecommons.org/ns#"
   xmlns:dc="http://purl.org/dc/elements/1.1/">
  <defs
     id="defs1">
    <style
       id="style1">.cls-1{fill:#c00;}</style>
  </defs>
  <title
     id="title1">icons-collection</title>
  <polygon
     class="cls-1"
     points="352.96 22.57 352.96 21.55 156.99 21.55 156.99 22.57 156.99 22.57 156.99 110.81 187.77 110.81 187.77 48.22 322.18 48.22 322.18 110.81 352.96 110.81 352.96 22.57"
     id="polygon1"
     style="fill:#000000;fill-opacity:1" />
  <rect
     class="cls-1"
     x="94.4"
     y="214.44"
     width="31.81"
     height="88.24"
     id="rect1"
     style="fill:#000000;fill-opacity:1" />
  <rect
     class="cls-1"
     x="385.8"
     y="214.44"
     width="31.81"
     height="88.24"
     id="rect2"
     style="fill:#000000;fill-opacity:1" />
  <polygon
     class="cls-1"
     points="0 118 0 250.36 84.14 250.36 84.14 203.16 135.44 203.16 135.44 250.36 375.54 250.36 375.54 203.16 426.84 203.16 426.84 250.36 512 250.36 512 118 0 118"
     id="polygon2"
     style="fill:#000000;fill-opacity:1" />
  <polygon
     class="cls-1"
     points="426.84 262.67 426.84 310.89 375.54 310.89 375.54 262.67 135.44 262.67 135.44 310.89 84.14 310.89 84.14 262.67 0 262.67 0 490.45 510.97 490.45 510.97 262.67 426.84 262.67"
     id="polygon3"
     style="fill:#000000;fill-opacity:1" />
  <metadata
     id="metadata3">
    <rdf:RDF>
      <cc:Work
         rdf:about="">
        <dc:title>icons-collection</dc:title>
      </cc:Work>
    </rdf:RDF>
  </metadata>
</svg>
