<?xml version="1.0" encoding="UTF-8" standalone="no"?>
<svg
   id="Layer_1"
   data-name="Layer 1"
   viewBox="0 0 512 512"
   version="1.1"
   xmlns="http://www.w3.org/2000/svg"
   xmlns:svg="http://www.w3.org/2000/svg"
   xmlns:rdf="http://www.w3.org/1999/02/22-rdf-syntax-ns#"
   xmlns:cc="http://creativecommons.org/ns#"
   xmlns:dc="http://purl.org/dc/elements/1.1/">
  <defs
     id="defs1">
    <style
       id="style1">.cls-1{fill:#c00;}</style>
  </defs>
  <title
     id="title1">icons-collection</title>
  <polygon
     class="cls-1"
     points="394.44 118.79 394.44 301.21 167.43 301.21 131.96 341.74 131.96 365.05 353.9 365.05 448.15 471.46 448.15 365.05 512 365.05 512 118.79 394.44 118.79"
     id="polygon1"
     style="fill:#ffffff;fill-opacity:1" />
  <path
     class="cls-1"
     d="M159.11,286.8H381.05V40.54H0V286.8H63.85V393.21ZM284.77,130.73a31.42,31.42,0,1,1-31.41,31.42A31.42,31.42,0,0,1,284.77,130.73Zm-94.25,0a31.42,31.42,0,1,1-31.41,31.42A31.42,31.42,0,0,1,190.52,130.73Zm-95.26,0a31.42,31.42,0,1,1-31.41,31.42A31.42,31.42,0,0,1,95.26,130.73Z"
     id="path1"
     style="fill:#ffffff;fill-opacity:1" />
  <metadata
     id="metadata1">
    <rdf:RDF>
      <cc:Work
         rdf:about="">
        <dc:title>icons-collection</dc:title>
      </cc:Work>
    </rdf:RDF>
  </metadata>
</svg>
