<?xml version="1.0" encoding="UTF-8" standalone="no"?>
<svg
   id="Layer_1"
   data-name="Layer 1"
   viewBox="0 0 512 512"
   version="1.1"
   xmlns="http://www.w3.org/2000/svg"
   xmlns:svg="http://www.w3.org/2000/svg"
   xmlns:rdf="http://www.w3.org/1999/02/22-rdf-syntax-ns#"
   xmlns:cc="http://creativecommons.org/ns#"
   xmlns:dc="http://purl.org/dc/elements/1.1/">
  <defs
     id="defs1">
    <style
       id="style1">.cls-1{fill:#c00;}</style>
  </defs>
  <title
     id="title1">icons-collection</title>
  <path
     class="cls-1"
     d="M214.43,333l.81-.41c-16-13.93-26.21-36.05-26.21-60.83,0-27,12.29-50.79,30.52-64.51l-17.21-7.58a66.62,66.62,0,0,1-57.75,5.73A84.32,84.32,0,0,1,146.43,223c0,25.19-10.44,47.51-26.62,61.44l.2.2,46.7,20.48,8.39,3.69v42.39Z"
     id="path1"
     style="fill:#ffffff;fill-opacity:1" />
  <path
     class="cls-1"
     d="M167.94,188.21c29.08,0,52.63-28.26,52.63-62.87s-23.76-62.67-52.63-62.67-52.43,27.85-52.43,62.67S138.85,188.21,167.94,188.21Z"
     id="path2"
     style="fill:#ffffff;fill-opacity:1" />
  <path
     class="cls-1"
     d="M390.55,283.65c-16-13.93-26.21-36-26.21-60.83A86.23,86.23,0,0,1,366.18,205a62.42,62.42,0,0,1-22.94,4.31,64.77,64.77,0,0,1-35-10.24l-16.79,7.78c18.43,13.72,30.72,37.68,30.72,64.71,0,25.2-10.44,47.52-26.62,61.44l.2.21,41,18V308.84l7.78-3.69,45.26-21.09Z"
     id="path3"
     style="fill:#ffffff;fill-opacity:1" />
  <path
     class="cls-1"
     d="M343.24,188.21c29.09,0,52.64-28.26,52.64-62.87s-23.76-62.67-52.64-62.67-52.42,27.85-52.42,62.67S314.16,188.21,343.24,188.21Z"
     id="path4"
     style="fill:#ffffff;fill-opacity:1" />
  <path
     class="cls-1"
     d="M465.51,297.16a68.68,68.68,0,0,1-27.24,9.43c-2.25.2-4.71.41-7,.41h-.21c-2.25,0-4.5-.21-6.75-.41a67.67,67.67,0,0,1-28.47-9.83l-45.26,20.88v82.95H512V317.64Z"
     id="path5"
     style="fill:#ffffff;fill-opacity:1" />
  <path
     class="cls-1"
     d="M384.2,195.17a36.08,36.08,0,0,0-2.45,6.56,69.1,69.1,0,0,0-3.28,21.5c0,32,20.07,58.37,45.88,62.26,2.25.21,4.5.41,6.75.41h.21a39.91,39.91,0,0,0,7-.61c25.6-4.3,45.26-30.52,45.26-62.26,0-34.82-23.55-62.88-52.43-62.47-18.22,0-34.61,11.27-43.82,28.47A28.67,28.67,0,0,0,384.2,195.17Z"
     id="path6"
     style="fill:#ffffff;fill-opacity:1" />
  <path
     class="cls-1"
     d="M263.17,355.33c-2.25.2-4.71.41-7,.41h-.4c-2.26,0-4.72-.21-6.76-.41a64.9,64.9,0,0,1-28.47-9.83l-45.26,20.89v82.94H336.69V366.39l-46.28-20.48A68.72,68.72,0,0,1,263.17,355.33Z"
     id="path7"
     style="fill:#ffffff;fill-opacity:1" />
  <path
     class="cls-1"
     d="M249,333.82c2.25.21,4.5.41,6.76.41h.2a39.91,39.91,0,0,0,7-.61c25.6-4.3,45.26-30.52,45.26-62.26,0-25.8-13.31-47.92-31.94-57.55a46.38,46.38,0,0,0-18.23-4.91h-3.89a41,41,0,0,0-10,1.43,37.31,37.31,0,0,0-9,3.48c-18.84,9.63-32,31.95-32,57.75C203.16,303.51,223,329.93,249,333.82Z"
     id="path8"
     style="fill:#ffffff;fill-opacity:1" />
  <path
     class="cls-1"
     d="M87.65,306.59c-2.25.2-4.71.41-7,.41h-.2c-2.26,0-4.71-.21-6.76-.41a65,65,0,0,1-28.47-9.83L0,317.64v82.95H161.38V317.64l-46.49-20.48A68.63,68.63,0,0,1,87.65,306.59Z"
     id="path9"
     style="fill:#ffffff;fill-opacity:1" />
  <path
     class="cls-1"
     d="M73.73,285.49c2.25.21,4.5.41,6.76.41h.2a39.91,39.91,0,0,0,7-.61c25.6-4.3,45.27-30.52,45.27-62.26a67.71,67.71,0,0,0-3.49-21.71,36.08,36.08,0,0,0-2.45-6.56,60.1,60.1,0,0,0-2.87-6.34c-9.42-16.8-25.4-27.86-43.62-27.86-29.09,0-52.64,28.06-52.64,62.67C27.85,255.18,47.72,281.6,73.73,285.49Z"
     id="path10"
     style="fill:#ffffff;fill-opacity:1" />
  <metadata
     id="metadata10">
    <rdf:RDF>
      <cc:Work
         rdf:about="">
        <dc:title>icons-collection</dc:title>
      </cc:Work>
    </rdf:RDF>
  </metadata>
</svg>
