<?xml version="1.0" encoding="UTF-8" standalone="no"?>
<svg
   id="Layer_1"
   data-name="Layer 1"
   viewBox="0 0 512 512"
   version="1.1"
   xmlns="http://www.w3.org/2000/svg"
   xmlns:svg="http://www.w3.org/2000/svg"
   xmlns:rdf="http://www.w3.org/1999/02/22-rdf-syntax-ns#"
   xmlns:cc="http://creativecommons.org/ns#"
   xmlns:dc="http://purl.org/dc/elements/1.1/">
  <defs
     id="defs1">
    <style
       id="style1">.cls-1{fill:#c00;}</style>
  </defs>
  <title
     id="title1">icons-collection</title>
  <polygon
     class="cls-1"
     points="158.13 239.12 172.3 224.96 33.97 86.62 42.01 78.6 180.33 216.84 194.66 202.51 56.42 64.27 64.44 56.24 202.69 194.49 217.02 180.16 78.77 41.91 86.8 33.88 225.05 172.13 239.22 157.95 92.47 11.21 55.31 0.1 0.28 55.14 11.38 92.29 158.13 239.12"
     id="polygon1"
     style="fill:#000000;fill-opacity:1" />
  <path
     class="cls-1"
     d="M508.46,71.11l-64.39,66.22L390.92,121,374.55,67.81l66.21-64.4S265.83-35.63,288.18,156L14.29,429.8a47.93,47.93,0,0,0,67.28,68.29l.51-.51L355.89,223.69C547.52,246.05,508.46,71.11,508.46,71.11Zm-445,405.53-19.29,5.2L30,467.74l5.2-19.28,19.21-5.12,14.09,14.09Z"
     id="path1"
     style="fill:#000000;fill-opacity:1" />
  <path
     class="cls-1"
     d="M471.59,425.41a99.79,99.79,0,0,1-12.29-4.6l-4.27-2c-7.93-3.71-15.6-8-23.19-12.29-.29-.13-.62-.33-.91-.49-1.08-.62-2.16-1.27-3.2-1.93-8.23-5.15-15.19-11.51-22.08-18.39q-8.43-8.5-16.89-17c-8.2-8.15-16.34-16.38-24.49-24.53q-14.22-14.2-28.38-28.4c-4.11-4.14-8.21-8.32-12.36-12.39l-19.89,19.89c4.1,4.14,8.28,8.29,12.35,12.36q14.22,14.17,28.41,28.37c8.15,8.16,16.37,16.35,24.56,24.5q8.42,8.46,16.93,16.93c6.94,6.94,13.37,14,18.56,22.3.63.94,1.21,1.92,1.76,2.93l.52.91c4.3,7.64,8.54,15.3,12.26,23.2.71,1.5,1.41,3,2.06,4.49a89.56,89.56,0,0,1,4.53,12.08l67.73,40.47,2.72-2.81,6.51-6.68,6.63-6.46,2.83-2.77Z"
     id="path2"
     style="fill:#000000;fill-opacity:1" />
  <metadata
     id="metadata2">
    <rdf:RDF>
      <cc:Work
         rdf:about="">
        <dc:title>icons-collection</dc:title>
      </cc:Work>
    </rdf:RDF>
  </metadata>
</svg>
